<svg width="1920" height="1440" viewBox="0 0 1920 1440" fill="none" xmlns="http://www.w3.org/2000/svg">
<path d="M1763.39 1342.62C1750.18 1340.2 1737.59 1335.11 1726.41 1327.66L1727.63 1325.99C1738.58 1333.27 1750.9 1338.24 1763.84 1340.59C1783.43 1344.12 1812.74 1342.39 1841.13 1314.16C1896.39 1259.21 1949.14 1253.68 1949.66 1253.63L1949.86 1255.69C1949.34 1255.74 1897.33 1261.2 1842.59 1315.63C1820.23 1337.86 1797.28 1344.01 1778.74 1344.01C1773.59 1344 1768.46 1343.54 1763.39 1342.62Z" fill="#2F2E41"/>
<path d="M1921.98 1299.15C1928.83 1299.15 1934.39 1293.58 1934.39 1286.72C1934.39 1279.85 1928.83 1274.29 1921.98 1274.29C1915.12 1274.29 1909.56 1279.85 1909.56 1286.72C1909.56 1293.58 1915.12 1299.15 1921.98 1299.15Z" fill="#2F2E41"/>
<path d="M1834.03 1357.14C1840.89 1357.14 1846.45 1351.58 1846.45 1344.72C1846.45 1337.85 1840.89 1332.29 1834.03 1332.29C1827.18 1332.29 1821.62 1337.85 1821.62 1344.72C1821.62 1351.58 1827.18 1357.14 1834.03 1357.14Z" fill="#2F2E41"/>
<path d="M1810.75 938.08C1799.48 950.247 1828.96 979.776 1828.96 979.776C1828.96 979.776 1769.26 989.854 1773.99 989.243C1778.73 988.633 1776.28 938.358 1776.28 938.358C1776.28 938.358 1822.03 925.912 1810.75 938.08Z" fill="#A0616A"/>
<path d="M1852.31 1068.3L1800.43 1094.83L1772.26 1110.99C1772.26 1110.99 1739.05 1152.86 1732.86 1177.68C1726.66 1202.5 1759.68 1248.36 1763.42 1253.1C1765.35 1255.52 1767.08 1258.09 1768.58 1260.79C1769.87 1262.71 1781.03 1260.23 1793.21 1257.62C1805.39 1255 1791.59 1236.94 1791.59 1236.94C1791.59 1236.94 1776.05 1197.17 1774.89 1196.28C1773.81 1195.44 1770.13 1188.57 1772.77 1185.56C1775.26 1182.9 1777.17 1179.76 1778.41 1176.34C1779.43 1173.4 1780.89 1170.63 1782.74 1168.12C1782.74 1168.12 1829.67 1129.97 1844.33 1116.98C1858.98 1103.99 1897.95 1112.15 1897.95 1112.15C1897.95 1112.15 1879.55 1182.79 1874.95 1187.56C1870.35 1192.33 1869.85 1196.57 1871.93 1204.65C1874.02 1212.74 1901.19 1205.06 1901.19 1205.06L1911.23 1177.66C1911.23 1177.66 1927.52 1142.14 1936.37 1105.5C1940.79 1087.17 1932.35 1076.25 1922.8 1069.91C1913.61 1063.95 1902.49 1061.74 1891.73 1063.72L1843.77 1072.14L1877.03 1057.8L1852.31 1068.3Z" fill="#2F2E41"/>
<path d="M1660.97 1000.03L1599.05 980.86C1599.05 980.86 1574.03 948.581 1585.82 942.885C1597.6 937.188 1612.36 970.791 1612.36 970.791L1655.48 973.584L1660.97 1000.03Z" fill="#A0616A"/>
<path d="M1921.3 966.466L1976.35 932.218C1976.35 932.218 1992.38 894.647 1979.54 892.126C1966.69 889.604 1960.93 925.852 1960.93 925.852L1919.91 939.494L1921.3 966.466Z" fill="#A0616A"/>
<path d="M1931.6 927.745L1932.65 968.336L1839.86 984.933C1853.51 1014.16 1850.04 1047.43 1884.39 1062.02L1768.6 1118.71C1773.76 1074.14 1752.23 1040.56 1732.11 998.823C1707.61 989.931 1679.15 996.45 1649 1009.54L1643.58 967.423L1771.74 958.209L1792.8 966.266L1815.37 956.762C1848.55 946.894 1896.18 928.134 1931.6 927.745Z" fill="#6C63FF"/>
<path d="M1873.85 1203.36C1871.04 1205.81 1868.42 1225.99 1868.32 1233.31C1868.22 1240.64 1877.85 1242.53 1883.11 1242.89C1888.38 1243.26 1887.75 1246.47 1891.22 1249.16C1894.7 1251.84 1906.11 1251.41 1921.11 1246.35C1936.11 1241.28 1911.02 1224.68 1908.84 1223.91C1906.65 1223.15 1897.45 1200.32 1897.45 1200.32C1897.45 1200.32 1876.67 1200.91 1873.85 1203.36Z" fill="#2F2E41"/>
<path d="M1791.84 1249.44C1795.18 1251.1 1802.82 1269.95 1804.77 1277.01C1806.73 1284.07 1797.89 1288.34 1792.89 1290.03C1787.89 1291.72 1789.31 1294.67 1786.63 1298.15C1783.95 1301.62 1772.79 1304.11 1757.01 1303.01C1741.22 1301.91 1761.28 1279.48 1763.2 1278.19C1765.12 1276.9 1768.24 1252.48 1768.24 1252.48C1768.24 1252.48 1788.5 1247.78 1791.84 1249.44Z" fill="#2F2E41"/>
<path d="M1791.95 953.546C1805.66 953.546 1816.77 942.419 1816.77 928.694C1816.77 914.968 1805.66 903.841 1791.95 903.841C1778.23 903.841 1767.12 914.968 1767.12 928.694C1767.12 942.419 1778.23 953.546 1791.95 953.546Z" fill="#A0616A"/>
<path d="M1763.25 926.201C1761.76 923.232 1760.92 919.982 1760.77 916.665C1760.62 913.347 1761.17 910.035 1762.39 906.944C1764.83 900.921 1770.24 894.873 1781.91 893.066C1807.38 889.124 1820.93 906.981 1820.22 912.821C1819.51 918.662 1816.09 932.78 1816.09 932.78C1816.09 932.78 1817.61 919.413 1811.06 918.941C1804.51 918.469 1779.09 916.478 1772.65 923.234C1770.81 925.069 1769.48 927.361 1768.8 929.877C1768.13 932.393 1768.13 935.043 1768.82 937.557L1763.25 926.201Z" fill="#2F2E41"/>
<path d="M555.957 9.13516C68.5526 -22.8837 -52.1268 33.5274 -140 112.049V1052C346.8 941.213 753 982.728 946 1012.79C1320.5 1105.07 1941.5 940.337 2109.56 991.775C2109.56 621.282 2351.5 102.14 2131.82 55.6377C1889.65 4.37562 1928.54 23.3233 1589.35 55.6381C1237.27 89.1807 1177.43 49.9612 555.957 9.13516Z" fill="#6C63FF" fill-opacity="0.04"/>
</svg>
