<svg width="1083" height="730" viewBox="0 0 1083 730" fill="none" xmlns="http://www.w3.org/2000/svg">
<path d="M657.165 201.595C331.997 224.059 194.54 312.947 124.426 531.107C101.639 621.812 193.339 767.456 374.645 721.117C550.806 676.094 466.065 568.294 813.732 599.135C1091.86 623.809 1076.66 481.063 1056.06 394.268C1035.47 307.474 982.332 179.132 657.165 201.595Z" fill="#6C69FF" fill-opacity="0.05"/>
<path d="M525.738 592.951C858.576 500.307 983.978 390.02 1014.64 178.943C1020.79 92.6033 897.645 -17.4213 718.578 64.5264C544.592 144.149 653.231 221.823 286.793 271.731C-6.35785 311.658 36.9147 436.146 74.9947 509.308C113.075 582.47 192.9 685.595 525.738 592.951Z" fill="#6C69FF" fill-opacity="0.03"/>
</svg>
