<svg width="102" height="127" viewBox="0 0 102 127" fill="none" xmlns="http://www.w3.org/2000/svg">
<g clip-path="url(#clip0)">
<path d="M88.9765 37.4705C89.2745 35.8529 89.4251 34.2119 89.4265 32.5673C89.4297 26.0671 87.1571 19.7694 83.0002 14.7587C78.8432 9.74798 73.0622 6.33804 66.6528 5.11619C60.2434 3.89433 53.6069 4.93705 47.8862 8.06474C42.1656 11.1924 37.719 16.2093 35.3124 22.2512C33.9781 21.9154 32.6073 21.7445 31.2311 21.7425C27.0292 21.731 22.9722 23.2716 19.8445 26.0665C16.7167 28.8614 14.7404 32.7122 14.2975 36.8743C10.9296 38.3015 8.16018 40.8439 6.45793 44.0712C4.75567 47.2986 4.22514 51.0126 4.95612 54.5848C5.6871 58.157 7.63469 61.368 10.4693 63.6742C13.3039 65.9804 16.8513 67.2403 20.5113 67.2407H25.1948C26.3225 62.9825 28.5048 59.0742 31.5417 55.8738V45.104C31.5417 39.963 33.592 35.0326 37.2416 31.3974C40.8911 27.7621 45.841 25.7199 51.0022 25.7199C56.1635 25.7199 61.1133 27.7621 64.7629 31.3974C68.4124 35.0326 70.4627 39.963 70.4627 45.104V55.872C73.5017 59.0722 75.6853 62.9813 76.8132 67.2407H81.4895C85.0289 67.2385 88.4661 66.0589 91.2557 63.889C94.0453 61.7192 96.0274 58.6835 96.8875 55.2637C97.7476 51.8439 97.4363 48.2359 96.0031 45.0124C94.5699 41.7888 92.0968 39.1345 88.9765 37.4705V37.4705Z" fill="#6C63FF"/>
<path d="M66.7537 45.1039C66.7537 40.9428 65.0942 36.9521 62.1402 34.0097C59.1862 31.0673 55.1798 29.4143 51.0023 29.4143C46.8247 29.4143 42.8183 31.0673 39.8643 34.0097C36.9104 36.9521 35.2509 40.9428 35.2509 45.1039V57.4028C31.8896 60.5478 29.5548 64.6265 28.5494 69.1096C27.5439 73.5927 27.9143 78.2733 29.6124 82.5441C31.3105 86.815 34.2579 90.479 38.0723 93.0607C41.8867 95.6424 46.392 97.0227 51.0037 97.0226C55.6154 97.0224 60.1206 95.6418 63.9348 93.0598C67.749 90.4778 70.6962 86.8136 72.394 82.5426C74.0918 78.2716 74.4618 73.591 73.456 69.108C72.4503 64.625 70.1152 60.5465 66.7537 57.4016V45.1039ZM52.8573 80.9163V84.63C52.8573 85.1199 52.6619 85.5898 52.3141 85.9362C51.9663 86.2826 51.4946 86.4773 51.0027 86.4773C50.5109 86.4773 50.0391 86.2826 49.6914 85.9362C49.3436 85.5898 49.1482 85.1199 49.1482 84.63V80.9163C47.4724 80.4682 46.0173 79.4286 45.0538 77.9913C44.0904 76.554 43.6843 74.8168 43.9111 73.1033C44.138 71.3899 44.9824 69.817 46.2871 68.6776C47.5917 67.5382 49.2676 66.91 51.0027 66.91C52.7378 66.91 54.4137 67.5382 55.7184 68.6776C57.023 69.817 57.8674 71.3899 58.0943 73.1033C58.3212 74.8168 57.915 76.554 56.9516 77.9913C55.9881 79.4286 54.533 80.4682 52.8573 80.9163ZM63.0446 54.5736C59.4295 52.3364 55.2584 51.1508 51.0024 51.1506C46.7464 51.1505 42.5752 52.3358 38.9599 54.5727V45.1039C38.9599 41.9227 40.2287 38.8717 42.4871 36.6221C44.7454 34.3726 47.8084 33.1089 51.0023 33.1089C54.1961 33.1089 57.2591 34.3726 59.5175 36.6221C61.7759 38.8717 63.0446 41.9227 63.0446 45.1039V54.5736Z" fill="#6C63FF"/>
</g>
<defs>
<clipPath id="clip0">
<rect width="102" height="127" fill="white"/>
</clipPath>
</defs>
</svg>
