<svg width="100" height="200" viewBox="0 0 100 200" fill="none" xmlns="http://www.w3.org/2000/svg">
<path d="M82.2176 50.9761H16.9776C14.7808 50.9761 13.0016 52.7569 13.0016 54.9521V69.2401C13.0016 71.4369 14.7808 73.2161 16.9776 73.2161H48.1584V79.9409H16.9776C14.7808 79.9409 13 81.7185 13 83.9153V98.2049C13 100.402 14.7808 102.179 16.9776 102.179H48.1584V108.902H16.9776C14.7808 108.902 13 110.683 13 112.88V127.168C13 129.363 14.7808 131.144 16.9776 131.144H48.1584V134.834C48.6272 134.755 49.1056 134.714 49.5952 134.714C50.0848 134.714 50.5632 134.755 51.032 134.834V131.144H82.2144C84.4112 131.144 86.1888 129.363 86.1888 127.168V112.88C86.1888 110.683 84.4112 108.902 82.2144 108.902H51.0336V102.179H82.216C84.4128 102.179 86.1904 100.402 86.1904 98.2049V83.9153C86.1904 81.7185 84.4128 79.9409 82.216 79.9409H51.0336V73.2161H82.216C84.4112 73.2161 86.192 71.4369 86.192 69.2401V54.9521C86.1936 52.7585 84.4128 50.9761 82.2176 50.9761ZM25.0304 121.464H19.2672C18.4736 121.464 17.8304 120.821 17.8304 120.027C17.8304 119.234 18.4736 118.59 19.2672 118.59H25.0304C25.824 118.59 26.4672 119.234 26.4672 120.027C26.4672 120.821 25.8256 121.464 25.0304 121.464ZM35.2416 121.464H29.4784C28.6848 121.464 28.0416 120.821 28.0416 120.027C28.0416 119.234 28.6848 118.59 29.4784 118.59H35.2416C36.0352 118.59 36.6784 119.234 36.6784 120.027C36.6784 120.821 36.0352 121.464 35.2416 121.464ZM75.2752 115.374C77.8432 115.374 79.9248 117.458 79.9248 120.027C79.9248 122.594 77.8432 124.675 75.2752 124.675C72.7088 124.675 70.6256 122.594 70.6256 120.027C70.6256 117.458 72.7072 115.374 75.2752 115.374ZM25.0304 92.5009H19.2672C18.4736 92.5009 17.8304 91.8577 17.8304 91.0641C17.8304 90.2705 18.4736 89.6273 19.2672 89.6273H25.0304C25.824 89.6273 26.4672 90.2705 26.4672 91.0641C26.4672 91.8577 25.8256 92.5009 25.0304 92.5009ZM35.2416 92.5009H29.4784C28.6848 92.5009 28.0416 91.8577 28.0416 91.0641C28.0416 90.2705 28.6848 89.6273 29.4784 89.6273H35.2416C36.0352 89.6273 36.6784 90.2705 36.6784 91.0641C36.6784 91.8577 36.0352 92.5009 35.2416 92.5009ZM75.2752 86.4129C77.8432 86.4129 79.9248 88.4945 79.9248 91.0625C79.9248 93.6289 77.8432 95.7105 75.2752 95.7105C72.7088 95.7105 70.6256 93.6289 70.6256 91.0625C70.6256 88.4945 72.7072 86.4129 75.2752 86.4129ZM25.0304 63.5345H19.2672C18.4736 63.5345 17.8304 62.8913 17.8304 62.0977C17.8304 61.3041 18.4736 60.6609 19.2672 60.6609H25.0304C25.824 60.6609 26.4672 61.3041 26.4672 62.0977C26.4672 62.8913 25.8256 63.5345 25.0304 63.5345ZM35.2416 63.5345H29.4784C28.6848 63.5345 28.0416 62.8913 28.0416 62.0977C28.0416 61.3041 28.6848 60.6609 29.4784 60.6609H35.2416C36.0352 60.6609 36.6784 61.3041 36.6784 62.0977C36.6784 62.8913 36.0352 63.5345 35.2416 63.5345ZM75.2752 66.7473C72.7072 66.7473 70.6256 64.6657 70.6256 62.0977C70.6256 59.5297 72.7072 57.4481 75.2752 57.4481C77.8432 57.4481 79.9248 59.5297 79.9248 62.0977C79.9248 64.6657 77.8432 66.7473 75.2752 66.7473Z" fill="#6C63FF"/>
<path d="M49.5968 149.024C52.7541 149.024 55.3136 146.465 55.3136 143.307C55.3136 140.15 52.7541 137.591 49.5968 137.591C46.4395 137.591 43.88 140.15 43.88 143.307C43.88 146.465 46.4395 149.024 49.5968 149.024Z" fill="#6C63FF"/>
<path d="M80.4767 137.591C77.8127 137.591 75.5743 139.415 74.9391 141.882C74.8815 141.874 74.8223 141.869 74.7615 141.869H58.0703C58.1503 142.335 58.1903 142.816 58.1903 143.306C58.1903 143.795 58.1503 144.277 58.0703 144.743H74.7615C74.8223 144.743 74.8815 144.738 74.9391 144.731C75.5727 147.199 77.8111 149.023 80.4767 149.023C83.6351 149.023 86.1935 146.463 86.1935 143.307C86.1935 140.151 83.6335 137.591 80.4767 137.591Z" fill="#6C63FF"/>
<path d="M24.4336 141.869C24.3728 141.869 24.3136 141.874 24.2544 141.882C23.6208 139.415 21.3824 137.591 18.7184 137.591C15.56 137.591 13.0016 140.151 13.0016 143.307C13.0016 146.464 15.5616 149.023 18.7184 149.023C21.384 149.023 23.6224 147.199 24.256 144.73C24.3136 144.738 24.3728 144.743 24.4336 144.743H41.1264C41.0448 144.277 41.0048 143.795 41.0048 143.306C41.0048 142.816 41.0448 142.335 41.1264 141.869H24.4336Z" fill="#6C63FF"/>
</svg>
