<svg width="111" height="139" viewBox="0 0 111 139" fill="none" xmlns="http://www.w3.org/2000/svg">
<path d="M68.709 73.1696L60.162 64.6072V78.6184C64.491 78.0624 67.377 76.172 68.709 73.1696Z" fill="#6C63FF"/>
<path d="M36.63 30.9137C39.516 25.9097 45.066 22.5737 52.281 21.9065V19.2377C52.281 17.2361 53.946 15.7905 56.277 15.7905C56.388 15.7905 56.388 15.7905 56.499 15.7905C58.497 15.6793 60.162 17.2361 60.273 19.2377V21.9065C68.82 22.9073 75.258 28.1337 77.367 35.5841C77.478 36.1401 77.589 36.6961 77.589 37.1409C77.589 39.2537 76.035 41.0329 73.926 41.4777H73.815H73.704H73.482C73.038 41.5889 72.594 41.5889 72.039 41.5889C69.93 41.7001 68.043 40.2545 67.599 38.2529C66.822 34.4721 63.825 31.5809 60.051 30.9137V49.3729C70.041 51.5969 79.365 55.2665 79.365 68.4993C79.365 70.0561 79.254 71.6129 78.81 73.1697L93.351 87.7369C101.01 79.2857 105.45 67.9433 105.45 55.6001C105.45 27.9113 83.139 5.56006 55.5 5.56006C43.179 5.56006 31.857 10.0081 23.199 17.4585L36.63 30.9137Z" fill="#6C63FF"/>
<path d="M58.719 23.241C59.274 23.241 59.829 23.3522 60.384 23.4634C59.829 23.3522 59.274 23.241 58.719 23.241Z" fill="#6C63FF"/>
<path d="M52.281 46.5929V31.0249C47.619 31.8033 44.622 34.4721 44.067 38.4753L52.281 46.5929Z" fill="#6C63FF"/>
<path d="M75.813 80.2864C72.483 84.6232 67.044 87.4032 60.162 87.848V91.9624V92.0736C59.94 94.0752 58.275 95.5208 56.277 95.4096H56.166C54.168 95.5208 52.503 93.964 52.392 91.9624V87.848C42.18 86.9584 35.298 81.2872 33.189 72.1688C33.078 71.724 33.078 71.2792 33.078 70.8344C33.078 68.4992 34.854 66.3864 37.185 66.0528C37.629 65.9416 38.073 65.9416 38.406 65.9416C40.737 65.8304 42.735 67.3872 43.179 69.6112C44.511 75.1712 47.064 77.6176 52.392 78.5072V58.0464C44.4 56.2672 34.41 52.3752 34.41 39.9208C34.41 39.476 34.41 39.0312 34.41 38.6976L18.093 22.4624C10.323 31.2472 5.55 42.9232 5.55 55.6C5.55 83.2888 27.861 105.64 55.5 105.64C68.154 105.64 79.809 100.858 88.578 93.0744L75.813 80.2864Z" fill="#6C63FF"/>
</svg>
