<svg width="497" height="399" viewBox="0 0 497 399" fill="none" xmlns="http://www.w3.org/2000/svg">
<g clip-path="url(#clip0)">
<path d="M370.344 399C433.875 399 485.377 394.677 485.377 389.344C485.377 384.012 433.875 379.689 370.344 379.689C306.813 379.689 255.31 384.012 255.31 389.344C255.31 394.677 306.813 399 370.344 399Z" fill="#3F3D56"/>
<path d="M484.775 281.332C484.775 328.649 456.703 345.17 422.074 345.17C387.445 345.17 359.373 328.649 359.373 281.332C359.373 234.016 422.074 173.822 422.074 173.822C422.074 173.822 484.775 234.016 484.775 281.332Z" fill="#F2F2F2"/>
<path d="M419.79 337.932L420.432 298.332L447.157 249.342L420.533 292.12L420.821 274.315L439.24 238.87L420.898 269.603L421.417 237.578L441.14 209.361L421.499 232.543L421.823 173.822L419.784 251.558L419.952 248.351L399.899 217.595L419.63 254.507L417.762 290.273L417.706 289.323L394.589 256.957L417.636 292.677L417.403 297.149L417.361 297.217L417.38 297.584L412.639 388.324H418.973L419.733 341.455L442.723 305.823L419.79 337.932Z" fill="#3F3D56"/>
<path d="M465.185 366.479C465.185 380.039 457.141 384.773 447.217 384.773C446.988 384.773 446.758 384.771 446.529 384.765C446.069 384.756 445.614 384.734 445.164 384.703C436.208 384.068 429.249 379.09 429.249 366.479C429.249 353.429 445.893 336.962 447.143 335.743L447.145 335.741C447.193 335.693 447.217 335.67 447.217 335.67C447.217 335.67 465.185 352.92 465.185 366.479Z" fill="#6C63FF"/>
<path d="M446.563 382.698L453.135 373.497L446.546 383.709L446.529 384.765C446.069 384.755 445.614 384.733 445.164 384.702L445.872 371.137L445.867 371.031L445.879 371.011L445.945 369.73L439.341 359.493L445.966 368.769L445.982 369.041L446.517 358.791L440.863 348.214L446.586 356.992L447.143 335.742L447.145 335.67V335.74L447.052 352.497L452.681 345.854L447.029 353.941L446.88 363.118L452.136 354.31L446.858 364.468L446.775 369.57L454.406 357.312L446.747 371.35L446.563 382.698Z" fill="#3F3D56"/>
<path d="M135.635 155.161C151.569 155.161 164.486 142.218 164.486 126.252C164.486 110.286 151.569 97.343 135.635 97.343C119.701 97.343 106.784 110.286 106.784 126.252C106.784 142.218 119.701 155.161 135.635 155.161Z" fill="#F2F2F2"/>
<path d="M141.604 146.522C157.538 146.522 170.455 133.579 170.455 117.613C170.455 101.647 157.538 88.7036 141.604 88.7036C125.67 88.7036 112.753 101.647 112.753 117.613C112.753 133.579 125.67 146.522 141.604 146.522Z" stroke="#3F3D56" stroke-width="2" stroke-miterlimit="10"/>
<path d="M101.478 72.0891L78.2502 33.1036C81.037 29.5587 82.4416 25.119 82.2021 20.6128C81.9626 16.1066 80.0953 11.8415 76.9485 8.61324C73.8017 5.38498 69.5904 3.41399 65.1001 3.06795C60.6098 2.7219 56.1472 4.02443 52.5448 6.73256C48.9423 9.4407 46.4461 13.3695 45.5217 17.786C44.5973 22.2026 45.3079 26.8052 47.521 30.7354C49.734 34.6657 53.2983 37.655 57.549 39.1458C61.7997 40.6366 66.4465 40.5271 70.6225 38.8377L101.478 72.0891Z" fill="#3F3D56"/>
<path d="M63.6735 30.2208C68.4353 30.2208 72.2956 26.3528 72.2956 21.5814C72.2956 16.8099 68.4353 12.9419 63.6735 12.9419C58.9116 12.9419 55.0514 16.8099 55.0514 21.5814C55.0514 26.3528 58.9116 30.2208 63.6735 30.2208Z" fill="#6C63FF"/>
<path d="M175.979 67.587L208.111 35.572C212.218 37.4238 216.857 37.7155 221.163 36.3924C225.469 35.0694 229.147 32.2221 231.512 28.3817C233.877 24.5413 234.766 19.97 234.015 15.5206C233.264 11.0712 230.923 7.04752 227.429 4.20021C223.935 1.35291 219.527 -0.123602 215.026 0.0461205C210.526 0.215843 206.241 2.0202 202.971 5.12261C199.7 8.22502 197.668 12.4136 197.252 16.907C196.837 21.4004 198.067 25.8917 200.714 29.5432L175.979 67.587Z" fill="#3F3D56"/>
<path d="M215.743 27.2521C220.504 27.2521 224.365 23.3841 224.365 18.6126C224.365 13.8412 220.504 9.97314 215.743 9.97314C210.981 9.97314 207.12 13.8412 207.12 18.6126C207.12 23.3841 210.981 27.2521 215.743 27.2521Z" fill="#6C63FF"/>
<path d="M198.363 138.931L237.138 162.426C236.338 166.867 237.178 171.448 239.501 175.314C241.823 179.18 245.47 182.068 249.761 183.438C254.052 184.808 258.694 184.567 262.821 182.76C266.948 180.953 270.278 177.704 272.19 173.618C274.102 169.533 274.465 164.889 273.212 160.555C271.959 156.221 269.175 152.491 265.38 150.062C261.584 147.633 257.036 146.67 252.585 147.353C248.133 148.036 244.082 150.319 241.186 153.775L198.363 138.931Z" fill="#3F3D56"/>
<path d="M255.406 174.382C260.168 174.382 264.029 170.514 264.029 165.743C264.029 160.971 260.168 157.103 255.406 157.103C250.645 157.103 246.784 160.971 246.784 165.743C246.784 170.514 250.645 174.382 255.406 174.382Z" fill="#6C63FF"/>
<path d="M134.691 177.953L121.32 221.336C116.827 221.633 112.594 223.557 109.412 226.751C106.23 229.945 104.317 234.189 104.028 238.692C103.739 243.196 105.096 247.65 107.843 251.226C110.591 254.801 114.544 257.252 118.963 258.123C123.382 258.993 127.966 258.223 131.86 255.956C135.754 253.689 138.692 250.08 140.126 245.803C141.56 241.525 141.392 236.871 139.653 232.708C137.915 228.545 134.724 225.158 130.677 223.179L134.691 177.953Z" fill="#3F3D56"/>
<path d="M122.528 248.54C127.29 248.54 131.15 244.672 131.15 239.9C131.15 235.129 127.29 231.261 122.528 231.261C117.766 231.261 113.906 235.129 113.906 239.9C113.906 244.672 117.766 248.54 122.528 248.54Z" fill="#6C63FF"/>
<path d="M81.5015 125.489L36.2569 122.984C34.8823 118.687 31.9945 115.038 28.1323 112.717C24.27 110.396 19.697 109.562 15.2664 110.371C10.8358 111.18 6.85008 113.576 4.05283 117.113C1.25558 120.649 -0.162197 125.085 0.0639837 129.592C0.290164 134.098 2.14486 138.369 5.28207 141.607C8.41929 144.844 12.6248 146.828 17.114 147.187C21.6033 147.546 26.0697 146.257 29.6801 143.56C33.2906 140.862 35.7984 136.941 36.7358 132.527L81.5015 125.489Z" fill="#3F3D56"/>
<path d="M18.5725 137.29C23.3344 137.29 27.1947 133.422 27.1947 128.65C27.1947 123.879 23.3344 120.011 18.5725 120.011C13.8107 120.011 9.95042 123.879 9.95042 128.65C9.95042 133.422 13.8107 137.29 18.5725 137.29Z" fill="#6C63FF"/>
<path d="M488.113 38.1827C493.021 38.1827 497 34.1959 497 29.278C497 24.3601 493.021 20.3733 488.113 20.3733C483.205 20.3733 479.226 24.3601 479.226 29.278C479.226 34.1959 483.205 38.1827 488.113 38.1827Z" fill="#F2F2F2"/>
<path d="M484.5 35.1654C489.408 35.1654 493.386 31.1786 493.386 26.2607C493.386 21.3427 489.408 17.356 484.5 17.356C479.592 17.356 475.613 21.3427 475.613 26.2607C475.613 31.1786 479.592 35.1654 484.5 35.1654Z" stroke="#3F3D56" stroke-width="2" stroke-miterlimit="10"/>
<path d="M431.976 31.2783H411.901V51.3944H431.976V31.2783Z" fill="#6C63FF"/>
<path d="M435.991 27.2551H415.916V47.3712H435.991V27.2551Z" stroke="#3F3D56" stroke-width="2" stroke-miterlimit="10"/>
<path d="M365.827 354.041C365.827 354.041 364.02 365.507 361.009 367.317C357.997 369.128 376.668 373.352 376.668 373.352L379.679 355.247L365.827 354.041Z" fill="#FBBEBE"/>
<path d="M388.111 223.085L394.736 230.93L391.725 258.087L389.315 311.797C389.315 311.797 394.134 358.265 389.315 359.472C384.497 360.679 362.816 360.075 363.418 357.058C364.02 354.041 364.622 351.627 365.827 347.402C367.031 343.178 364.622 328.091 364.622 328.091L367.634 311.193L356.793 238.172L388.111 223.085Z" fill="#2F2E41"/>
<path d="M366.429 365.507C366.429 365.507 359.804 364.3 359.202 365.507C358.6 366.714 347.157 379.387 345.35 379.387C343.543 379.387 330.293 391.457 344.145 392.06C357.998 392.664 380.884 381.801 380.884 381.801C380.884 381.801 377.516 366.444 377.694 367.183C377.873 367.921 366.429 368.524 366.429 365.507Z" fill="#2F2E41"/>
<path d="M359.202 337.747C359.202 337.747 376.065 356.454 376.668 358.265C377.27 360.075 386.304 358.265 386.304 358.265L389.918 346.195L386.906 341.971L370.043 328.091L359.202 337.747Z" fill="#FBBEBE"/>
<path d="M383.293 351.627L374.56 359.863C374.56 359.863 385.702 376.973 385.702 378.783C385.702 380.594 386.304 395.681 392.327 393.267C398.349 390.853 398.952 366.714 398.952 366.714C398.952 366.714 398.349 341.971 394.736 340.16C391.122 338.35 383.202 338.922 383.202 338.922C383.202 338.922 388.111 351.023 383.293 351.627Z" fill="#2F2E41"/>
<path d="M333.304 169.375C333.304 169.375 330.293 179.031 329.691 181.445C329.088 183.859 325.475 190.497 325.475 200.756C325.475 211.015 326.679 223.085 325.475 224.292C324.27 225.499 304.998 293.089 313.429 300.331C321.861 307.573 349.566 331.712 351.372 334.729C353.179 337.747 353.782 344.988 357.395 343.781C361.009 342.575 374.861 330.505 375.463 328.091C376.065 325.677 367.634 321.453 367.634 321.453C367.634 321.453 350.77 296.71 346.554 297.313C342.338 297.917 342.941 294.296 343.543 292.486C344.145 290.675 345.35 289.468 343.543 289.468C341.736 289.468 342.941 284.64 343.543 282.226C344.145 279.812 357.997 247.224 357.997 247.224L394.736 230.93C394.736 230.93 392.929 186.876 379.679 174.807L376.668 167.565C376.668 167.565 342.941 165.151 333.304 169.375Z" fill="#2F2E41"/>
<path d="M348.361 74.0249C348.361 74.0249 351.372 95.1468 344.145 96.3537C336.918 97.5607 330.895 96.9572 330.895 97.5607C330.895 98.1642 348.963 116.872 348.963 116.872L365.827 115.665L380.884 99.3711C380.884 99.3711 367.031 96.9572 367.031 88.5085C367.031 80.0597 366.429 74.0249 366.429 74.0249H348.361Z" fill="#FBBEBE"/>
<path opacity="0.1" d="M348.361 74.0249C348.361 74.0249 351.372 95.1468 344.145 96.3537C336.918 97.5607 330.895 96.9572 330.895 97.5607C330.895 98.1642 348.963 116.872 348.963 116.872L365.827 115.665L380.884 99.3711C380.884 99.3711 367.031 96.9572 367.031 88.5085C367.031 80.0597 366.429 74.0249 366.429 74.0249H348.361Z" fill="black"/>
<path d="M357.696 82.7755C368.008 82.7755 376.367 74.3997 376.367 64.0676C376.367 53.7354 368.008 45.3596 357.696 45.3596C347.385 45.3596 339.026 53.7354 339.026 64.0676C339.026 74.3997 347.385 82.7755 357.696 82.7755Z" fill="#FBBEBE"/>
<path d="M341.134 94.5432C341.134 94.5432 317.645 97.5606 315.839 105.406C314.032 113.251 327.884 162.133 329.691 166.358C331.498 170.582 330.895 173.599 330.895 173.599C333.621 171.557 336.751 170.124 340.075 169.395C343.399 168.666 346.841 168.659 350.168 169.375C361.611 171.789 377.873 170.582 377.873 170.582C377.873 170.582 383.293 148.253 384.497 145.839C385.702 143.425 390.52 130.149 390.52 126.528C390.52 122.907 397.747 107.82 397.747 107.82C397.747 107.82 394.134 96.9571 380.884 97.5606C380.884 97.5606 375.104 94.9686 373.477 96.8681C371.85 98.7676 362.816 107.216 351.373 103.595C339.929 99.9746 341.134 94.5432 341.134 94.5432Z" fill="#3F3D56"/>
<path d="M322.463 104.802H315.838L312.225 152.478C312.225 152.478 325.475 156.098 327.282 153.685C329.088 151.271 322.463 104.802 322.463 104.802Z" fill="#3F3D56"/>
<path d="M314.032 147.65L312.225 152.478C312.225 152.478 311.02 168.168 318.248 167.565C325.475 166.961 329.691 157.909 329.691 157.909C329.691 157.909 325.475 146.443 320.657 147.65C315.839 148.857 314.032 147.65 314.032 147.65Z" fill="#3F3D56"/>
<path d="M386.304 104.802L397.747 107.82C397.747 107.82 406.179 138.597 406.781 139.201C407.384 139.804 407.986 143.425 407.986 143.425C407.986 143.425 407.986 144.029 409.19 145.839C410.395 147.65 412.202 146.443 410.997 148.857C409.793 151.271 407.986 150.064 409.19 152.478C410.395 154.891 409.793 161.53 409.793 161.53C409.793 161.53 406.781 150.064 395.94 153.081L388.713 120.493L386.304 104.802Z" fill="#3F3D56"/>
<path d="M336.43 48.6531C332.633 55.3371 331.778 63.2542 331.254 70.9271C331.03 74.2179 330.861 77.5954 331.835 80.7461C332.862 84.0683 335.147 87.4439 333.975 90.7176C332.842 93.8839 329.051 95.151 326.934 97.7619C325.141 99.9744 324.69 103.006 324.846 105.852C325.001 108.699 325.69 111.493 325.892 114.337C326.309 120.583 324.385 126.76 320.497 131.659C329.568 131.309 339.267 127.278 343.092 119.029C344.236 116.563 344.792 113.864 345.824 111.349C346.992 108.504 348.754 105.928 349.859 103.059C351.528 98.7286 351.618 93.9739 351.687 89.333C351.729 86.5549 351.758 83.7026 350.799 81.0958C348.687 75.3574 342.118 71.6497 341.466 65.5685C341.353 64.9255 341.448 64.2632 341.737 63.6779C342.043 63.2503 342.415 62.8737 342.838 62.562C346.94 58.9347 346.264 51.2554 351.146 48.7827C353.337 47.673 355.978 48.0634 358.33 48.7658C360.943 49.5458 363.549 50.7538 365.249 52.8893C368.671 57.1896 367.321 63.4014 366.262 68.7984C364.727 76.6269 364.183 84.618 364.642 92.5829C364.672 93.8569 364.859 95.1222 365.2 96.3498C365.829 98.3418 367.17 100.015 368.182 101.842C370.244 105.597 370.913 109.962 370.071 114.164C369.324 117.821 367.468 121.715 369.101 125.07C369.821 126.365 370.822 127.481 372.032 128.335C377.369 132.526 384.145 135.124 388.113 140.634C388.797 136.133 387.493 131.604 386.53 127.154C385.568 122.705 384.982 117.861 386.96 113.763C387.828 111.965 389.154 110.401 389.864 108.534C391.502 104.224 389.549 99.4957 388.364 95.0389C387.516 91.539 386.904 87.986 386.532 84.4038L385.309 74.7349C384.298 66.7417 383.24 58.5858 379.737 51.3333C373.136 37.666 358.197 32.59 344.822 40.1632C341.317 42.1899 338.419 45.1218 336.43 48.6531Z" fill="#FF6584"/>
<path d="M320.054 150.667C320.054 150.667 316.441 161.53 320.657 161.53C324.872 161.53 332.702 154.891 333.304 149.46C333.906 144.029 344.747 123.51 336.918 125.321C329.088 127.131 325.475 142.218 325.475 142.218L320.054 150.667Z" fill="#FBBEBE"/>
<path d="M380.884 104.802L361.009 169.375L388.111 175.41L407.986 112.648L380.884 104.802Z" fill="#6C63FF"/>
<path d="M406.179 151.271L409.942 157.571C409.942 157.571 411.6 169.375 403.168 169.375C394.736 169.375 382.691 157.909 382.691 157.909C382.691 157.909 376.668 155.495 373.054 156.098C369.441 156.702 349.566 156.098 357.998 145.839C366.429 135.58 380.884 145.839 380.884 145.839L395.941 153.081L403.77 148.857L406.179 151.271Z" fill="#FBBEBE"/>
<path d="M401.06 143.124L395.037 152.779C395.037 152.779 408.889 154.59 410.094 157.607C411.298 160.625 404.673 141.917 404.673 141.917L401.06 143.124Z" fill="#3F3D56"/>
</g>
<defs>
<clipPath id="clip0">
<rect width="497" height="399" fill="white"/>
</clipPath>
</defs>
</svg>
