<svg width="654" height="419" viewBox="0 0 654 419" fill="none" xmlns="http://www.w3.org/2000/svg">
<g clip-path="url(#clip0)">
<path opacity="0.1" d="M499.712 419C562.54 419 613.473 407.603 613.473 393.545C613.473 379.487 562.54 368.09 499.712 368.09C436.884 368.09 385.951 379.487 385.951 393.545C385.951 407.603 436.884 419 499.712 419Z" fill="#6C63FF"/>
<g opacity="0.1">
<path opacity="0.1" d="M370.327 15.859C370.327 108.266 428.351 183.039 500.085 183.039L370.327 15.859Z" fill="#6C63FF"/>
</g>
<path d="M561.042 18.4637V325.35C561.042 334.478 552.226 341.925 541.347 341.925H124.568C113.69 341.925 104.879 334.501 104.879 325.35V18.4637C104.879 9.31769 113.69 0 124.568 0L541.294 1.01228C552.154 1.01228 561.042 9.31769 561.042 18.4637Z" fill="white"/>
<path d="M541.293 1.51228H541.294C551.929 1.51228 560.542 9.64235 560.542 18.4637V325.35C560.542 334.125 552.033 341.425 541.347 341.425H124.568C113.882 341.425 105.379 334.148 105.379 325.35V18.4637C105.379 9.60578 113.954 0.5 124.568 0.5L541.293 1.51228Z" stroke="black" stroke-opacity="0.08"/>
<path d="M561.042 18.5584V32.7658H104.879V18.5584C104.879 13.6375 106.835 8.91795 110.317 5.43774C113.8 1.95753 118.523 0.00158479 123.448 1.51039e-05H542.437C544.879 -0.0030965 547.297 0.474593 549.554 1.40578C551.811 2.33696 553.861 3.70337 555.589 5.42691C557.317 7.15045 558.688 9.19732 559.624 11.4505C560.559 13.7037 561.041 16.119 561.042 18.5584Z" fill="#3F3D56"/>
<path opacity="0.8" d="M126.974 22.939C130.599 22.939 133.539 20.0024 133.539 16.3799C133.539 12.7574 130.599 9.8208 126.974 9.8208C123.348 9.8208 120.409 12.7574 120.409 16.3799C120.409 20.0024 123.348 22.939 126.974 22.939Z" fill="#FA5959"/>
<path opacity="0.8" d="M146.07 22.939C149.696 22.939 152.635 20.0024 152.635 16.3799C152.635 12.7574 149.696 9.8208 146.07 9.8208C142.444 9.8208 139.505 12.7574 139.505 16.3799C139.505 20.0024 142.444 22.939 146.07 22.939Z" fill="#FED253"/>
<path opacity="0.8" d="M165.166 22.939C168.792 22.939 171.731 20.0024 171.731 16.3799C171.731 12.7574 168.792 9.8208 165.166 9.8208C161.541 9.8208 158.601 12.7574 158.601 16.3799C158.601 20.0024 161.541 22.939 165.166 22.939Z" fill="#8CCF4D"/>
<path opacity="0.2" d="M307.178 101.05H275.852C273.048 101.05 270.774 103.322 270.774 106.124V115.643C270.774 118.444 273.048 120.716 275.852 120.716H307.178C309.982 120.716 312.256 118.444 312.256 115.643V106.124C312.256 103.322 309.982 101.05 307.178 101.05Z" fill="#6C63FF"/>
<path opacity="0.2" d="M391.219 101.05H359.893C357.088 101.05 354.815 103.322 354.815 106.124V115.643C354.815 118.444 357.088 120.716 359.893 120.716H391.219C394.023 120.716 396.296 118.444 396.296 115.643V106.124C396.296 103.322 394.023 101.05 391.219 101.05Z" fill="#6C63FF"/>
<path d="M291.399 120.272L332.922 174.443L375.695 120.017" stroke="#3F3D56" stroke-miterlimit="10"/>
<path opacity="0.1" d="M359.549 172.709H306.289C303.485 172.709 301.211 174.98 301.211 177.782V197.702C301.211 200.504 303.485 202.775 306.289 202.775H359.549C362.354 202.775 364.627 200.504 364.627 197.702V177.782C364.627 174.98 362.354 172.709 359.549 172.709Z" fill="black"/>
<path d="M358.263 173.324H307.581C304.776 173.324 302.503 175.596 302.503 178.398V197.098C302.503 199.9 304.776 202.171 307.581 202.171H358.263C361.068 202.171 363.341 199.9 363.341 197.098V178.398C363.341 175.596 361.068 173.324 358.263 173.324Z" fill="#6C63FF"/>
<path d="M291.684 101.05L291.145 81.8998" stroke="#3F3D56" stroke-miterlimit="10"/>
<path d="M400.07 82.8352L375.695 101.05L350.057 82.8352" stroke="#3F3D56" stroke-miterlimit="10"/>
<path opacity="0.2" d="M306.947 63.1638H275.621C272.817 63.1638 270.543 65.4352 270.543 68.237V77.756C270.543 80.5579 272.817 82.8292 275.621 82.8292H306.947C309.751 82.8292 312.025 80.5579 312.025 77.756V68.237C312.025 65.4352 309.751 63.1638 306.947 63.1638Z" fill="#6C63FF"/>
<path opacity="0.2" d="M415.73 63.1638H384.405C381.6 63.1638 379.327 65.4352 379.327 68.237V77.756C379.327 80.5579 381.6 82.8292 384.405 82.8292H415.73C418.535 82.8292 420.808 80.5579 420.808 77.756V68.237C420.808 65.4352 418.535 63.1638 415.73 63.1638Z" fill="#6C63FF"/>
<path opacity="0.2" d="M365.723 63.1638H334.397C331.593 63.1638 329.32 65.4352 329.32 68.237V77.756C329.32 80.5579 331.593 82.8292 334.397 82.8292H365.723C368.527 82.8292 370.801 80.5579 370.801 77.756V68.237C370.801 65.4352 368.527 63.1638 365.723 63.1638Z" fill="#6C63FF"/>
<path d="M332.922 202.165L332.762 254.555" stroke="#3F3D56" stroke-miterlimit="10"/>
<path d="M273.986 291.909L332.644 273.777L391.538 291.779" stroke="#3F3D56" stroke-miterlimit="10"/>
<path opacity="0.2" d="M348.428 254.555H317.102C314.298 254.555 312.024 256.827 312.024 259.628V269.147C312.024 271.949 314.298 274.221 317.102 274.221H348.428C351.232 274.221 353.506 271.949 353.506 269.147V259.628C353.506 256.827 351.232 254.555 348.428 254.555Z" fill="#6C63FF"/>
<path opacity="0.2" d="M512.747 172.898V141.6C512.747 138.799 510.474 136.527 507.669 136.527H498.142C495.337 136.527 493.064 138.799 493.064 141.6V172.898C493.064 175.7 495.337 177.971 498.142 177.971H507.669C510.474 177.971 512.747 175.7 512.747 172.898Z" fill="#6C63FF"/>
<path opacity="0.2" d="M493.064 206.499V237.796C493.064 240.598 495.337 242.87 498.142 242.87H507.669C510.474 242.87 512.747 240.598 512.747 237.796V206.499C512.747 203.697 510.474 201.425 507.669 201.425H498.142C495.337 201.425 493.064 203.697 493.064 206.499Z" fill="#6C63FF"/>
<path opacity="0.2" d="M407.204 291.642H375.879C373.074 291.642 370.801 293.914 370.801 296.716V306.235C370.801 309.037 373.074 311.308 375.879 311.308H407.204C410.009 311.308 412.282 309.037 412.282 306.235V296.716C412.282 293.914 410.009 291.642 407.204 291.642Z" fill="#6C63FF"/>
<path opacity="0.2" d="M258.326 311.314H289.651C292.456 311.314 294.729 309.042 294.729 306.241V296.722C294.729 293.92 292.456 291.648 289.651 291.648H258.326C255.521 291.648 253.248 293.92 253.248 296.722V306.241C253.248 309.042 255.521 311.314 258.326 311.314Z" fill="#6C63FF"/>
<path opacity="0.2" d="M318.133 311.314H349.459C352.263 311.314 354.537 309.042 354.537 306.241V296.722C354.537 293.92 352.263 291.648 349.459 291.648H318.133C315.329 291.648 313.055 293.92 313.055 296.722V306.241C313.055 309.042 315.329 311.314 318.133 311.314Z" fill="#6C63FF"/>
<path d="M474.596 189.698L493.058 221.955" stroke="#3F3D56" stroke-miterlimit="10"/>
<path d="M435.556 189.302H454.937" stroke="#3F3D56" stroke-miterlimit="10"/>
<path d="M363.341 187.745L416.24 189.302" stroke="#3F3D56" stroke-miterlimit="10"/>
<path d="M493.058 157.246L474.685 189.556" stroke="#3F3D56" stroke-miterlimit="10"/>
<path opacity="0.2" d="M435.923 204.829V173.532C435.923 170.73 433.65 168.458 430.845 168.458H421.318C418.513 168.458 416.24 170.73 416.24 173.532V204.829C416.24 207.631 418.513 209.903 421.318 209.903H430.845C433.65 209.903 435.923 207.631 435.923 204.829Z" fill="#6C63FF"/>
<path opacity="0.2" d="M474.596 205.344V174.046C474.596 171.245 472.322 168.973 469.518 168.973H459.99C457.186 168.973 454.913 171.245 454.913 174.046V205.344C454.913 208.146 457.186 210.417 459.99 210.417H469.518C472.322 210.417 474.596 208.146 474.596 205.344Z" fill="#6C63FF"/>
<path opacity="0.2" d="M172.78 172.892V141.595C172.78 138.793 170.507 136.521 167.702 136.521H158.175C155.371 136.521 153.097 138.793 153.097 141.595V172.892C153.097 175.694 155.371 177.965 158.175 177.965H167.702C170.507 177.965 172.78 175.694 172.78 172.892Z" fill="#6C63FF"/>
<path opacity="0.2" d="M153.097 206.499V237.796C153.097 240.598 155.37 242.87 158.175 242.87H167.702C170.507 242.87 172.78 240.598 172.78 237.796V206.499C172.78 203.697 170.507 201.426 167.702 201.426H158.175C155.37 201.426 153.097 203.697 153.097 206.499Z" fill="#6C63FF"/>
<path d="M191.249 189.698L172.78 221.955" stroke="#3F3D56" stroke-miterlimit="10"/>
<path d="M230.283 189.302H210.908" stroke="#3F3D56" stroke-miterlimit="10"/>
<path d="M302.503 187.745L249.604 189.302" stroke="#3F3D56" stroke-miterlimit="10"/>
<path d="M172.78 157.246L191.154 189.556" stroke="#3F3D56" stroke-miterlimit="10"/>
<path opacity="0.2" d="M249.604 204.835V173.538C249.604 170.736 247.331 168.464 244.526 168.464H234.999C232.194 168.464 229.921 170.736 229.921 173.538V204.835C229.921 207.637 232.194 209.909 234.999 209.909H244.526C247.331 209.909 249.604 207.637 249.604 204.835Z" fill="#6C63FF"/>
<path opacity="0.2" d="M210.931 205.344V174.047C210.931 171.245 208.658 168.973 205.854 168.973H196.326C193.522 168.973 191.248 171.245 191.248 174.047V205.344C191.248 208.146 193.522 210.418 196.326 210.418H205.854C208.658 210.418 210.931 208.146 210.931 205.344Z" fill="#6C63FF"/>
<path d="M64.0022 297.112C64.0022 326.853 82.6779 350.923 105.756 350.923L64.0022 297.112Z" fill="#46455B"/>
<path d="M105.756 350.917C105.756 320.839 126.6 296.503 152.357 296.503L105.756 350.917Z" fill="#6C63FF"/>
<path d="M79.1347 299.806C79.1347 328.055 91.0441 350.917 105.756 350.917L79.1347 299.806Z" fill="#6C63FF"/>
<path d="M105.756 350.917C105.756 312.486 129.847 281.389 159.615 281.389L105.756 350.917Z" fill="#46455B"/>
<path opacity="0.1" d="M103.943 361.194C109.676 361.194 114.324 360.409 114.324 359.441C114.324 358.474 109.676 357.689 103.943 357.689C98.2099 357.689 93.5623 358.474 93.5623 359.441C93.5623 360.409 98.2099 361.194 103.943 361.194Z" fill="#6C63FF"/>
<path d="M96.9751 351.296C96.9751 351.296 102.9 351.112 104.678 349.845C106.455 348.579 113.784 347.057 114.229 349.094C114.673 351.13 123.116 359.222 116.439 359.276C109.761 359.329 100.903 358.234 99.1259 357.15C97.3484 356.067 96.9751 351.296 96.9751 351.296Z" fill="#A8A8A8"/>
<path opacity="0.2" d="M116.563 358.565C109.88 358.619 101.034 357.529 99.2503 356.44C97.8935 355.617 97.3543 352.657 97.1706 351.29H96.9751C96.9751 351.29 97.3484 356.061 99.1318 357.144C100.915 358.228 109.761 359.323 116.445 359.27C118.376 359.27 119.04 358.565 119.004 357.553C118.738 358.175 118.003 358.553 116.563 358.565Z" fill="black"/>
<path d="M566.564 384.068L550.17 360.318C550.17 360.318 549.861 354.439 548.789 353.06C547.717 351.681 548.558 348.632 548.558 348.632C548.558 348.632 549.707 346.951 548.712 346.803C547.717 346.655 548.558 342.908 548.558 342.908L548.481 336.946C548.481 336.946 549.399 331.222 548.635 329.843C548.412 329.471 548.3 329.042 548.314 328.609C548.328 328.175 548.466 327.755 548.712 327.398C548.712 327.398 549.63 324.112 548.712 323.254C547.794 322.396 548.019 317.299 548.25 313.255C548.481 309.212 546.644 306.915 546.644 306.306C546.644 305.696 540.589 299.735 540.589 299.202C540.589 298.669 536.761 296.455 534.462 295.84C532.163 295.224 531.014 294.774 531.091 294.466C531.168 294.158 527.488 292.939 527.488 292.939C527.488 292.939 524.271 292.714 523.045 291.11C521.818 289.505 518.068 289.038 517.967 289.026C517.967 288.919 517.914 288.813 517.896 288.706L517.825 288.363C518.115 287.877 518.382 287.38 518.625 286.865L518.838 286.398C520.186 286.402 521.503 285.988 522.606 285.214C523.147 284.761 523.589 284.202 523.905 283.572C524.221 282.942 524.404 282.253 524.443 281.549C524.507 280.139 524.198 278.736 523.548 277.482C522.873 276.103 521.889 274.682 522.227 273.191C522.375 272.545 522.76 272.007 522.962 271.35C523.258 270.118 523.06 268.82 522.411 267.733C521.818 266.626 521.024 265.649 520.378 264.571C519.554 263.203 519.004 261.687 518.761 260.108C518.711 259.268 518.51 258.444 518.168 257.675C517.822 257.132 517.363 256.67 516.823 256.319C514.426 254.608 511.532 253.732 508.588 253.827C506.502 253.898 504.44 254.461 502.354 254.206C501.116 253.988 499.897 253.669 498.711 253.253C496.145 252.495 493.177 252.181 490.943 253.65C488.709 255.118 487.814 258.006 486.298 260.268C484.953 262.269 482.991 263.944 481.972 266.063C481.972 266.022 481.972 265.98 482.002 265.939C481.747 266.43 481.548 266.948 481.409 267.484C481.018 269.147 481.344 270.888 481.747 272.545C481.96 273.404 482.245 274.321 482.985 274.807C483.726 275.292 484.763 275.18 485.664 275.334C485.628 275.482 485.592 275.624 485.563 275.772C484.644 280.075 485.384 284.565 487.636 288.346C489.888 292.127 493.486 294.92 497.709 296.165C497.709 296.319 497.709 296.479 497.709 296.627C497.709 297.083 497.674 297.521 497.626 297.941C497.626 297.941 489.924 296.361 487.856 297.426C485.788 298.492 481.723 299.338 481.113 299.948C480.503 300.558 478.968 300.102 477.588 303.689C476.207 307.277 476.059 310.947 474.293 312.622C472.528 314.297 471.615 315.452 471.538 316.671C471.461 317.891 471.763 318.198 471.076 318.583C470.389 318.968 469.393 320.566 469.696 321.176C469.696 321.176 470.081 322.703 468.854 323.467C468.492 323.723 468.202 324.069 468.014 324.47C467.826 324.872 467.746 325.316 467.782 325.758C467.782 325.758 467.32 327.439 466.247 327.818C465.175 328.197 464.47 330.725 464.47 330.725L460.998 334.715L454.107 327.102C453.591 326.533 452.87 326.192 452.103 326.153C451.335 326.114 450.584 326.381 450.013 326.895L446.689 329.973C445.384 330.288 444.204 330.989 443.305 331.986C442.562 332.741 441.96 333.623 441.528 334.59L439.679 336.26C439.39 336.516 439.156 336.829 438.992 337.18C438.828 337.53 438.737 337.91 438.725 338.296C438.485 338.81 438.403 339.383 438.488 339.943C438.574 340.504 438.823 341.026 439.205 341.445L443.614 346.323V346.365C442.048 346.495 440.559 347.1 439.348 348.099C432.759 353.9 432.682 359.246 433.677 361.715C434.673 364.183 443.021 373.554 443.021 373.554C443.021 373.554 447.874 379.859 454.871 383.209L454.824 383.262C454.682 383.41 454.545 383.57 454.409 383.742L454.296 383.89L454.19 384.038L454.065 384.221L453.971 384.369L453.834 384.588C453.81 384.64 453.782 384.689 453.751 384.736C453.698 384.831 453.645 384.932 453.597 385.032L453.544 385.133C453.479 385.263 453.42 385.405 453.354 385.547C453.289 385.69 453.313 385.654 453.295 385.701C453.277 385.749 453.212 385.903 453.177 386.009L453.106 386.205C453.07 386.299 453.04 386.4 453.005 386.501C452.969 386.601 452.963 386.643 452.94 386.72L452.851 387.051L452.797 387.258C452.75 387.436 452.714 387.619 452.673 387.809L452.637 388.028C452.637 388.152 452.59 388.282 452.572 388.419C452.554 388.555 452.543 388.602 452.531 388.697C452.519 388.792 452.531 388.945 452.483 389.076C452.436 389.206 452.483 389.271 452.454 389.366C452.424 389.46 452.454 389.656 452.454 389.804C452.454 389.952 452.454 389.975 452.454 390.07C452.454 390.307 452.454 390.556 452.424 390.81C452.27 399.743 452.791 401.039 452.791 401.039C452.791 401.039 453.876 403.887 456.862 404.088C457.3 404.119 457.74 404.095 458.171 404.017C462.153 403.33 471.503 401.726 474.797 402.342C476.776 402.709 480.444 402.164 483.051 401.673L483.744 401.537L484.218 403.058L485.735 402.644L487.02 403.384L487.832 403.851C489.343 408.972 495.481 407.226 495.481 407.226L496.939 408.066L511.752 408.445C513.412 409.451 515.166 410.294 516.989 410.961C517.232 411.032 517.48 411.085 517.73 411.121C519.1 411.229 520.475 411.255 521.848 411.198C522.985 411.198 523.862 411.121 523.862 411.121C523.862 411.121 523.708 407.113 523.495 402.62C529.142 402.383 534.16 402.028 537.188 401.501C545.044 400.116 548.333 392.918 549.547 389.082C549.91 390.641 550.167 392.223 550.318 393.817C550.64 395.223 551.05 396.607 551.544 397.961C551.977 399.046 552.545 400.072 553.233 401.016C559.057 399.033 555.532 396.055 554.305 394.759C553.079 393.462 555.147 392.391 555.147 392.391C555.147 392.391 556.758 391.319 556.604 390.325C556.45 389.33 556.373 388.265 561.581 388.342C566.789 388.419 566.564 384.068 566.564 384.068ZM485.664 335.307C485.729 335.745 486.458 340.445 487.115 341.682C487.297 342.508 487.355 343.355 487.287 344.198C484.2 343.955 480.983 343.819 480.983 343.819C481.077 343.932 481.134 344.07 481.149 344.216L480.663 344.103C480.438 344.05 480.201 343.997 479.958 343.932L485.646 335.295L485.664 335.307ZM474.406 353.214L479.739 354.06L480.189 354.131C480.037 354.964 479.944 355.807 479.91 356.653C479.91 356.73 480.029 356.825 480.201 356.937C480.129 357.354 480.095 357.776 480.1 358.198C480.183 358.624 482.683 359.536 485.551 360.294C485.51 360.448 485.468 360.59 485.433 360.732C482.903 359.4 478.915 358.778 478.453 357.772C477.991 356.766 464.464 352.071 464.464 352.071C464.464 352.071 463.966 351.805 463.113 351.396L466.668 352.071L467.651 351.971C469.87 352.529 472.122 352.944 474.394 353.214H474.406Z" fill="url(#paint0_linear)"/>
<path d="M549.127 387.389C549.127 387.389 547 400.205 536.216 402.105C525.433 404.005 489.444 403.621 489.444 403.621C489.444 403.621 468.866 400.661 461.424 383.292C453.983 365.924 449.201 359.021 455.576 358.708C461.952 358.394 496.353 370.316 498.326 370.47C500.299 370.624 551.023 344.068 549.127 387.389Z" fill="#65617D"/>
<path opacity="0.05" d="M549.127 387.389C549.127 387.389 547 400.205 536.216 402.105C525.433 404.005 489.444 403.621 489.444 403.621C489.444 403.621 468.866 400.661 461.424 383.292C453.983 365.924 449.201 359.021 455.576 358.708C461.952 358.394 496.353 370.316 498.326 370.47C500.299 370.624 551.023 344.068 549.127 387.389Z" fill="black"/>
<path d="M452.614 401.649C452.614 401.649 453.686 404.473 456.643 404.68C457.077 404.711 457.513 404.687 457.94 404.609C461.892 403.922 471.153 402.33 474.418 402.94C476.385 403.301 480.017 402.762 482.606 402.277C484.325 401.951 485.569 401.649 485.569 401.649C485.569 401.649 482.535 391.586 482.15 391.254C481.765 390.923 468.487 382.967 468.487 382.967L457.946 382.232C456.536 382.45 455.264 383.2 454.391 384.328C453.283 385.672 452.329 387.88 452.264 391.491C452.081 400.359 452.614 401.649 452.614 401.649Z" fill="#3F3D56"/>
<path opacity="0.05" d="M452.614 401.649C452.614 401.649 453.686 404.473 456.643 404.68C455.612 403.355 454.658 401.971 453.787 400.536L453.84 393.178C453.627 391.16 453.892 389.121 454.612 387.224C455.333 385.327 456.489 383.625 457.988 382.256H457.946C457.946 382.256 452.406 382.635 452.252 391.515C452.098 400.394 452.614 401.649 452.614 401.649Z" fill="black"/>
<path opacity="0.1" d="M498.237 385.565L508.031 377.905L523.436 362.733C523.436 362.733 521.771 362.65 519.259 362.543C518.666 362.94 516.889 364.189 516.818 365.711C516.746 367.569 512.67 365.841 510.525 366.894C508.38 367.948 498.023 381.268 496.198 381.173C494.373 381.078 492.934 380.249 492.175 381.54L492.122 381.623L498.237 385.565Z" fill="black"/>
<path opacity="0.1" d="M454.391 384.322C454.741 384.488 455.096 384.654 455.452 384.808C462.894 387.992 472.084 394.67 472.765 395.883C473.186 396.623 478.512 399.856 482.624 402.277C484.342 401.951 485.587 401.649 485.587 401.649C485.587 401.649 482.553 391.586 482.168 391.254C481.783 390.923 468.505 382.967 468.505 382.967L457.946 382.232C456.537 382.448 455.265 383.196 454.391 384.322Z" fill="black"/>
<path d="M433.707 362.579C434.697 365.006 442.974 374.336 442.974 374.336C442.974 374.336 448.212 381.167 455.653 384.352C463.095 387.537 472.279 394.214 472.966 395.428C473.405 396.209 479.336 399.779 483.513 402.229L484.449 402.774L486.523 403.958L487.619 404.591C487.619 404.591 490.161 402.549 492.697 400.495C495.233 398.441 497.68 396.434 497.721 396.351C497.792 396.126 498.782 393.545 498.551 393.391C498.432 393.314 497.911 392.261 496.957 391.023C495.936 389.669 494.611 388.574 493.088 387.827C489.592 386.234 488.075 382.605 488.075 382.605C488.075 382.605 487.743 382.369 487.24 382.049C486.205 381.334 485.045 380.818 483.821 380.528C482.15 380.32 479.04 376.905 479.04 376.905C479.04 376.905 476.912 375.537 476.077 373.797C475.242 372.056 463.504 364.053 462.414 363.301L490.961 381.623L497.792 386.009L507.592 378.349L522.997 363.177C522.997 363.177 520.924 363.076 517.914 362.946C510.418 362.62 497.117 362.111 495.434 362.49C494.076 362.808 492.675 362.9 491.287 362.762C491.287 362.762 487.495 362.934 484.988 361.614C482.482 360.294 478.53 359.672 478.074 358.696C477.617 357.719 464.18 353.007 464.18 353.007C464.18 353.007 445.883 343.298 439.348 349.064C432.812 354.83 432.724 360.152 433.707 362.579Z" fill="#65617D"/>
<path d="M492.709 306.898L495.079 314.706L498.118 332.311L509.275 333.069L512.51 327.741L515.733 322.413C515.733 322.413 517.742 315.31 519.188 308.419C520.461 302.334 521.297 296.426 519.91 295.786C518.678 295.194 517.866 293.164 517.339 290.962C517.274 290.689 517.209 290.411 517.155 290.139C516.785 288.271 516.538 286.38 516.415 284.48C516.415 284.48 493.029 283.266 496.27 292.903C496.854 294.547 497.153 296.279 497.152 298.024C497.147 298.459 497.119 298.894 497.07 299.326C496.903 300.82 496.43 302.264 495.68 303.567C494.929 304.869 493.918 306.003 492.709 306.898Z" fill="#EE8E9E"/>
<path d="M487.844 305.607L488.686 318.879L490.582 330.186L492.709 335.419L494.605 364.059C494.605 364.059 512.913 366.172 517.369 364.023C517.688 363.887 517.966 363.668 518.174 363.39C523.548 355.28 521.789 331.778 521.789 331.778L523.839 316.606L522.47 308.733L519.17 308.378L516.628 308.111C516.628 308.111 516.036 308.816 515.224 309.887C512.972 312.847 508.831 318.696 509.109 321.135C509.488 324.473 508.653 327.883 507.332 328.416C506.01 328.949 504.962 329.86 504.754 328.949C504.547 328.037 504.298 327.812 504.523 326.522C504.748 325.231 503.534 321.283 503.534 321.283C503.534 321.283 501.484 316.659 501.638 314.682C501.792 312.705 501.413 310.438 500.802 309.905C500.192 309.372 499.362 308.845 500.044 306.418C500.725 303.991 497.052 299.285 497.052 299.285L487.844 305.607Z" fill="#E3E8F4"/>
<path opacity="0.1" d="M512.03 338.764L512.794 361.448L517.179 363.875C517.497 363.739 517.775 363.523 517.985 363.248C523.359 355.132 521.599 331.63 521.599 331.63L523.649 316.458L522.281 308.585L518.98 308.23C520.254 302.144 521.09 296.236 519.703 295.597C518.471 295.005 517.659 292.974 517.132 290.772L514.762 306.821C514.762 306.821 514.957 308.271 515.028 309.781C515.125 310.726 515.06 311.68 514.839 312.604C514.305 313.972 514.685 316.399 514.685 316.399C513.316 318.808 512.629 323.272 512.315 327.581C511.864 333.3 512.03 338.764 512.03 338.764Z" fill="black"/>
<path d="M517.197 290.411C517.197 290.411 521.024 290.885 522.239 292.483C523.454 294.081 526.641 294.3 526.641 294.3C526.641 294.3 530.285 295.484 530.196 295.816C530.107 296.147 531.257 296.58 533.532 297.183C535.807 297.787 539.611 299.989 539.611 300.522C539.611 301.055 545.637 306.969 545.637 307.578C545.637 308.188 547.462 310.461 547.231 314.481C547 318.5 546.775 323.585 547.687 324.42C548.6 325.255 547.687 328.517 547.687 328.517C547.442 328.871 547.304 329.288 547.29 329.719C547.277 330.149 547.388 330.575 547.61 330.944C548.368 332.311 547.462 338 547.462 338L547.533 343.92C547.533 343.92 546.698 347.637 547.687 347.791C548.677 347.945 547.533 349.615 547.533 349.615C547.533 349.615 546.698 352.646 547.764 354.013C548.831 355.38 549.133 361.217 549.133 361.217L565.379 384.813C565.379 384.813 565.61 389.135 560.444 389.064C555.277 388.993 555.354 390.047 555.508 391.035C555.662 392.024 554.068 393.083 554.068 393.083C554.068 393.083 552.018 394.143 553.233 395.451C554.448 396.76 557.937 399.702 552.166 401.673C551.486 400.733 550.925 399.713 550.496 398.636C550.006 397.297 549.6 395.929 549.281 394.54C549.281 394.54 548.748 388.774 547.687 388.028C546.626 387.282 546.775 383.63 546.775 383.63C546.775 383.63 548.297 380.67 546.182 379.456C544.067 378.243 513.227 361.17 513.227 361.17L512.457 338.456C512.457 338.456 511.923 321.691 515.111 316.073C515.111 316.073 514.732 313.646 515.265 312.279C515.798 310.911 515.188 306.513 515.188 306.513L517.197 290.411Z" fill="#3F3D56"/>
<path opacity="0.1" d="M497.306 299.516C497.306 299.516 489.669 297.941 487.619 299.007C485.569 300.072 481.546 300.901 480.935 301.511C480.325 302.121 478.814 301.659 477.446 305.228C476.077 308.798 475.929 312.433 474.181 314.108C472.433 315.783 471.521 316.914 471.444 318.128C471.367 319.341 471.675 319.643 470.993 320.028C470.312 320.413 469.322 321.999 469.625 322.603C469.927 323.207 485.415 336.562 485.415 336.562C485.415 336.562 486.179 341.647 486.861 342.937C487.542 344.228 486.102 361.975 484.585 363.195C483.069 364.414 494.836 364.296 494.836 364.296C494.836 364.296 495.363 352.646 495.819 352.042C496.275 351.438 495.517 339.018 495.517 339.018C495.517 339.018 495.44 328.398 496.429 325.592C497.419 322.786 497.306 313.457 497.306 313.457C497.306 313.457 498.177 307.857 499.238 306.548C500.299 305.24 497.306 299.516 497.306 299.516Z" fill="black"/>
<path d="M497.052 299.285C497.052 299.285 489.42 297.716 487.37 298.776C485.32 299.835 481.315 300.664 480.71 301.256C480.106 301.848 478.583 301.41 477.215 304.974C475.846 308.538 475.698 312.184 473.95 313.853C472.202 315.523 471.296 316.659 471.219 317.873C471.142 319.087 471.444 319.388 470.762 319.767C470.081 320.146 469.091 321.739 469.394 322.348C469.696 322.958 485.202 336.331 485.202 336.331C485.202 336.331 485.96 341.41 486.647 342.7C487.335 343.991 485.883 361.744 484.366 362.958C482.849 364.171 494.617 364.059 494.617 364.059C494.617 364.059 495.15 352.415 495.606 351.805C496.062 351.195 495.298 338.782 495.298 338.782C495.298 338.782 495.227 328.161 496.21 325.356C497.194 322.55 497.052 313.19 497.052 313.19C497.052 313.19 497.923 307.59 498.983 306.288C500.044 304.986 497.052 299.285 497.052 299.285Z" fill="#3F3D56"/>
<path opacity="0.1" d="M496.275 292.862C496.86 294.506 497.159 296.238 497.158 297.983C500.891 299.093 504.889 298.919 508.512 297.489C512.134 296.06 515.172 293.457 517.138 290.097C516.768 288.229 516.52 286.339 516.397 284.438C516.397 284.438 493.011 283.225 496.275 292.862Z" fill="black"/>
<path d="M484.734 280.875C484.734 285.325 486.444 289.606 489.511 292.834C492.578 296.062 496.768 297.991 501.216 298.223C505.665 298.455 510.033 296.973 513.42 294.082C516.807 291.191 518.954 287.111 519.419 282.685C519.883 278.259 518.63 273.823 515.918 270.292C513.205 266.762 509.24 264.406 504.84 263.711C500.44 263.016 495.941 264.034 492.271 266.555C488.6 269.077 486.038 272.91 485.113 277.264C484.86 278.451 484.733 279.661 484.734 280.875Z" fill="#EE8E9E"/>
<path d="M473.571 321.081L469.423 322.372C469.423 322.372 469.808 323.887 468.588 324.645C468.228 324.9 467.941 325.245 467.755 325.644C467.569 326.044 467.491 326.485 467.527 326.924C467.527 326.924 467.071 328.594 466.01 328.972C464.95 329.351 464.262 331.855 464.262 331.855L460.767 335.875C460.767 335.875 459.481 336.934 459.706 337.467C459.931 338 458.337 338.148 458.337 338.148L459.131 351.657L466.348 353.018L470.827 352.563L474.471 351.201L477.659 349.301L479.105 345.583L485.48 335.875L473.571 321.081Z" fill="#3F3D56"/>
<path d="M459.374 339.214C459.374 339.214 450.108 325.859 443.199 333.069C436.29 340.279 446.007 351.959 448.289 351.58C450.57 351.201 461.424 350.591 461.424 350.591L459.374 339.214Z" fill="#EE8E9E"/>
<path d="M481.504 333.617L439.945 312.424C439.496 312.195 438.946 312.373 438.717 312.821L422.432 344.7C422.203 345.148 422.381 345.697 422.83 345.926L464.389 367.119C464.838 367.348 465.388 367.17 465.617 366.722L481.902 334.843C482.131 334.395 481.953 333.846 481.504 333.617Z" fill="#3F3D56"/>
<path d="M477.357 335.31L441.059 316.8L427.098 344.129L463.396 362.639L477.357 335.31Z" fill="#6C63FF"/>
<path d="M432.706 330.399C433.075 330.399 433.375 330.1 433.375 329.73C433.375 329.361 433.075 329.061 432.706 329.061C432.336 329.061 432.036 329.361 432.036 329.73C432.036 330.1 432.336 330.399 432.706 330.399Z" fill="#E6E8EC"/>
<path d="M471.995 350.941C472.603 350.941 473.097 350.448 473.097 349.839C473.097 349.231 472.603 348.738 471.995 348.738C471.386 348.738 470.893 349.231 470.893 349.839C470.893 350.448 471.386 350.941 471.995 350.941Z" fill="#E6E8EC"/>
<path d="M453.372 342.02C453.301 352.036 474.027 354.155 474.027 354.155L479.324 354.996L481.694 355.375L482.683 345.583C482.683 345.583 481.599 345.423 480.242 345.11C478.234 344.642 475.633 343.831 475.088 342.7C474.181 340.806 453.449 332.003 453.372 342.02Z" fill="#EE8E9E"/>
<path opacity="0.1" d="M485.113 277.263C485.594 277.302 486.046 277.512 486.387 277.855C486.979 278.477 486.979 279.578 487.767 279.957C488.051 280.084 488.368 280.121 488.674 280.063C490.694 279.779 491.861 277.5 493.799 276.873C494.931 276.582 496.129 276.687 497.194 277.169C497.628 277.3 498.017 277.548 498.32 277.885C498.971 278.726 498.515 279.963 498.817 280.975C499.232 282.384 500.915 282.946 502.372 283.13C503.83 283.313 505.471 283.414 506.449 284.515C506.772 284.929 507.004 285.407 507.128 285.917C507.253 286.428 507.268 286.959 507.172 287.475C507.086 287.831 507.086 288.202 507.172 288.558C507.574 289.701 509.542 289.529 510.057 288.629C510.436 287.978 510.324 287.445 511.207 287.256C511.844 287.202 512.484 287.312 513.067 287.576C514.612 288.105 516.239 288.354 517.872 288.31C518.916 286.092 519.479 283.679 519.524 281.229C519.568 278.779 519.093 276.347 518.131 274.093C517.168 271.84 515.739 269.815 513.937 268.152C512.136 266.489 510.003 265.226 507.678 264.445C505.353 263.664 502.889 263.383 500.448 263.621C498.007 263.859 495.644 264.61 493.514 265.825C491.384 267.04 489.535 268.692 488.089 270.671C486.643 272.651 485.633 274.913 485.125 277.311L485.113 277.263Z" fill="black"/>
<path d="M507.16 288.061C507.075 287.703 507.075 287.33 507.16 286.972C507.256 286.455 507.241 285.925 507.116 285.414C506.992 284.904 506.76 284.426 506.437 284.012C505.459 282.911 503.818 282.828 502.36 282.627C500.903 282.425 499.22 281.881 498.805 280.472C498.503 279.46 498.959 278.222 498.308 277.388C498.007 277.047 497.617 276.797 497.182 276.666C496.117 276.184 494.919 276.079 493.787 276.37C491.849 276.997 490.682 279.276 488.662 279.56C488.356 279.618 488.039 279.581 487.755 279.454C486.991 279.075 486.961 277.974 486.375 277.352C485.45 276.375 483.702 277.009 482.571 276.281C481.836 275.807 481.552 274.884 481.344 274.037C480.947 272.386 480.621 270.657 481.012 269.005C481.67 266.182 484.194 264.27 485.806 261.837C487.311 259.593 488.176 256.751 490.41 255.26C492.643 253.768 495.564 254.111 498.112 254.869C499.287 255.282 500.494 255.597 501.721 255.81C503.771 256.065 505.832 255.508 507.9 255.437C510.818 255.346 513.685 256.215 516.059 257.912C516.594 258.263 517.048 258.722 517.392 259.261C517.737 260.023 517.938 260.842 517.985 261.677C518.229 263.246 518.774 264.754 519.59 266.117C520.224 267.182 521.03 268.147 521.605 269.254C522.247 270.336 522.442 271.624 522.15 272.847C521.955 273.469 521.558 274.031 521.421 274.676C521.084 276.156 522.061 277.571 522.731 278.939C523.376 280.186 523.682 281.58 523.62 282.982C523.581 283.68 523.4 284.364 523.086 284.989C522.772 285.614 522.332 286.168 521.795 286.617C520.67 287.407 519.324 287.821 517.949 287.801C516.284 287.851 514.623 287.597 513.049 287.049C512.467 286.785 511.826 286.675 511.189 286.729C510.306 286.907 510.418 287.451 510.039 288.103C509.53 289.026 507.563 289.198 507.16 288.061Z" fill="#3F3D56"/>
<path opacity="0.1" d="M497.792 386.021L507.592 378.361L522.997 363.189C522.997 363.189 520.924 363.088 517.914 362.958C517.316 363.496 516.933 364.232 516.835 365.03C516.764 366.882 512.688 365.16 510.543 366.214C508.398 367.267 498.023 380.581 496.198 380.498C494.374 380.415 492.934 379.574 492.175 380.865L492.122 380.948C491.811 381.298 491.396 381.539 490.937 381.635L497.792 386.021Z" fill="black"/>
<path d="M478.05 385.488L482.974 401.187L483.744 403.65L486.114 403.011L491.281 401.59L514.293 395.274C517.186 395.149 520.017 394.395 522.588 393.066C526.942 390.633 531.92 389.549 536.892 389.952C539.931 390.236 543.314 388.928 546.123 383.742C546.123 383.742 552.498 364.929 536.4 359.542C520.301 354.155 519.537 362.407 519.537 362.407L519.318 362.543C518.725 362.94 516.948 364.189 516.877 365.71C516.806 367.569 512.729 365.841 510.584 366.894C508.44 367.948 498.023 381.267 496.198 381.173C494.373 381.078 492.934 380.249 492.175 381.54L492.122 381.623C491.559 382.398 489.864 382.576 488.751 382.611C488.158 382.611 487.696 382.611 487.696 382.611L487.554 382.653L486.369 383.002L478.05 385.488Z" fill="#65617D"/>
<path opacity="0.1" d="M479.324 354.996L481.694 355.374L482.683 345.583C482.683 345.583 481.599 345.423 480.242 345.11C480.598 346.471 479.786 351.752 479.324 354.996Z" fill="black"/>
<path opacity="0.1" d="M541.412 309.266C541.412 309.266 548.475 307.217 546.745 327.25C545.015 347.282 531.932 359.945 531.932 359.945C531.932 359.945 516.901 366.545 510.14 365.486C506.267 364.861 502.366 364.43 498.45 364.195C496.322 363.12 493.994 362.499 491.612 362.372C487.82 362.224 479.845 359.868 479.691 359.11C479.537 358.352 481.67 347.199 480.758 346.365C480.758 346.365 491.387 346.803 492.448 347.549C493.508 348.295 495.031 347.768 496.169 347.549C497.306 347.33 500.802 344.299 507.711 346.957C507.711 346.957 510.081 347.182 510.976 346.578C511.87 345.974 513.346 346.424 513.346 346.424C513.932 346.222 514.488 345.941 514.999 345.589C515.224 345.287 517.049 345.589 517.049 345.589C517.157 345.642 517.276 345.67 517.396 345.671C517.517 345.672 517.636 345.646 517.745 345.595C517.854 345.544 517.951 345.469 518.027 345.376C518.103 345.283 518.158 345.174 518.186 345.056C518.424 344.434 518.784 343.866 519.247 343.387C519.247 343.387 521.297 331.855 525.172 327.534C525.172 327.534 526.31 326.545 526.007 325.332C525.705 324.118 532.3 306.839 541.412 309.266Z" fill="black"/>
<path d="M541.229 307.726C541.229 307.726 548.291 305.678 546.561 325.711C544.831 345.743 531.749 358.406 531.749 358.406C531.749 358.406 516.711 365.006 509.956 363.946C503.202 362.887 498.237 362.656 498.237 362.656C496.11 361.582 493.784 360.961 491.405 360.833C487.607 360.685 479.638 358.329 479.484 357.571C479.33 356.813 481.457 345.66 480.544 344.826C480.544 344.826 491.174 345.264 492.24 346.01C493.307 346.755 494.824 346.223 495.961 346.01C497.099 345.796 500.595 342.754 507.503 345.418C507.503 345.418 509.873 345.643 510.768 345.039C511.663 344.435 513.138 344.885 513.138 344.885C513.723 344.684 514.277 344.403 514.785 344.05C515.01 343.748 516.835 344.05 516.835 344.05C516.944 344.103 517.062 344.131 517.183 344.132C517.303 344.133 517.423 344.107 517.532 344.056C517.641 344.005 517.737 343.93 517.814 343.837C517.89 343.744 517.944 343.634 517.973 343.517C518.215 342.896 518.578 342.329 519.039 341.848C519.039 341.848 521.089 330.316 524.964 325.995C524.964 325.995 526.108 325.006 525.8 323.793C525.492 322.579 532.116 305.299 541.229 307.726Z" fill="#3F3D56"/>
<path opacity="0.1" d="M486.387 382.996L496.412 395.12C496.453 395.084 496.477 395.06 496.477 395.049C496.554 394.824 497.538 392.243 497.312 392.089C497.087 391.935 495.339 388.14 491.844 386.548C490.07 385.68 488.582 384.325 487.554 382.641L486.387 382.996Z" fill="black"/>
<path opacity="0.1" d="M486.523 403.976L487.619 404.609C487.619 404.609 490.161 402.567 492.697 400.513C495.233 398.458 497.68 396.452 497.721 396.369C497.792 396.144 498.782 393.563 498.551 393.409C498.432 393.332 497.911 392.278 496.957 391.041C490.155 389.135 494.486 393.853 495.061 394.066C495.061 394.066 486.766 392.172 486.327 401.17C486.268 402.11 486.334 403.053 486.523 403.976Z" fill="black"/>
<path d="M494.907 407.812L496.352 408.646L511.005 409.025C512.65 410.022 514.388 410.857 516.195 411.517C516.435 411.593 516.681 411.648 516.93 411.683C518.288 411.789 519.651 411.815 521.012 411.76C522.138 411.76 523.003 411.683 523.003 411.683C523.003 411.683 522.31 393.214 521.818 391.272C521.569 390.342 520.337 390.55 519.128 391.011C518.218 391.38 517.34 391.824 516.504 392.337C516.504 392.337 510.276 392.929 509.287 393.48C508.297 394.03 505.495 393.172 503.747 393.48C501.999 393.788 498.888 391.426 498.888 391.426C490.38 388.62 495.167 393.853 495.772 394.078C495.772 394.078 487.477 392.183 487.044 401.182C486.612 410.18 494.907 407.812 494.907 407.812Z" fill="#3F3D56"/>
<path d="M516.095 400.661C516.255 404.485 519.235 409.232 521.013 411.742C522.138 411.742 523.003 411.665 523.003 411.665C523.003 411.665 522.31 393.196 521.818 391.254C521.569 390.325 520.337 390.532 519.128 390.994C517.629 393.746 515.964 397.582 516.095 400.661Z" fill="#565387"/>
<path opacity="0.1" d="M516.095 400.661C516.255 404.485 519.235 409.232 521.013 411.742C522.138 411.742 523.003 411.665 523.003 411.665C523.003 411.665 522.31 393.196 521.818 391.254C521.569 390.325 520.337 390.532 519.128 390.994C517.629 393.746 515.964 397.582 516.095 400.661Z" fill="black"/>
<path opacity="0.05" d="M513.589 401.17C514.596 404.858 514.584 408.996 516.196 411.5C516.435 411.575 516.681 411.631 516.93 411.665C518.288 411.771 519.651 411.797 521.013 411.742C522.138 411.742 523.003 411.665 523.003 411.665C523.003 411.665 522.31 393.196 521.818 391.254C521.57 390.325 520.337 390.532 519.128 390.994C518.218 391.362 517.34 391.806 516.504 392.32C516.504 392.32 512.297 396.446 513.589 401.17Z" fill="black"/>
<path opacity="0.1" d="M463.03 363.739C463.03 363.739 470.312 366.107 476.48 374.489L463.03 363.739Z" fill="black"/>
<g opacity="0.1">
<path opacity="0.1" d="M522.18 272.705C522.18 272.764 522.18 272.818 522.138 272.871C522.065 273.086 521.98 273.298 521.884 273.504C521.958 273.23 522.058 272.962 522.18 272.705Z" fill="black"/>
<path opacity="0.1" d="M480.995 269.029C481.132 268.497 481.331 267.982 481.587 267.496C481.546 267.626 481.51 267.756 481.475 267.893C481.09 269.544 481.41 271.273 481.812 272.918C482.02 273.771 482.304 274.694 483.039 275.168C484.171 275.89 485.919 275.263 486.843 276.239C487.435 276.831 487.435 277.962 488.223 278.341C488.508 278.468 488.824 278.505 489.13 278.447C491.144 278.163 492.318 275.884 494.255 275.257C495.388 274.967 496.585 275.071 497.65 275.553C498.085 275.685 498.474 275.935 498.776 276.275C499.422 277.11 498.971 278.347 499.268 279.359C499.688 280.768 501.371 281.324 502.823 281.514C504.274 281.703 505.921 281.798 506.899 282.899C507.222 283.313 507.454 283.791 507.579 284.302C507.703 284.812 507.718 285.343 507.622 285.859C507.533 286.215 507.533 286.587 507.622 286.942C508.025 288.079 509.992 287.913 510.507 287.013C510.887 286.362 510.768 285.829 511.657 285.634C512.295 285.585 512.934 285.697 513.517 285.96C515.095 286.499 516.757 286.748 518.423 286.694C519.798 286.714 521.144 286.3 522.269 285.51C522.76 285.121 523.164 284.632 523.454 284.077C523.196 285.087 522.621 285.988 521.812 286.646C520.688 287.436 519.342 287.851 517.967 287.83C516.294 287.874 514.627 287.609 513.049 287.049C512.467 286.785 511.826 286.675 511.189 286.729C510.306 286.907 510.419 287.451 510.039 288.103C509.524 289.002 507.557 289.174 507.154 288.037C507.069 287.679 507.069 287.306 507.154 286.948C507.25 286.432 507.235 285.901 507.11 285.391C506.986 284.881 506.754 284.403 506.431 283.988C505.453 282.887 503.812 282.804 502.355 282.603C500.897 282.402 499.214 281.857 498.8 280.448C498.497 279.436 498.954 278.199 498.302 277.364C498 277.025 497.61 276.775 497.176 276.642C496.111 276.16 494.913 276.056 493.781 276.346C491.844 276.973 490.67 279.253 488.656 279.537C488.35 279.594 488.034 279.557 487.749 279.43C486.985 279.051 486.955 277.95 486.369 277.329C485.445 276.352 483.697 276.985 482.565 276.257C481.83 275.784 481.546 274.86 481.338 274.014C480.93 272.409 480.61 270.681 480.995 269.029Z" fill="black"/>
</g>
<path opacity="0.1" d="M523.359 329.748C521.966 331.625 520.396 333.359 519.146 335.342C517.896 337.325 517.049 339.646 517.303 341.966C518.577 340.664 519.158 338.859 519.964 337.231C521.321 334.46 523.353 332.11 525.071 329.535C525.397 329.05 527.495 326.238 526.434 326.102C525.557 326.001 523.833 329.109 523.359 329.748Z" fill="black"/>
</g>
<defs>
<linearGradient id="paint0_linear" x1="499.907" y1="411.198" x2="499.907" y2="252.655" gradientUnits="userSpaceOnUse">
<stop stop-color="#808080" stop-opacity="0.25"/>
<stop offset="0.54" stop-color="#808080" stop-opacity="0.12"/>
<stop offset="1" stop-color="#808080" stop-opacity="0.1"/>
</linearGradient>
<clipPath id="clip0">
<rect width="654" height="419" fill="white"/>
</clipPath>
</defs>
</svg>
