<svg width="963" height="644" viewBox="0 0 963 644" fill="none" xmlns="http://www.w3.org/2000/svg">
<path d="M587.91 159.38C289.582 179.983 163.47 261.505 99.1437 461.588C78.2376 544.776 162.369 678.352 328.709 635.853C490.33 594.561 412.584 495.693 731.554 523.979C986.73 546.608 972.779 415.691 953.883 336.088C934.987 256.485 886.238 138.778 587.91 159.38Z" fill="#6C69FF" fill-opacity="0.1"/>
<path d="M442.907 497.319C755.375 444.716 880.327 356.139 928.526 166.55C942.411 88.3873 840.63 -23.771 669.445 33.8135C503.118 89.7639 594.765 171.024 255.746 181.427C-15.4694 189.749 12.0694 307.445 39.7912 377.827C67.513 448.209 130.439 549.923 442.907 497.319Z" fill="#6C69FF" fill-opacity="0.07"/>
<g filter="url(#filter0_d)">
<rect x="127.534" y="95.7359" width="708.011" height="444.189" rx="14" fill="white"/>
</g>
<rect x="176" y="149" width="613" height="20" rx="5" fill="#F2F2F2"/>
<rect x="176" y="154" width="36" height="352" rx="5" fill="url(#paint0_linear)"/>
<line x1="212.385" y1="149" x2="212.385" y2="506.146" stroke="url(#paint1_linear)"/>
<line x1="266.5" y1="149" x2="266.5" y2="506.146" stroke="url(#paint2_linear)"/>
<line x1="320.385" y1="149" x2="320.385" y2="506.146" stroke="url(#paint3_linear)"/>
<line x1="374.5" y1="149" x2="374.5" y2="506.146" stroke="url(#paint4_linear)"/>
<line x1="430.385" y1="149" x2="430.385" y2="506.146" stroke="url(#paint5_linear)"/>
<line x1="484.5" y1="149" x2="484.5" y2="506.146" stroke="url(#paint6_linear)"/>
<line x1="538.385" y1="149" x2="538.385" y2="506.146" stroke="url(#paint7_linear)"/>
<line x1="592.5" y1="149" x2="592.5" y2="506.146" stroke="url(#paint8_linear)"/>
<line x1="642.217" y1="149.296" x2="642.217" y2="506.442" stroke="#E3E3E3"/>
<line x1="696.058" y1="149.296" x2="696.058" y2="506.442" stroke="#E3E3E3"/>
<line x1="175.991" y1="168.537" x2="779.909" y2="168.537" stroke="#E3E3E3"/>
<line x1="175.991" y1="194.561" x2="779.909" y2="194.561" stroke="#E3E3E3"/>
<line x1="175.991" y1="220.584" x2="779.909" y2="220.584" stroke="#E3E3E3"/>
<line x1="175.991" y1="246.607" x2="779.909" y2="246.607" stroke="#E3E3E3"/>
<line x1="175.991" y1="271.733" x2="779.909" y2="271.733" stroke="#E3E3E3"/>
<line x1="175.991" y1="297.756" x2="779.909" y2="297.756" stroke="#E3E3E3"/>
<line x1="175.991" y1="323.779" x2="779.909" y2="323.779" stroke="#E3E3E3"/>
<line x1="175.991" y1="349.802" x2="779.909" y2="349.802" stroke="#E3E3E3"/>
<line x1="175.991" y1="375.826" x2="779.909" y2="375.826" stroke="#E3E3E3"/>
<line x1="175.991" y1="401.849" x2="779.909" y2="401.849" stroke="#E3E3E3"/>
<line x1="175.991" y1="427.872" x2="779.909" y2="427.872" stroke="#E3E3E3"/>
<line x1="175.991" y1="453.895" x2="779.909" y2="453.895" stroke="#E3E3E3"/>
<line x1="175.991" y1="479.918" x2="779.909" y2="479.918" stroke="#E3E3E3"/>
<path d="M241.111 161.008H237.884L237.151 163H236.521L239.212 155.891H239.783L242.474 163H241.849L241.111 161.008ZM238.069 160.495H240.921L239.495 156.623L238.069 160.495Z" fill="#A0A0A0"/>
<path d="M194.115 186H193.529V179.594L191.596 180.312V179.765L194.018 178.866H194.115V186Z" fill="#A0A0A0"/>
<path d="M195.849 211H191.396V210.551L193.832 207.787C194.236 207.322 194.516 206.938 194.672 206.635C194.828 206.332 194.906 206.037 194.906 205.751C194.906 205.302 194.774 204.947 194.511 204.687C194.247 204.423 193.884 204.291 193.422 204.291C192.943 204.291 192.556 204.444 192.26 204.75C191.967 205.056 191.82 205.453 191.82 205.941H191.239C191.239 205.541 191.329 205.176 191.508 204.848C191.69 204.519 191.947 204.262 192.279 204.076C192.615 203.887 192.995 203.793 193.422 203.793C194.073 203.793 194.581 203.964 194.945 204.306C195.313 204.647 195.497 205.113 195.497 205.702C195.497 206.034 195.393 206.397 195.185 206.791C194.979 207.185 194.617 207.676 194.096 208.266L192.113 210.507H195.849V211Z" fill="#A0A0A0"/>
<path d="M192.694 233.128H193.3C193.635 233.128 193.928 233.069 194.179 232.952C194.429 232.832 194.62 232.669 194.75 232.464C194.883 232.256 194.95 232.016 194.95 231.746C194.95 231.29 194.822 230.934 194.564 230.677C194.307 230.42 193.938 230.291 193.456 230.291C193 230.291 192.626 230.426 192.333 230.696C192.043 230.963 191.898 231.316 191.898 231.756H191.312C191.312 231.388 191.405 231.053 191.591 230.75C191.776 230.444 192.034 230.208 192.362 230.042C192.691 229.876 193.056 229.793 193.456 229.793C194.101 229.793 194.608 229.969 194.979 230.32C195.351 230.672 195.536 231.154 195.536 231.766C195.536 232.107 195.427 232.423 195.209 232.713C194.994 232.999 194.698 233.214 194.32 233.357C194.763 233.481 195.098 233.694 195.326 233.997C195.554 234.297 195.668 234.655 195.668 235.071C195.668 235.68 195.469 236.17 195.072 236.541C194.675 236.912 194.145 237.098 193.48 237.098C193.057 237.098 192.668 237.013 192.313 236.844C191.962 236.674 191.688 236.438 191.493 236.136C191.301 235.83 191.205 235.475 191.205 235.071H191.791C191.791 235.524 191.949 235.893 192.265 236.18C192.58 236.463 192.986 236.604 193.48 236.604C193.985 236.604 194.377 236.476 194.657 236.219C194.94 235.958 195.082 235.582 195.082 235.091C195.082 234.616 194.929 234.253 194.623 234.002C194.32 233.751 193.873 233.626 193.28 233.626H192.694V233.128Z" fill="#A0A0A0"/>
<path d="M194.984 260.71H196.093V261.203H194.984V263H194.398V261.203H191.054V260.871L194.345 255.891H194.984V260.71ZM191.771 260.71H194.398V256.647L194.14 257.097L191.771 260.71Z" fill="#A0A0A0"/>
<path d="M191.791 285.357L192.138 281.891H195.692V282.433H192.641L192.392 284.835C192.772 284.575 193.218 284.444 193.729 284.444C194.371 284.444 194.882 284.653 195.263 285.069C195.644 285.486 195.834 286.041 195.834 286.734C195.834 287.483 195.648 288.064 195.277 288.478C194.906 288.891 194.384 289.098 193.71 289.098C193.091 289.098 192.59 288.925 192.206 288.58C191.822 288.235 191.602 287.752 191.547 287.13H192.108C192.164 287.615 192.328 287.983 192.602 288.233C192.875 288.481 193.244 288.604 193.71 288.604C194.218 288.604 194.6 288.443 194.857 288.121C195.118 287.799 195.248 287.34 195.248 286.744C195.248 286.223 195.103 285.799 194.813 285.47C194.524 285.141 194.128 284.977 193.627 284.977C193.35 284.977 193.109 285.012 192.904 285.084C192.699 285.152 192.483 285.287 192.255 285.489L191.791 285.357Z" fill="#A0A0A0"/>
<path d="M194.843 307.837V308.35H194.774C193.925 308.35 193.256 308.6 192.768 309.102C192.279 309.6 192.009 310.293 191.957 311.182C192.152 310.911 192.401 310.703 192.704 310.557C193.007 310.407 193.345 310.332 193.72 310.332C194.345 310.332 194.841 310.549 195.209 310.981C195.58 311.411 195.766 311.974 195.766 312.671C195.766 313.133 195.679 313.55 195.507 313.921C195.334 314.292 195.087 314.582 194.765 314.79C194.442 314.995 194.075 315.098 193.661 315.098C192.981 315.098 192.427 314.852 192.001 314.36C191.575 313.866 191.361 313.228 191.361 312.446V311.86C191.361 310.588 191.651 309.603 192.23 308.906C192.81 308.206 193.632 307.85 194.696 307.837H194.843ZM193.627 310.835C193.256 310.835 192.909 310.946 192.587 311.167C192.268 311.385 192.055 311.663 191.947 312.002V312.5C191.947 313.118 192.105 313.623 192.421 314.014C192.74 314.404 193.153 314.6 193.661 314.6C194.117 314.6 194.485 314.419 194.765 314.058C195.048 313.696 195.189 313.241 195.189 312.69C195.189 312.131 195.048 311.681 194.765 311.343C194.485 311.004 194.105 310.835 193.627 310.835Z" fill="#A0A0A0"/>
<path d="M195.775 336.228L192.738 343H192.128L195.146 336.389H191.103V335.891H195.775V336.228Z" fill="#A0A0A0"/>
<path d="M195.585 361.722C195.585 362.09 195.478 362.42 195.263 362.713C195.048 363.003 194.765 363.216 194.413 363.353C194.823 363.493 195.152 363.719 195.399 364.031C195.647 364.344 195.771 364.705 195.771 365.115C195.771 365.724 195.564 366.207 195.15 366.565C194.737 366.92 194.19 367.098 193.51 367.098C192.823 367.098 192.273 366.92 191.859 366.565C191.449 366.211 191.244 365.727 191.244 365.115C191.244 364.712 191.363 364.352 191.601 364.036C191.838 363.72 192.164 363.493 192.577 363.353C192.226 363.216 191.946 363.003 191.737 362.713C191.529 362.42 191.425 362.09 191.425 361.722C191.425 361.132 191.614 360.664 191.991 360.315C192.372 359.967 192.875 359.793 193.5 359.793C194.125 359.793 194.628 359.969 195.009 360.32C195.393 360.672 195.585 361.139 195.585 361.722ZM195.185 365.12C195.185 364.677 195.027 364.314 194.711 364.031C194.395 363.745 193.992 363.602 193.5 363.602C193.008 363.602 192.606 363.742 192.294 364.021C191.981 364.301 191.825 364.668 191.825 365.12C191.825 365.573 191.977 365.934 192.279 366.204C192.582 366.471 192.992 366.604 193.51 366.604C194.014 366.604 194.42 366.471 194.726 366.204C195.032 365.937 195.185 365.576 195.185 365.12ZM194.999 361.717C194.999 361.31 194.857 360.971 194.574 360.701C194.294 360.428 193.936 360.291 193.5 360.291C193.057 360.291 192.698 360.423 192.421 360.687C192.147 360.947 192.011 361.29 192.011 361.717C192.011 362.133 192.147 362.469 192.421 362.723C192.698 362.977 193.059 363.104 193.505 363.104C193.944 363.104 194.302 362.977 194.579 362.723C194.859 362.465 194.999 362.13 194.999 361.717Z" fill="#A0A0A0"/>
<path d="M195.043 389.709C194.835 390.015 194.576 390.253 194.267 390.422C193.957 390.588 193.622 390.671 193.261 390.671C192.857 390.671 192.501 390.567 192.191 390.358C191.882 390.15 191.643 389.862 191.474 389.494C191.304 389.126 191.22 388.724 191.22 388.288C191.22 387.819 191.309 387.393 191.488 387.009C191.671 386.625 191.923 386.327 192.245 386.115C192.571 385.9 192.945 385.793 193.368 385.793C194.081 385.793 194.636 386.044 195.033 386.545C195.43 387.043 195.629 387.751 195.629 388.669V389.196C195.629 390.479 195.355 391.442 194.809 392.087C194.262 392.731 193.427 393.054 192.304 393.054H192.196L192.201 392.546H192.406C193.256 392.533 193.902 392.292 194.345 391.823C194.787 391.354 195.02 390.65 195.043 389.709ZM193.334 390.168C193.725 390.168 194.075 390.052 194.384 389.821C194.696 389.587 194.918 389.284 195.048 388.913V388.576C195.048 387.854 194.896 387.294 194.594 386.896C194.294 386.496 193.889 386.296 193.378 386.296C192.916 386.296 192.536 386.483 192.24 386.857C191.944 387.229 191.796 387.697 191.796 388.264C191.796 388.807 191.938 389.261 192.221 389.626C192.507 389.987 192.878 390.168 193.334 390.168Z" fill="#A0A0A0"/>
<path d="M191.342 419H190.756V412.594L188.822 413.312V412.765L191.244 411.866H191.342V419ZM198.456 416.036C198.456 417.039 198.272 417.8 197.904 418.321C197.536 418.839 196.994 419.098 196.278 419.098C195.575 419.098 195.036 418.844 194.662 418.336C194.288 417.825 194.096 417.083 194.086 416.109V414.835C194.086 413.836 194.271 413.079 194.643 412.564C195.014 412.05 195.556 411.793 196.269 411.793C196.972 411.793 197.509 412.042 197.88 412.54C198.251 413.035 198.443 413.766 198.456 414.732V416.036ZM197.87 414.762C197.87 413.948 197.737 413.333 197.47 412.916C197.206 412.499 196.806 412.291 196.269 412.291C195.741 412.291 195.344 412.494 195.077 412.901C194.81 413.308 194.674 413.909 194.667 414.703V416.1C194.667 416.91 194.804 417.53 195.077 417.96C195.354 418.39 195.754 418.604 196.278 418.604C196.799 418.604 197.193 418.395 197.46 417.975C197.73 417.555 197.867 416.939 197.87 416.129V414.762Z" fill="#A0A0A0"/>
<path d="M191.342 445H190.756V438.594L188.822 439.312V438.765L191.244 437.866H191.342V445ZM196.889 445H196.303V438.594L194.369 439.312V438.765L196.791 437.866H196.889V445Z" fill="#A0A0A0"/>
<path d="M191.342 470H190.756V463.594L188.822 464.312V463.765L191.244 462.866H191.342V470ZM198.622 470H194.169V469.551L196.605 466.787C197.009 466.322 197.289 465.938 197.445 465.635C197.602 465.332 197.68 465.037 197.68 464.751C197.68 464.302 197.548 463.947 197.284 463.687C197.021 463.423 196.658 463.291 196.195 463.291C195.717 463.291 195.329 463.444 195.033 463.75C194.74 464.056 194.594 464.453 194.594 464.941H194.013C194.013 464.541 194.102 464.176 194.281 463.848C194.464 463.519 194.721 463.262 195.053 463.076C195.388 462.887 195.769 462.793 196.195 462.793C196.846 462.793 197.354 462.964 197.719 463.306C198.087 463.647 198.271 464.113 198.271 464.702C198.271 465.034 198.166 465.397 197.958 465.791C197.753 466.185 197.39 466.676 196.869 467.266L194.887 469.507H198.622V470Z" fill="#A0A0A0"/>
<path d="M291.332 163V155.891H293.432C294.193 155.891 294.771 156.049 295.165 156.364C295.559 156.677 295.756 157.139 295.756 157.751C295.756 158.119 295.655 158.439 295.453 158.713C295.255 158.983 294.981 159.177 294.633 159.294C295.046 159.385 295.378 159.589 295.629 159.904C295.883 160.22 296.01 160.585 296.01 160.998C296.01 161.626 295.806 162.118 295.399 162.473C294.996 162.824 294.433 163 293.71 163H291.332ZM291.933 159.582V162.492H293.734C294.249 162.492 294.656 162.362 294.955 162.102C295.258 161.838 295.409 161.473 295.409 161.008C295.409 160.568 295.264 160.222 294.975 159.968C294.688 159.711 294.291 159.582 293.783 159.582H291.933ZM291.933 159.079H293.573C294.075 159.069 294.462 158.952 294.735 158.728C295.012 158.5 295.15 158.169 295.15 157.736C295.15 157.281 295.007 156.945 294.721 156.73C294.438 156.512 294.008 156.403 293.432 156.403H291.933V159.079Z" fill="#A0A0A0"/>
<path d="M349.186 160.783C349.104 161.532 348.836 162.105 348.38 162.502C347.927 162.899 347.324 163.098 346.568 163.098C346.041 163.098 345.574 162.966 345.167 162.702C344.763 162.438 344.451 162.066 344.229 161.584C344.008 161.099 343.896 160.546 343.893 159.924V159.001C343.893 158.369 344.003 157.81 344.225 157.321C344.446 156.833 344.763 156.457 345.177 156.193C345.593 155.926 346.072 155.793 346.612 155.793C347.374 155.793 347.975 156 348.414 156.413C348.857 156.823 349.114 157.391 349.186 158.117H348.58C348.43 156.91 347.774 156.306 346.612 156.306C345.968 156.306 345.453 156.547 345.069 157.028C344.688 157.51 344.498 158.176 344.498 159.025V159.895C344.498 160.715 344.684 161.369 345.055 161.857C345.429 162.346 345.934 162.59 346.568 162.59C347.197 162.59 347.67 162.44 347.989 162.141C348.308 161.838 348.505 161.385 348.58 160.783H349.186Z" fill="#A0A0A0"/>
<path d="M400.122 163V155.891H402.109C402.692 155.891 403.215 156.024 403.677 156.291C404.139 156.555 404.499 156.934 404.756 157.429C405.016 157.924 405.146 158.487 405.146 159.118V159.772C405.146 160.407 405.018 160.97 404.761 161.462C404.504 161.953 404.141 162.333 403.672 162.6C403.206 162.867 402.671 163 402.065 163H400.122ZM400.723 156.403V162.492H402.07C402.819 162.492 403.42 162.245 403.872 161.75C404.325 161.252 404.551 160.58 404.551 159.733V159.108C404.551 158.291 404.328 157.637 403.882 157.146C403.436 156.654 402.848 156.407 402.119 156.403H400.723Z" fill="#A0A0A0"/>
<path d="M459.478 159.592H456.152V162.492H459.976V163H455.552V155.891H459.951V156.403H456.152V159.084H459.478V159.592Z" fill="#A0A0A0"/>
<path d="M513.502 159.68H510.187V163H509.586V155.891H513.99V156.403H510.187V159.167H513.502V159.68Z" fill="#A0A0A0"/>
<path d="M568.112 162.155C567.904 162.451 567.577 162.683 567.131 162.849C566.688 163.015 566.192 163.098 565.642 163.098C565.085 163.098 564.59 162.964 564.157 162.697C563.724 162.43 563.389 162.053 563.151 161.564C562.914 161.076 562.793 160.516 562.79 159.885V158.986C562.79 158 563.039 157.222 563.537 156.652C564.035 156.079 564.704 155.793 565.544 155.793C566.276 155.793 566.866 155.98 567.312 156.354C567.757 156.726 568.023 157.238 568.107 157.893H567.507C567.419 157.372 567.206 156.978 566.867 156.711C566.532 156.441 566.092 156.306 565.549 156.306C564.885 156.306 564.359 156.542 563.972 157.014C563.584 157.486 563.391 158.151 563.391 159.011V159.851C563.391 160.391 563.482 160.869 563.664 161.286C563.85 161.7 564.113 162.02 564.455 162.248C564.8 162.476 565.196 162.59 565.642 162.59C566.159 162.59 566.604 162.508 566.975 162.346C567.215 162.238 567.395 162.113 567.512 161.97V160.134H565.603V159.626H568.112V162.155Z" fill="#A0A0A0"/>
<rect x="127" y="94" width="709" height="28" rx="13" fill="#7FD27D"/>
<rect x="127" y="109" width="709" height="13" fill="#7FD27D"/>
<circle cx="142.5" cy="108.5" r="3.5" fill="#006528"/>
<circle cx="152.5" cy="108.5" r="3.5" fill="#006528"/>
<circle cx="162.5" cy="108.5" r="3.5" fill="#006528"/>
<g filter="url(#filter1_d)">
<rect x="618" y="147" width="172" height="359" rx="8" fill="white"/>
</g>
<path d="M645.524 248.534C645.378 249.881 644.894 250.913 644.074 251.627C643.26 252.342 642.173 252.7 640.813 252.7C639.864 252.7 639.023 252.462 638.291 251.988C637.564 251.513 637.002 250.842 636.603 249.975C636.205 249.102 636.003 248.106 635.997 246.987V245.326C635.997 244.189 636.196 243.181 636.595 242.302C636.993 241.423 637.564 240.747 638.308 240.272C639.058 239.792 639.92 239.551 640.892 239.551C642.264 239.551 643.345 239.923 644.136 240.668C644.932 241.406 645.395 242.428 645.524 243.735H644.434C644.165 241.561 642.984 240.474 640.892 240.474C639.732 240.474 638.807 240.908 638.115 241.775C637.43 242.642 637.087 243.84 637.087 245.37V246.934C637.087 248.411 637.421 249.588 638.089 250.467C638.763 251.346 639.671 251.786 640.813 251.786C641.944 251.786 642.797 251.516 643.371 250.977C643.945 250.432 644.3 249.618 644.434 248.534H645.524ZM648.952 244.623C649.298 244.054 649.74 243.615 650.279 243.304C650.818 242.994 651.407 242.838 652.046 242.838C653.065 242.838 653.824 243.126 654.322 243.7C654.82 244.274 655.072 245.135 655.078 246.284V252.524H654.032V246.275C654.026 245.425 653.845 244.793 653.487 244.376C653.136 243.96 652.57 243.752 651.791 243.752C651.141 243.752 650.563 243.958 650.059 244.368C649.561 244.772 649.192 245.32 648.952 246.011V252.524H647.906V239.024H648.952V244.623ZM657.205 247.628C657.205 246.714 657.381 245.891 657.732 245.159C658.09 244.426 658.591 243.858 659.235 243.454C659.886 243.043 660.621 242.838 661.441 242.838C662.707 242.838 663.732 243.284 664.517 244.174C665.303 245.059 665.695 246.234 665.695 247.699V247.918C665.695 248.838 665.516 249.668 665.159 250.406C664.807 251.138 664.309 251.704 663.665 252.102C663.02 252.501 662.285 252.7 661.459 252.7C660.199 252.7 659.174 252.257 658.383 251.373C657.598 250.482 657.205 249.304 657.205 247.839V247.628ZM658.26 247.918C658.26 249.055 658.553 249.99 659.139 250.722C659.73 251.449 660.504 251.812 661.459 251.812C662.408 251.812 663.176 251.449 663.762 250.722C664.353 249.99 664.649 249.026 664.649 247.831V247.628C664.649 246.902 664.515 246.237 664.245 245.633C663.975 245.03 663.598 244.564 663.111 244.236C662.625 243.902 662.068 243.735 661.441 243.735C660.504 243.735 659.739 244.104 659.147 244.842C658.556 245.575 658.26 246.536 658.26 247.725V247.918ZM667.295 247.628C667.295 246.714 667.471 245.891 667.822 245.159C668.18 244.426 668.681 243.858 669.325 243.454C669.975 243.043 670.711 242.838 671.531 242.838C672.797 242.838 673.822 243.284 674.607 244.174C675.392 245.059 675.785 246.234 675.785 247.699V247.918C675.785 248.838 675.606 249.668 675.249 250.406C674.897 251.138 674.399 251.704 673.755 252.102C673.11 252.501 672.375 252.7 671.549 252.7C670.289 252.7 669.264 252.257 668.473 251.373C667.687 250.482 667.295 249.304 667.295 247.839V247.628ZM668.349 247.918C668.349 249.055 668.642 249.99 669.228 250.722C669.82 251.449 670.594 251.812 671.549 251.812C672.498 251.812 673.266 251.449 673.851 250.722C674.443 249.99 674.739 249.026 674.739 247.831V247.628C674.739 246.902 674.604 246.237 674.335 245.633C674.065 245.03 673.687 244.564 673.201 244.236C672.715 243.902 672.158 243.735 671.531 243.735C670.594 243.735 669.829 244.104 669.237 244.842C668.645 245.575 668.349 246.536 668.349 247.725V247.918ZM683.66 250.107C683.66 249.585 683.449 249.167 683.027 248.85C682.611 248.534 681.981 248.288 681.138 248.112C680.294 247.93 679.638 247.725 679.169 247.497C678.706 247.262 678.36 246.978 678.132 246.644C677.909 246.31 677.798 245.906 677.798 245.431C677.798 244.681 678.111 244.063 678.738 243.577C679.365 243.085 680.168 242.838 681.146 242.838C682.207 242.838 683.057 243.102 683.695 243.629C684.34 244.151 684.662 244.834 684.662 245.677H683.607C683.607 245.121 683.373 244.658 682.904 244.289C682.441 243.919 681.855 243.735 681.146 243.735C680.455 243.735 679.898 243.89 679.476 244.201C679.06 244.505 678.852 244.904 678.852 245.396C678.852 245.871 679.025 246.24 679.371 246.503C679.723 246.761 680.358 246.999 681.278 247.215C682.204 247.432 682.895 247.664 683.352 247.91C683.815 248.156 684.158 248.452 684.381 248.797C684.603 249.143 684.715 249.562 684.715 250.054C684.715 250.857 684.39 251.499 683.739 251.979C683.095 252.46 682.251 252.7 681.208 252.7C680.1 252.7 679.201 252.433 678.51 251.9C677.824 251.361 677.481 250.681 677.481 249.861H678.536C678.577 250.476 678.835 250.957 679.309 251.302C679.79 251.642 680.423 251.812 681.208 251.812C681.94 251.812 682.532 251.651 682.983 251.329C683.434 251.006 683.66 250.599 683.66 250.107ZM690.77 252.7C689.962 252.7 689.229 252.501 688.573 252.102C687.923 251.704 687.416 251.15 687.053 250.441C686.689 249.726 686.508 248.926 686.508 248.042V247.664C686.508 246.75 686.683 245.926 687.035 245.194C687.392 244.461 687.888 243.887 688.52 243.471C689.153 243.049 689.839 242.838 690.577 242.838C691.731 242.838 692.645 243.234 693.319 244.025C693.999 244.81 694.339 245.885 694.339 247.251V247.839H687.554V248.042C687.554 249.12 687.861 250.019 688.476 250.74C689.098 251.455 689.877 251.812 690.814 251.812C691.377 251.812 691.872 251.71 692.3 251.504C692.733 251.299 693.126 250.971 693.477 250.52L694.137 251.021C693.363 252.14 692.241 252.7 690.77 252.7ZM690.577 243.735C689.786 243.735 689.118 244.025 688.573 244.605C688.034 245.185 687.706 245.964 687.589 246.943H693.293V246.829C693.264 245.915 693.003 245.17 692.511 244.596C692.018 244.022 691.374 243.735 690.577 243.735ZM706.766 252.524C706.661 252.225 706.594 251.783 706.564 251.197C706.195 251.677 705.724 252.049 705.149 252.313C704.581 252.571 703.977 252.7 703.339 252.7C702.425 252.7 701.683 252.445 701.115 251.935C700.553 251.425 700.271 250.781 700.271 250.001C700.271 249.076 700.655 248.343 701.423 247.804C702.196 247.265 703.271 246.996 704.648 246.996H706.556V245.915C706.556 245.235 706.345 244.702 705.923 244.315C705.507 243.922 704.897 243.726 704.095 243.726C703.362 243.726 702.756 243.914 702.275 244.289C701.795 244.664 701.555 245.115 701.555 245.642L700.5 245.633C700.5 244.877 700.851 244.224 701.555 243.673C702.258 243.117 703.122 242.838 704.147 242.838C705.208 242.838 706.043 243.105 706.652 243.638C707.267 244.166 707.584 244.904 707.601 245.853V250.353C707.601 251.273 707.698 251.961 707.891 252.418V252.524H706.766ZM703.462 251.768C704.165 251.768 704.792 251.598 705.343 251.258C705.899 250.918 706.304 250.464 706.556 249.896V247.804H704.675C703.626 247.816 702.806 248.009 702.214 248.384C701.622 248.753 701.326 249.263 701.326 249.914C701.326 250.447 701.522 250.889 701.915 251.241C702.313 251.592 702.829 251.768 703.462 251.768ZM713.93 251.812C714.662 251.812 715.274 251.607 715.766 251.197C716.265 250.781 716.534 250.245 716.575 249.588H717.586C717.557 250.168 717.375 250.699 717.041 251.179C716.707 251.654 716.262 252.026 715.705 252.295C715.154 252.565 714.562 252.7 713.93 252.7C712.682 252.7 711.691 252.266 710.959 251.399C710.232 250.532 709.869 249.366 709.869 247.901V247.585C709.869 246.647 710.033 245.818 710.361 245.097C710.689 244.376 711.158 243.82 711.767 243.427C712.383 243.035 713.1 242.838 713.921 242.838C714.964 242.838 715.822 243.149 716.496 243.77C717.176 244.391 717.539 245.209 717.586 246.222H716.575C716.528 245.478 716.259 244.877 715.766 244.42C715.28 243.963 714.665 243.735 713.921 243.735C712.972 243.735 712.233 244.078 711.706 244.763C711.184 245.449 710.924 246.41 710.924 247.646V247.954C710.924 249.167 711.184 250.113 711.706 250.793C712.233 251.472 712.974 251.812 713.93 251.812ZM721.33 240.58V243.014H723.299V243.876H721.33V250.212C721.33 250.74 721.424 251.132 721.611 251.39C721.805 251.648 722.124 251.777 722.569 251.777C722.745 251.777 723.029 251.748 723.422 251.689L723.466 252.55C723.19 252.65 722.815 252.7 722.341 252.7C721.62 252.7 721.096 252.492 720.767 252.076C720.439 251.654 720.275 251.036 720.275 250.221V243.876H718.526V243.014H720.275V240.58H721.33ZM726.656 252.524H725.601V243.014H726.656V252.524ZM725.417 240.263C725.417 240.064 725.481 239.897 725.61 239.762C725.739 239.622 725.915 239.551 726.138 239.551C726.36 239.551 726.536 239.622 726.665 239.762C726.8 239.897 726.867 240.064 726.867 240.263C726.867 240.462 726.8 240.629 726.665 240.764C726.536 240.899 726.36 240.966 726.138 240.966C725.915 240.966 725.739 240.899 725.61 240.764C725.481 240.629 725.417 240.462 725.417 240.263ZM728.941 247.628C728.941 246.714 729.117 245.891 729.469 245.159C729.826 244.426 730.327 243.858 730.972 243.454C731.622 243.043 732.357 242.838 733.178 242.838C734.443 242.838 735.469 243.284 736.254 244.174C737.039 245.059 737.432 246.234 737.432 247.699V247.918C737.432 248.838 737.253 249.668 736.895 250.406C736.544 251.138 736.046 251.704 735.401 252.102C734.757 252.501 734.021 252.7 733.195 252.7C731.935 252.7 730.91 252.257 730.119 251.373C729.334 250.482 728.941 249.304 728.941 247.839V247.628ZM729.996 247.918C729.996 249.055 730.289 249.99 730.875 250.722C731.467 251.449 732.24 251.812 733.195 251.812C734.144 251.812 734.912 251.449 735.498 250.722C736.09 249.99 736.386 249.026 736.386 247.831V247.628C736.386 246.902 736.251 246.237 735.981 245.633C735.712 245.03 735.334 244.564 734.848 244.236C734.361 243.902 733.805 243.735 733.178 243.735C732.24 243.735 731.475 244.104 730.884 244.842C730.292 245.575 729.996 246.536 729.996 247.725V247.918ZM740.613 243.014L740.648 244.64C741.006 244.054 741.451 243.609 741.984 243.304C742.517 242.994 743.106 242.838 743.751 242.838C744.77 242.838 745.529 243.126 746.027 243.7C746.525 244.274 746.777 245.135 746.783 246.284V252.524H745.737V246.275C745.731 245.425 745.55 244.793 745.192 244.376C744.841 243.96 744.275 243.752 743.496 243.752C742.846 243.752 742.268 243.958 741.765 244.368C741.266 244.772 740.897 245.32 740.657 246.011V252.524H739.611V243.014H740.613Z" fill="#2D2ACD"/>
<rect x="634.846" y="272.521" width="138.192" height="22.5595" rx="3" fill="#2D2ACD" fill-opacity="0.06"/>
<path d="M757 282.756L760.5 286.779L764 282.756H757Z" fill="black" fill-opacity="0.44"/>
<rect x="635" y="304" width="45" height="22" rx="3" fill="#2D2ACD" fill-opacity="0.06"/>
<path d="M668.154 314.109L671.654 318.131L675.154 314.109H668.154Z" fill="black" fill-opacity="0.44"/>
<rect x="635" y="338.064" width="61" height="16.0896" rx="8" fill="#2D2ACD" fill-opacity="0.26"/>
<path d="M646.944 345.643H648.729V346.413H646.944V348.434H646.127V346.413H644.343V345.643H646.127V343.776H646.944V345.643ZM657.122 349.076C657.075 348.982 657.037 348.815 657.008 348.575C656.63 348.967 656.179 349.164 655.654 349.164C655.186 349.164 654.8 349.032 654.499 348.768C654.2 348.501 654.05 348.164 654.05 347.757C654.05 347.262 654.238 346.878 654.613 346.606C654.991 346.331 655.521 346.193 656.204 346.193H656.995V345.819C656.995 345.535 656.91 345.31 656.74 345.143C656.57 344.973 656.319 344.888 655.988 344.888C655.698 344.888 655.455 344.961 655.259 345.107C655.062 345.254 654.964 345.431 654.964 345.639H654.147C654.147 345.402 654.23 345.173 654.397 344.954C654.567 344.731 654.796 344.555 655.083 344.426C655.373 344.297 655.691 344.233 656.037 344.233C656.584 344.233 657.014 344.371 657.324 344.646C657.635 344.918 657.796 345.295 657.808 345.775V347.964C657.808 348.4 657.863 348.747 657.975 349.005V349.076H657.122ZM655.773 348.456C656.028 348.456 656.27 348.39 656.498 348.258C656.727 348.126 656.892 347.955 656.995 347.744V346.768H656.357C655.361 346.768 654.863 347.06 654.863 347.643C654.863 347.898 654.948 348.097 655.118 348.241C655.288 348.384 655.506 348.456 655.773 348.456ZM658.884 346.659C658.884 345.929 659.057 345.343 659.403 344.901C659.749 344.456 660.201 344.233 660.761 344.233C661.317 344.233 661.758 344.423 662.083 344.804V342.326H662.896V349.076H662.149L662.11 348.566C661.785 348.964 661.332 349.164 660.752 349.164C660.201 349.164 659.751 348.938 659.403 348.487C659.057 348.036 658.884 347.447 658.884 346.72V346.659ZM659.697 346.751C659.697 347.29 659.809 347.712 660.031 348.017C660.254 348.321 660.562 348.474 660.954 348.474C661.47 348.474 661.846 348.242 662.083 347.779V345.595C661.84 345.147 661.467 344.923 660.963 344.923C660.564 344.923 660.254 345.077 660.031 345.384C659.809 345.692 659.697 346.147 659.697 346.751ZM663.964 346.659C663.964 345.929 664.137 345.343 664.483 344.901C664.829 344.456 665.281 344.233 665.841 344.233C666.397 344.233 666.838 344.423 667.164 344.804V342.326H667.977V349.076H667.229L667.19 348.566C666.865 348.964 666.412 349.164 665.832 349.164C665.281 349.164 664.832 348.938 664.483 348.487C664.137 348.036 663.964 347.447 663.964 346.72V346.659ZM664.777 346.751C664.777 347.29 664.889 347.712 665.111 348.017C665.334 348.321 665.642 348.474 666.034 348.474C666.55 348.474 666.926 348.242 667.164 347.779V345.595C666.92 345.147 666.547 344.923 666.043 344.923C665.645 344.923 665.334 345.077 665.111 345.384C664.889 345.692 664.777 346.147 664.777 346.751ZM671.747 349.076V344.949H670.996V344.321H671.747V343.916C671.747 343.386 671.898 342.973 672.2 342.677C672.504 342.381 672.934 342.233 673.487 342.233C673.815 342.233 674.23 342.323 674.731 342.501L674.595 343.187C674.229 343.04 673.88 342.967 673.549 342.967C673.2 342.967 672.948 343.046 672.793 343.205C672.641 343.36 672.564 343.594 672.564 343.908V344.321H673.536V344.949H672.564V349.076H671.747ZM675.135 349.076H674.318V344.321H675.135V349.076ZM677.341 349.076H676.528V342.326H677.341V349.076ZM679.75 343.169V344.321H680.637V344.949H679.75V347.898C679.75 348.088 679.789 348.232 679.868 348.329C679.947 348.422 680.082 348.469 680.272 348.469C680.366 348.469 680.495 348.452 680.659 348.416V349.076C680.445 349.134 680.237 349.164 680.035 349.164C679.672 349.164 679.398 349.054 679.213 348.834C679.029 348.614 678.937 348.302 678.937 347.898V344.949H678.071V344.321H678.937V343.169H679.75ZM683.564 349.164C682.919 349.164 682.395 348.953 681.991 348.531C681.586 348.106 681.384 347.539 681.384 346.83V346.681C681.384 346.209 681.474 345.789 681.652 345.419C681.834 345.047 682.086 344.757 682.408 344.549C682.733 344.338 683.085 344.233 683.463 344.233C684.081 344.233 684.562 344.436 684.904 344.844C685.247 345.251 685.418 345.834 685.418 346.593V346.931H682.197C682.209 347.4 682.345 347.779 682.606 348.069C682.87 348.356 683.204 348.5 683.608 348.5C683.895 348.5 684.138 348.441 684.337 348.324C684.537 348.207 684.711 348.052 684.86 347.858L685.357 348.245C684.958 348.857 684.361 349.164 683.564 349.164ZM683.463 344.901C683.135 344.901 682.859 345.021 682.637 345.261C682.414 345.498 682.276 345.832 682.224 346.263H684.605V346.202C684.582 345.789 684.471 345.469 684.271 345.244C684.072 345.015 683.803 344.901 683.463 344.901ZM688.662 345.05C688.539 345.03 688.405 345.019 688.262 345.019C687.729 345.019 687.367 345.247 687.176 345.701V349.076H686.363V344.321H687.154L687.167 344.87C687.434 344.445 687.812 344.233 688.301 344.233C688.459 344.233 688.58 344.253 688.662 344.294V345.05Z" fill="#2D2ACD"/>
<rect x="683" y="304" width="45" height="22" rx="3" fill="#2D2ACD" fill-opacity="0.06"/>
<path d="M716.154 314.109L719.654 318.131L723.154 314.109H716.154Z" fill="black" fill-opacity="0.44"/>
<rect x="731" y="303.874" width="42" height="22.1232" rx="3" fill="#2D2ACD" fill-opacity="0.06"/>
<rect x="618" y="178.174" width="172" height="20.112" fill="#6C69FF"/>
<rect x="618" y="147" width="172" height="38.2129" rx="8" fill="#6C69FF"/>
<path fill-rule="evenodd" clip-rule="evenodd" d="M634 169.537V167.674H652V169.537H634ZM634 174.193H652V172.331H634V174.193ZM634 178.85H652V176.987H634V178.85Z" fill="white"/>
<path fill-rule="evenodd" clip-rule="evenodd" d="M783 154.7L782.3 154L779.5 156.8L776.7 154L776 154.7L778.8 157.5L776 160.3L776.7 161L779.5 158.2L782.3 161L783 160.3L780.2 157.5L783 154.7Z" fill="white"/>
<rect x="643" y="280" width="93" height="10" rx="5" fill="url(#paint9_linear)" fill-opacity="0.24"/>
<rect x="642" y="310" width="23" height="10" rx="5" fill="url(#paint10_linear)" fill-opacity="0.24"/>
<rect x="689" y="310" width="23" height="10" rx="5" fill="url(#paint11_linear)" fill-opacity="0.24"/>
<rect x="737" y="310" width="23" height="10" rx="5" fill="url(#paint12_linear)" fill-opacity="0.24"/>
<rect x="222" y="178" width="36" height="8" rx="4" fill="url(#paint13_linear)" fill-opacity="0.24"/>
<rect x="222" y="204" width="36" height="8" rx="4" fill="url(#paint14_linear)" fill-opacity="0.24"/>
<rect x="222" y="231" width="36" height="7" rx="3.5" fill="url(#paint15_linear)" fill-opacity="0.24"/>
<rect x="222" y="256" width="36" height="8" rx="4" fill="url(#paint16_linear)" fill-opacity="0.24"/>
<rect x="222" y="282" width="36" height="7" rx="3.5" fill="url(#paint17_linear)" fill-opacity="0.24"/>
<rect x="222" y="308" width="36" height="8" rx="4" fill="url(#paint18_linear)" fill-opacity="0.24"/>
<rect x="222" y="334" width="36" height="8" rx="4" fill="url(#paint19_linear)" fill-opacity="0.24"/>
<rect x="222" y="360" width="36" height="8" rx="4" fill="url(#paint20_linear)" fill-opacity="0.24"/>
<rect x="222" y="387" width="36" height="7" rx="3.5" fill="url(#paint21_linear)" fill-opacity="0.24"/>
<rect x="222" y="413" width="36" height="8" rx="4" fill="url(#paint22_linear)" fill-opacity="0.24"/>
<rect x="222" y="439" width="36" height="8" rx="4" fill="url(#paint23_linear)" fill-opacity="0.24"/>
<defs>
<filter id="filter0_d" x="77.5338" y="49.7359" width="808.011" height="544.189" filterUnits="userSpaceOnUse" color-interpolation-filters="sRGB">
<feFlood flood-opacity="0" result="BackgroundImageFix"/>
<feColorMatrix in="SourceAlpha" type="matrix" values="0 0 0 0 0 0 0 0 0 0 0 0 0 0 0 0 0 0 127 0"/>
<feOffset dy="4"/>
<feGaussianBlur stdDeviation="25"/>
<feColorMatrix type="matrix" values="0 0 0 0 0 0 0 0 0 0 0 0 0 0 0 0 0 0 0.13 0"/>
<feBlend mode="normal" in2="BackgroundImageFix" result="effect1_dropShadow"/>
<feBlend mode="normal" in="SourceGraphic" in2="effect1_dropShadow" result="shape"/>
</filter>
<filter id="filter1_d" x="578" y="111" width="252" height="439" filterUnits="userSpaceOnUse" color-interpolation-filters="sRGB">
<feFlood flood-opacity="0" result="BackgroundImageFix"/>
<feColorMatrix in="SourceAlpha" type="matrix" values="0 0 0 0 0 0 0 0 0 0 0 0 0 0 0 0 0 0 127 0"/>
<feOffset dy="4"/>
<feGaussianBlur stdDeviation="20"/>
<feColorMatrix type="matrix" values="0 0 0 0 0 0 0 0 0 0 0 0 0 0 0 0 0 0 0.19 0"/>
<feBlend mode="normal" in2="BackgroundImageFix" result="effect1_dropShadow"/>
<feBlend mode="normal" in="SourceGraphic" in2="effect1_dropShadow" result="shape"/>
</filter>
<linearGradient id="paint0_linear" x1="194" y1="154" x2="194" y2="506" gradientUnits="userSpaceOnUse">
<stop offset="0.942708" stop-color="#F2F2F2"/>
<stop offset="1" stop-color="#F2F2F2" stop-opacity="0"/>
</linearGradient>
<linearGradient id="paint1_linear" x1="211.999" y1="149" x2="211.998" y2="506" gradientUnits="userSpaceOnUse">
<stop offset="0.965758" stop-color="#E1E1E1"/>
<stop offset="1" stop-color="#E1E1E1" stop-opacity="0"/>
</linearGradient>
<linearGradient id="paint2_linear" x1="266" y1="327.573" x2="266" y2="506" gradientUnits="userSpaceOnUse">
<stop offset="0.911458" stop-color="#E1E1E1"/>
<stop offset="1" stop-color="#E1E1E1" stop-opacity="0"/>
</linearGradient>
<linearGradient id="paint3_linear" x1="319.999" y1="149" x2="319.998" y2="506" gradientUnits="userSpaceOnUse">
<stop offset="0.965758" stop-color="#E1E1E1"/>
<stop offset="1" stop-color="#E1E1E1" stop-opacity="0"/>
</linearGradient>
<linearGradient id="paint4_linear" x1="374" y1="327.573" x2="374" y2="506" gradientUnits="userSpaceOnUse">
<stop offset="0.911458" stop-color="#E1E1E1"/>
<stop offset="1" stop-color="#E1E1E1" stop-opacity="0"/>
</linearGradient>
<linearGradient id="paint5_linear" x1="429.999" y1="149" x2="429.998" y2="506" gradientUnits="userSpaceOnUse">
<stop offset="0.965758" stop-color="#E1E1E1"/>
<stop offset="1" stop-color="#E1E1E1" stop-opacity="0"/>
</linearGradient>
<linearGradient id="paint6_linear" x1="484" y1="327.573" x2="484" y2="506" gradientUnits="userSpaceOnUse">
<stop offset="0.911458" stop-color="#E1E1E1"/>
<stop offset="1" stop-color="#E1E1E1" stop-opacity="0"/>
</linearGradient>
<linearGradient id="paint7_linear" x1="537.999" y1="149" x2="537.998" y2="506" gradientUnits="userSpaceOnUse">
<stop offset="0.965758" stop-color="#E1E1E1"/>
<stop offset="1" stop-color="#E1E1E1" stop-opacity="0"/>
</linearGradient>
<linearGradient id="paint8_linear" x1="592" y1="327.573" x2="592" y2="506" gradientUnits="userSpaceOnUse">
<stop offset="0.911458" stop-color="#E1E1E1"/>
<stop offset="1" stop-color="#E1E1E1" stop-opacity="0"/>
</linearGradient>
<linearGradient id="paint9_linear" x1="684.093" y1="280" x2="742.488" y2="280" gradientUnits="userSpaceOnUse">
<stop stop-color="#6C69FF"/>
<stop offset="1" stop-color="#6C69FF" stop-opacity="0.19"/>
</linearGradient>
<linearGradient id="paint10_linear" x1="652.163" y1="310" x2="666.605" y2="310" gradientUnits="userSpaceOnUse">
<stop stop-color="#6C69FF"/>
<stop offset="1" stop-color="#6C69FF" stop-opacity="0.19"/>
</linearGradient>
<linearGradient id="paint11_linear" x1="699.163" y1="310" x2="713.605" y2="310" gradientUnits="userSpaceOnUse">
<stop stop-color="#6C69FF"/>
<stop offset="1" stop-color="#6C69FF" stop-opacity="0.19"/>
</linearGradient>
<linearGradient id="paint12_linear" x1="747.163" y1="310" x2="761.605" y2="310" gradientUnits="userSpaceOnUse">
<stop stop-color="#6C69FF"/>
<stop offset="1" stop-color="#6C69FF" stop-opacity="0.19"/>
</linearGradient>
<linearGradient id="paint13_linear" x1="237" y1="178" x2="260.512" y2="178" gradientUnits="userSpaceOnUse">
<stop stop-color="#020060"/>
<stop offset="1" stop-color="#020060" stop-opacity="0.16"/>
</linearGradient>
<linearGradient id="paint14_linear" x1="237.907" y1="204" x2="260.512" y2="204" gradientUnits="userSpaceOnUse">
<stop stop-color="#6C69FF"/>
<stop offset="1" stop-color="#6C69FF" stop-opacity="0.19"/>
</linearGradient>
<linearGradient id="paint15_linear" x1="237.907" y1="231" x2="260.512" y2="231" gradientUnits="userSpaceOnUse">
<stop stop-color="#6C69FF"/>
<stop offset="1" stop-color="#6C69FF" stop-opacity="0.19"/>
</linearGradient>
<linearGradient id="paint16_linear" x1="237.907" y1="256" x2="260.512" y2="256" gradientUnits="userSpaceOnUse">
<stop stop-color="#6C69FF"/>
<stop offset="1" stop-color="#6C69FF" stop-opacity="0.19"/>
</linearGradient>
<linearGradient id="paint17_linear" x1="237.907" y1="282" x2="260.512" y2="282" gradientUnits="userSpaceOnUse">
<stop stop-color="#6C69FF"/>
<stop offset="1" stop-color="#6C69FF" stop-opacity="0.19"/>
</linearGradient>
<linearGradient id="paint18_linear" x1="237.907" y1="308" x2="260.512" y2="308" gradientUnits="userSpaceOnUse">
<stop stop-color="#6C69FF"/>
<stop offset="1" stop-color="#6C69FF" stop-opacity="0.19"/>
</linearGradient>
<linearGradient id="paint19_linear" x1="237.907" y1="334" x2="260.512" y2="334" gradientUnits="userSpaceOnUse">
<stop stop-color="#6C69FF"/>
<stop offset="1" stop-color="#6C69FF" stop-opacity="0.19"/>
</linearGradient>
<linearGradient id="paint20_linear" x1="237.907" y1="360" x2="260.512" y2="360" gradientUnits="userSpaceOnUse">
<stop stop-color="#6C69FF"/>
<stop offset="1" stop-color="#6C69FF" stop-opacity="0.19"/>
</linearGradient>
<linearGradient id="paint21_linear" x1="237.907" y1="387" x2="260.512" y2="387" gradientUnits="userSpaceOnUse">
<stop stop-color="#6C69FF"/>
<stop offset="1" stop-color="#6C69FF" stop-opacity="0.19"/>
</linearGradient>
<linearGradient id="paint22_linear" x1="237.907" y1="413" x2="260.512" y2="413" gradientUnits="userSpaceOnUse">
<stop stop-color="#6C69FF"/>
<stop offset="1" stop-color="#6C69FF" stop-opacity="0.19"/>
</linearGradient>
<linearGradient id="paint23_linear" x1="237.907" y1="439" x2="260.512" y2="439" gradientUnits="userSpaceOnUse">
<stop stop-color="#6C69FF"/>
<stop offset="1" stop-color="#6C69FF" stop-opacity="0.19"/>
</linearGradient>
</defs>
</svg>
