<svg width="963" height="644" viewBox="0 0 963 644" fill="none" xmlns="http://www.w3.org/2000/svg">
<path d="M587.91 159.38C289.582 179.983 163.47 261.505 99.1437 461.588C78.2376 544.776 162.369 678.352 328.709 635.853C490.33 594.561 412.584 495.693 731.554 523.979C986.73 546.608 972.779 415.691 953.883 336.088C934.987 256.485 886.238 138.778 587.91 159.38Z" fill="#6C69FF" fill-opacity="0.1"/>
<path d="M442.907 497.319C755.375 444.716 880.327 356.139 928.526 166.55C942.411 88.3873 840.63 -23.771 669.445 33.8135C503.118 89.7639 594.765 171.024 255.746 181.427C-15.4694 189.749 12.0694 307.445 39.7912 377.827C67.513 448.209 130.439 549.923 442.907 497.319Z" fill="#6C69FF" fill-opacity="0.07"/>
<g filter="url(#filter0_d)">
<rect x="127.534" y="95.7359" width="708.011" height="444.189" rx="14" fill="white"/>
</g>
<rect x="176" y="149" width="613" height="20" rx="5" fill="#F2F2F2"/>
<rect x="176" y="154" width="36" height="352" rx="5" fill="url(#paint0_linear)"/>
<line x1="212.385" y1="149" x2="212.385" y2="506.146" stroke="url(#paint1_linear)"/>
<line x1="266.5" y1="149" x2="266.5" y2="506.146" stroke="url(#paint2_linear)"/>
<line x1="320.385" y1="149" x2="320.385" y2="506.146" stroke="url(#paint3_linear)"/>
<line x1="374.5" y1="149" x2="374.5" y2="506.146" stroke="url(#paint4_linear)"/>
<line x1="430.385" y1="149" x2="430.385" y2="506.146" stroke="url(#paint5_linear)"/>
<line x1="484.5" y1="149" x2="484.5" y2="506.146" stroke="url(#paint6_linear)"/>
<line x1="538.385" y1="149" x2="538.385" y2="506.146" stroke="url(#paint7_linear)"/>
<line x1="592.5" y1="149" x2="592.5" y2="506.146" stroke="url(#paint8_linear)"/>
<line x1="642.217" y1="149.296" x2="642.217" y2="506.442" stroke="#E3E3E3"/>
<line x1="696.058" y1="149.296" x2="696.058" y2="506.442" stroke="#E3E3E3"/>
<line x1="175.991" y1="168.537" x2="779.909" y2="168.537" stroke="#E3E3E3"/>
<line x1="175.991" y1="194.561" x2="779.909" y2="194.561" stroke="#E3E3E3"/>
<line x1="175.991" y1="220.584" x2="779.909" y2="220.584" stroke="#E3E3E3"/>
<line x1="175.991" y1="246.607" x2="779.909" y2="246.607" stroke="#E3E3E3"/>
<line x1="175.991" y1="271.733" x2="779.909" y2="271.733" stroke="#E3E3E3"/>
<line x1="175.991" y1="297.756" x2="779.909" y2="297.756" stroke="#E3E3E3"/>
<line x1="175.991" y1="323.779" x2="779.909" y2="323.779" stroke="#E3E3E3"/>
<line x1="175.991" y1="349.802" x2="779.909" y2="349.802" stroke="#E3E3E3"/>
<line x1="175.991" y1="375.826" x2="779.909" y2="375.826" stroke="#E3E3E3"/>
<line x1="175.991" y1="401.849" x2="779.909" y2="401.849" stroke="#E3E3E3"/>
<line x1="175.991" y1="427.872" x2="779.909" y2="427.872" stroke="#E3E3E3"/>
<line x1="175.991" y1="453.895" x2="779.909" y2="453.895" stroke="#E3E3E3"/>
<line x1="175.991" y1="479.918" x2="779.909" y2="479.918" stroke="#E3E3E3"/>
<path d="M241.111 161.008H237.884L237.151 163H236.521L239.212 155.891H239.783L242.474 163H241.849L241.111 161.008ZM238.069 160.495H240.921L239.495 156.623L238.069 160.495Z" fill="#A0A0A0"/>
<path d="M194.115 186H193.529V179.594L191.596 180.312V179.765L194.018 178.866H194.115V186Z" fill="#A0A0A0"/>
<path d="M195.849 211H191.396V210.551L193.832 207.787C194.236 207.322 194.516 206.938 194.672 206.635C194.828 206.332 194.906 206.037 194.906 205.751C194.906 205.302 194.774 204.947 194.511 204.687C194.247 204.423 193.884 204.291 193.422 204.291C192.943 204.291 192.556 204.444 192.26 204.75C191.967 205.056 191.82 205.453 191.82 205.941H191.239C191.239 205.541 191.329 205.176 191.508 204.848C191.69 204.519 191.947 204.262 192.279 204.076C192.615 203.887 192.995 203.793 193.422 203.793C194.073 203.793 194.581 203.964 194.945 204.306C195.313 204.647 195.497 205.113 195.497 205.702C195.497 206.034 195.393 206.397 195.185 206.791C194.979 207.185 194.617 207.676 194.096 208.266L192.113 210.507H195.849V211Z" fill="#A0A0A0"/>
<path d="M192.694 233.128H193.3C193.635 233.128 193.928 233.069 194.179 232.952C194.429 232.832 194.62 232.669 194.75 232.464C194.883 232.256 194.95 232.016 194.95 231.746C194.95 231.29 194.822 230.934 194.564 230.677C194.307 230.42 193.938 230.291 193.456 230.291C193 230.291 192.626 230.426 192.333 230.696C192.043 230.963 191.898 231.316 191.898 231.756H191.312C191.312 231.388 191.405 231.053 191.591 230.75C191.776 230.444 192.034 230.208 192.362 230.042C192.691 229.876 193.056 229.793 193.456 229.793C194.101 229.793 194.608 229.969 194.979 230.32C195.351 230.672 195.536 231.154 195.536 231.766C195.536 232.107 195.427 232.423 195.209 232.713C194.994 232.999 194.698 233.214 194.32 233.357C194.763 233.481 195.098 233.694 195.326 233.997C195.554 234.297 195.668 234.655 195.668 235.071C195.668 235.68 195.469 236.17 195.072 236.541C194.675 236.912 194.145 237.098 193.48 237.098C193.057 237.098 192.668 237.013 192.313 236.844C191.962 236.674 191.688 236.438 191.493 236.136C191.301 235.83 191.205 235.475 191.205 235.071H191.791C191.791 235.524 191.949 235.893 192.265 236.18C192.58 236.463 192.986 236.604 193.48 236.604C193.985 236.604 194.377 236.476 194.657 236.219C194.94 235.958 195.082 235.582 195.082 235.091C195.082 234.616 194.929 234.253 194.623 234.002C194.32 233.751 193.873 233.626 193.28 233.626H192.694V233.128Z" fill="#A0A0A0"/>
<path d="M194.984 260.71H196.093V261.203H194.984V263H194.398V261.203H191.054V260.871L194.345 255.891H194.984V260.71ZM191.771 260.71H194.398V256.647L194.14 257.097L191.771 260.71Z" fill="#A0A0A0"/>
<path d="M191.791 285.357L192.138 281.891H195.692V282.433H192.641L192.392 284.835C192.772 284.575 193.218 284.444 193.729 284.444C194.371 284.444 194.882 284.653 195.263 285.069C195.644 285.486 195.834 286.041 195.834 286.734C195.834 287.483 195.648 288.064 195.277 288.478C194.906 288.891 194.384 289.098 193.71 289.098C193.091 289.098 192.59 288.925 192.206 288.58C191.822 288.235 191.602 287.752 191.547 287.13H192.108C192.164 287.615 192.328 287.983 192.602 288.233C192.875 288.481 193.244 288.604 193.71 288.604C194.218 288.604 194.6 288.443 194.857 288.121C195.118 287.799 195.248 287.34 195.248 286.744C195.248 286.223 195.103 285.799 194.813 285.47C194.524 285.141 194.128 284.977 193.627 284.977C193.35 284.977 193.109 285.012 192.904 285.084C192.699 285.152 192.483 285.287 192.255 285.489L191.791 285.357Z" fill="#A0A0A0"/>
<path d="M194.843 307.837V308.35H194.774C193.925 308.35 193.256 308.6 192.768 309.102C192.279 309.6 192.009 310.293 191.957 311.182C192.152 310.911 192.401 310.703 192.704 310.557C193.007 310.407 193.345 310.332 193.72 310.332C194.345 310.332 194.841 310.549 195.209 310.981C195.58 311.411 195.766 311.974 195.766 312.671C195.766 313.133 195.679 313.55 195.507 313.921C195.334 314.292 195.087 314.582 194.765 314.79C194.442 314.995 194.075 315.098 193.661 315.098C192.981 315.098 192.427 314.852 192.001 314.36C191.575 313.866 191.361 313.228 191.361 312.446V311.86C191.361 310.588 191.651 309.603 192.23 308.906C192.81 308.206 193.632 307.85 194.696 307.837H194.843ZM193.627 310.835C193.256 310.835 192.909 310.946 192.587 311.167C192.268 311.385 192.055 311.663 191.947 312.002V312.5C191.947 313.118 192.105 313.623 192.421 314.014C192.74 314.404 193.153 314.6 193.661 314.6C194.117 314.6 194.485 314.419 194.765 314.058C195.048 313.696 195.189 313.241 195.189 312.69C195.189 312.131 195.048 311.681 194.765 311.343C194.485 311.004 194.105 310.835 193.627 310.835Z" fill="#A0A0A0"/>
<path d="M195.775 336.228L192.738 343H192.128L195.146 336.389H191.103V335.891H195.775V336.228Z" fill="#A0A0A0"/>
<path d="M195.585 361.722C195.585 362.09 195.478 362.42 195.263 362.713C195.048 363.003 194.765 363.216 194.413 363.353C194.823 363.493 195.152 363.719 195.399 364.031C195.647 364.344 195.771 364.705 195.771 365.115C195.771 365.724 195.564 366.207 195.15 366.565C194.737 366.92 194.19 367.098 193.51 367.098C192.823 367.098 192.273 366.92 191.859 366.565C191.449 366.211 191.244 365.727 191.244 365.115C191.244 364.712 191.363 364.352 191.601 364.036C191.838 363.72 192.164 363.493 192.577 363.353C192.226 363.216 191.946 363.003 191.737 362.713C191.529 362.42 191.425 362.09 191.425 361.722C191.425 361.132 191.614 360.664 191.991 360.315C192.372 359.967 192.875 359.793 193.5 359.793C194.125 359.793 194.628 359.969 195.009 360.32C195.393 360.672 195.585 361.139 195.585 361.722ZM195.185 365.12C195.185 364.677 195.027 364.314 194.711 364.031C194.395 363.745 193.992 363.602 193.5 363.602C193.008 363.602 192.606 363.742 192.294 364.021C191.981 364.301 191.825 364.668 191.825 365.12C191.825 365.573 191.977 365.934 192.279 366.204C192.582 366.471 192.992 366.604 193.51 366.604C194.014 366.604 194.42 366.471 194.726 366.204C195.032 365.937 195.185 365.576 195.185 365.12ZM194.999 361.717C194.999 361.31 194.857 360.971 194.574 360.701C194.294 360.428 193.936 360.291 193.5 360.291C193.057 360.291 192.698 360.423 192.421 360.687C192.147 360.947 192.011 361.29 192.011 361.717C192.011 362.133 192.147 362.469 192.421 362.723C192.698 362.977 193.059 363.104 193.505 363.104C193.944 363.104 194.302 362.977 194.579 362.723C194.859 362.465 194.999 362.13 194.999 361.717Z" fill="#A0A0A0"/>
<path d="M195.043 389.709C194.835 390.015 194.576 390.253 194.267 390.422C193.957 390.588 193.622 390.671 193.261 390.671C192.857 390.671 192.501 390.567 192.191 390.358C191.882 390.15 191.643 389.862 191.474 389.494C191.304 389.126 191.22 388.724 191.22 388.288C191.22 387.819 191.309 387.393 191.488 387.009C191.671 386.625 191.923 386.327 192.245 386.115C192.571 385.9 192.945 385.793 193.368 385.793C194.081 385.793 194.636 386.044 195.033 386.545C195.43 387.043 195.629 387.751 195.629 388.669V389.196C195.629 390.479 195.355 391.442 194.809 392.087C194.262 392.731 193.427 393.054 192.304 393.054H192.196L192.201 392.546H192.406C193.256 392.533 193.902 392.292 194.345 391.823C194.787 391.354 195.02 390.65 195.043 389.709ZM193.334 390.168C193.725 390.168 194.075 390.052 194.384 389.821C194.696 389.587 194.918 389.284 195.048 388.913V388.576C195.048 387.854 194.896 387.294 194.594 386.896C194.294 386.496 193.889 386.296 193.378 386.296C192.916 386.296 192.536 386.483 192.24 386.857C191.944 387.229 191.796 387.697 191.796 388.264C191.796 388.807 191.938 389.261 192.221 389.626C192.507 389.987 192.878 390.168 193.334 390.168Z" fill="#A0A0A0"/>
<path d="M191.342 419H190.756V412.594L188.822 413.312V412.765L191.244 411.866H191.342V419ZM198.456 416.036C198.456 417.039 198.272 417.8 197.904 418.321C197.536 418.839 196.994 419.098 196.278 419.098C195.575 419.098 195.036 418.844 194.662 418.336C194.288 417.825 194.096 417.083 194.086 416.109V414.835C194.086 413.836 194.271 413.079 194.643 412.564C195.014 412.05 195.556 411.793 196.269 411.793C196.972 411.793 197.509 412.042 197.88 412.54C198.251 413.035 198.443 413.766 198.456 414.732V416.036ZM197.87 414.762C197.87 413.948 197.737 413.333 197.47 412.916C197.206 412.499 196.806 412.291 196.269 412.291C195.741 412.291 195.344 412.494 195.077 412.901C194.81 413.308 194.674 413.909 194.667 414.703V416.1C194.667 416.91 194.804 417.53 195.077 417.96C195.354 418.39 195.754 418.604 196.278 418.604C196.799 418.604 197.193 418.395 197.46 417.975C197.73 417.555 197.867 416.939 197.87 416.129V414.762Z" fill="#A0A0A0"/>
<path d="M191.342 445H190.756V438.594L188.822 439.312V438.765L191.244 437.866H191.342V445ZM196.889 445H196.303V438.594L194.369 439.312V438.765L196.791 437.866H196.889V445Z" fill="#A0A0A0"/>
<path d="M191.342 470H190.756V463.594L188.822 464.312V463.765L191.244 462.866H191.342V470ZM198.622 470H194.169V469.551L196.605 466.787C197.009 466.322 197.289 465.938 197.445 465.635C197.602 465.332 197.68 465.037 197.68 464.751C197.68 464.302 197.548 463.947 197.284 463.687C197.021 463.423 196.658 463.291 196.195 463.291C195.717 463.291 195.329 463.444 195.033 463.75C194.74 464.056 194.594 464.453 194.594 464.941H194.013C194.013 464.541 194.102 464.176 194.281 463.848C194.464 463.519 194.721 463.262 195.053 463.076C195.388 462.887 195.769 462.793 196.195 462.793C196.846 462.793 197.354 462.964 197.719 463.306C198.087 463.647 198.271 464.113 198.271 464.702C198.271 465.034 198.166 465.397 197.958 465.791C197.753 466.185 197.39 466.676 196.869 467.266L194.887 469.507H198.622V470Z" fill="#A0A0A0"/>
<path d="M291.332 163V155.891H293.432C294.193 155.891 294.771 156.049 295.165 156.364C295.559 156.677 295.756 157.139 295.756 157.751C295.756 158.119 295.655 158.439 295.453 158.713C295.255 158.983 294.981 159.177 294.633 159.294C295.046 159.385 295.378 159.589 295.629 159.904C295.883 160.22 296.01 160.585 296.01 160.998C296.01 161.626 295.806 162.118 295.399 162.473C294.996 162.824 294.433 163 293.71 163H291.332ZM291.933 159.582V162.492H293.734C294.249 162.492 294.656 162.362 294.955 162.102C295.258 161.838 295.409 161.473 295.409 161.008C295.409 160.568 295.264 160.222 294.975 159.968C294.688 159.711 294.291 159.582 293.783 159.582H291.933ZM291.933 159.079H293.573C294.075 159.069 294.462 158.952 294.735 158.728C295.012 158.5 295.15 158.169 295.15 157.736C295.15 157.281 295.007 156.945 294.721 156.73C294.438 156.512 294.008 156.403 293.432 156.403H291.933V159.079Z" fill="#A0A0A0"/>
<path d="M349.186 160.783C349.104 161.532 348.836 162.105 348.38 162.502C347.927 162.899 347.324 163.098 346.568 163.098C346.041 163.098 345.574 162.966 345.167 162.702C344.763 162.438 344.451 162.066 344.229 161.584C344.008 161.099 343.896 160.546 343.893 159.924V159.001C343.893 158.369 344.003 157.81 344.225 157.321C344.446 156.833 344.763 156.457 345.177 156.193C345.593 155.926 346.072 155.793 346.612 155.793C347.374 155.793 347.975 156 348.414 156.413C348.857 156.823 349.114 157.391 349.186 158.117H348.58C348.43 156.91 347.774 156.306 346.612 156.306C345.968 156.306 345.453 156.547 345.069 157.028C344.688 157.51 344.498 158.176 344.498 159.025V159.895C344.498 160.715 344.684 161.369 345.055 161.857C345.429 162.346 345.934 162.59 346.568 162.59C347.197 162.59 347.67 162.44 347.989 162.141C348.308 161.838 348.505 161.385 348.58 160.783H349.186Z" fill="#A0A0A0"/>
<path d="M400.122 163V155.891H402.109C402.692 155.891 403.215 156.024 403.677 156.291C404.139 156.555 404.499 156.934 404.756 157.429C405.016 157.924 405.146 158.487 405.146 159.118V159.772C405.146 160.407 405.018 160.97 404.761 161.462C404.504 161.953 404.141 162.333 403.672 162.6C403.206 162.867 402.671 163 402.065 163H400.122ZM400.723 156.403V162.492H402.07C402.819 162.492 403.42 162.245 403.872 161.75C404.325 161.252 404.551 160.58 404.551 159.733V159.108C404.551 158.291 404.328 157.637 403.882 157.146C403.436 156.654 402.848 156.407 402.119 156.403H400.723Z" fill="#A0A0A0"/>
<path d="M459.478 159.592H456.152V162.492H459.976V163H455.552V155.891H459.951V156.403H456.152V159.084H459.478V159.592Z" fill="#A0A0A0"/>
<path d="M513.502 159.68H510.187V163H509.586V155.891H513.99V156.403H510.187V159.167H513.502V159.68Z" fill="#A0A0A0"/>
<path d="M568.112 162.155C567.904 162.451 567.577 162.683 567.131 162.849C566.688 163.015 566.192 163.098 565.642 163.098C565.085 163.098 564.59 162.964 564.157 162.697C563.724 162.43 563.389 162.053 563.151 161.564C562.914 161.076 562.793 160.516 562.79 159.885V158.986C562.79 158 563.039 157.222 563.537 156.652C564.035 156.079 564.704 155.793 565.544 155.793C566.276 155.793 566.866 155.98 567.312 156.354C567.757 156.726 568.023 157.238 568.107 157.893H567.507C567.419 157.372 567.206 156.978 566.867 156.711C566.532 156.441 566.092 156.306 565.549 156.306C564.885 156.306 564.359 156.542 563.972 157.014C563.584 157.486 563.391 158.151 563.391 159.011V159.851C563.391 160.391 563.482 160.869 563.664 161.286C563.85 161.7 564.113 162.02 564.455 162.248C564.8 162.476 565.196 162.59 565.642 162.59C566.159 162.59 566.604 162.508 566.975 162.346C567.215 162.238 567.395 162.113 567.512 161.97V160.134H565.603V159.626H568.112V162.155Z" fill="#A0A0A0"/>
<rect x="127" y="94" width="709" height="28" rx="13" fill="#7FD27D"/>
<rect x="127" y="109" width="709" height="13" fill="#7FD27D"/>
<circle cx="142.5" cy="108.5" r="3.5" fill="#006528"/>
<circle cx="152.5" cy="108.5" r="3.5" fill="#006528"/>
<circle cx="162.5" cy="108.5" r="3.5" fill="#006528"/>
<path d="M224.777 186H224.309V181.773H224.777V186ZM224.227 180.551C224.227 180.462 224.255 180.388 224.312 180.328C224.37 180.266 224.448 180.234 224.547 180.234C224.646 180.234 224.724 180.266 224.781 180.328C224.841 180.388 224.871 180.462 224.871 180.551C224.871 180.639 224.841 180.714 224.781 180.773C224.724 180.833 224.646 180.863 224.547 180.863C224.448 180.863 224.37 180.833 224.312 180.773C224.255 180.714 224.227 180.639 224.227 180.551ZM226.496 181.773L226.512 182.496C226.671 182.236 226.868 182.038 227.105 181.902C227.342 181.764 227.604 181.695 227.891 181.695C228.344 181.695 228.681 181.823 228.902 182.078C229.124 182.333 229.236 182.716 229.238 183.227V186H228.773V183.223C228.771 182.845 228.69 182.564 228.531 182.379C228.375 182.194 228.124 182.102 227.777 182.102C227.488 182.102 227.232 182.193 227.008 182.375C226.786 182.555 226.622 182.798 226.516 183.105V186H226.051V181.773H226.496ZM231.766 185.355L233.051 181.773H233.531L231.953 186H231.574L229.988 181.773H230.469L231.766 185.355ZM233.98 183.824C233.98 183.418 234.059 183.052 234.215 182.727C234.374 182.401 234.596 182.148 234.883 181.969C235.172 181.786 235.499 181.695 235.863 181.695C236.426 181.695 236.882 181.893 237.23 182.289C237.579 182.682 237.754 183.204 237.754 183.855V183.953C237.754 184.362 237.674 184.73 237.516 185.059C237.359 185.384 237.138 185.635 236.852 185.812C236.565 185.99 236.238 186.078 235.871 186.078C235.311 186.078 234.855 185.882 234.504 185.488C234.155 185.092 233.98 184.569 233.98 183.918V183.824ZM234.449 183.953C234.449 184.458 234.579 184.874 234.84 185.199C235.103 185.522 235.447 185.684 235.871 185.684C236.293 185.684 236.634 185.522 236.895 185.199C237.158 184.874 237.289 184.445 237.289 183.914V183.824C237.289 183.501 237.229 183.206 237.109 182.938C236.99 182.669 236.822 182.462 236.605 182.316C236.389 182.168 236.142 182.094 235.863 182.094C235.447 182.094 235.107 182.258 234.844 182.586C234.581 182.911 234.449 183.339 234.449 183.867V183.953ZM239.246 186H238.777V181.773H239.246V186ZM238.695 180.551C238.695 180.462 238.724 180.388 238.781 180.328C238.839 180.266 238.917 180.234 239.016 180.234C239.115 180.234 239.193 180.266 239.25 180.328C239.31 180.388 239.34 180.462 239.34 180.551C239.34 180.639 239.31 180.714 239.25 180.773C239.193 180.833 239.115 180.863 239.016 180.863C238.917 180.863 238.839 180.833 238.781 180.773C238.724 180.714 238.695 180.639 238.695 180.551ZM242.082 185.684C242.408 185.684 242.68 185.592 242.898 185.41C243.12 185.225 243.24 184.987 243.258 184.695H243.707C243.694 184.953 243.613 185.189 243.465 185.402C243.316 185.613 243.118 185.779 242.871 185.898C242.626 186.018 242.363 186.078 242.082 186.078C241.527 186.078 241.087 185.885 240.762 185.5C240.439 185.115 240.277 184.596 240.277 183.945V183.805C240.277 183.388 240.35 183.02 240.496 182.699C240.642 182.379 240.85 182.132 241.121 181.957C241.395 181.783 241.714 181.695 242.078 181.695C242.542 181.695 242.923 181.833 243.223 182.109C243.525 182.385 243.686 182.749 243.707 183.199H243.258C243.237 182.868 243.117 182.602 242.898 182.398C242.682 182.195 242.409 182.094 242.078 182.094C241.656 182.094 241.328 182.246 241.094 182.551C240.862 182.855 240.746 183.283 240.746 183.832V183.969C240.746 184.508 240.862 184.928 241.094 185.23C241.328 185.533 241.658 185.684 242.082 185.684ZM246.281 186.078C245.922 186.078 245.596 185.99 245.305 185.812C245.016 185.635 244.79 185.389 244.629 185.074C244.467 184.757 244.387 184.401 244.387 184.008V183.84C244.387 183.434 244.465 183.068 244.621 182.742C244.78 182.417 245 182.161 245.281 181.977C245.562 181.789 245.867 181.695 246.195 181.695C246.708 181.695 247.115 181.871 247.414 182.223C247.716 182.572 247.867 183.049 247.867 183.656V183.918H244.852V184.008C244.852 184.487 244.988 184.887 245.262 185.207C245.538 185.525 245.884 185.684 246.301 185.684C246.551 185.684 246.771 185.638 246.961 185.547C247.154 185.456 247.328 185.31 247.484 185.109L247.777 185.332C247.434 185.829 246.935 186.078 246.281 186.078ZM246.195 182.094C245.844 182.094 245.547 182.223 245.305 182.48C245.065 182.738 244.919 183.085 244.867 183.52H247.402V183.469C247.389 183.062 247.273 182.732 247.055 182.477C246.836 182.221 246.549 182.094 246.195 182.094ZM251.246 186H250.777V181.773H251.246V186ZM250.695 180.551C250.695 180.462 250.724 180.388 250.781 180.328C250.839 180.266 250.917 180.234 251.016 180.234C251.115 180.234 251.193 180.266 251.25 180.328C251.31 180.388 251.34 180.462 251.34 180.551C251.34 180.639 251.31 180.714 251.25 180.773C251.193 180.833 251.115 180.863 251.016 180.863C250.917 180.863 250.839 180.833 250.781 180.773C250.724 180.714 250.695 180.639 250.695 180.551ZM252.332 183.848C252.332 183.191 252.478 182.669 252.77 182.281C253.064 181.891 253.462 181.695 253.965 181.695C254.535 181.695 254.97 181.921 255.27 182.371V180H255.734V186H255.297L255.277 185.438C254.978 185.865 254.538 186.078 253.957 186.078C253.47 186.078 253.077 185.883 252.777 185.492C252.48 185.099 252.332 184.569 252.332 183.902V183.848ZM252.805 183.93C252.805 184.469 252.913 184.895 253.129 185.207C253.345 185.517 253.65 185.672 254.043 185.672C254.618 185.672 255.027 185.418 255.27 184.91V182.926C255.027 182.376 254.621 182.102 254.051 182.102C253.658 182.102 253.352 182.257 253.133 182.566C252.914 182.874 252.805 183.328 252.805 183.93Z" fill="#7A7A7A"/>
<path d="M222.766 211H222.285V205.312H222.766V211ZM228.547 211H228.066L224.797 206.133V211H224.312V205.312H224.797L228.07 210.184V205.312H228.547V211ZM231.707 210.297L231.738 210.418L231.773 210.297L233.562 205.312H234.09L231.973 211H231.512L229.395 205.312H229.918L231.707 210.297ZM236.125 208.688H234.254V208.293H236.125V208.688ZM240.316 208.629C240.316 209.431 240.169 210.04 239.875 210.457C239.581 210.871 239.147 211.078 238.574 211.078C238.012 211.078 237.581 210.875 237.281 210.469C236.982 210.06 236.828 209.466 236.82 208.688V207.668C236.82 206.868 236.969 206.263 237.266 205.852C237.562 205.44 237.996 205.234 238.566 205.234C239.129 205.234 239.559 205.434 239.855 205.832C240.152 206.228 240.306 206.812 240.316 207.586V208.629ZM239.848 207.609C239.848 206.958 239.741 206.466 239.527 206.133C239.316 205.799 238.996 205.633 238.566 205.633C238.145 205.633 237.827 205.796 237.613 206.121C237.4 206.447 237.29 206.927 237.285 207.562V208.68C237.285 209.328 237.395 209.824 237.613 210.168C237.835 210.512 238.155 210.684 238.574 210.684C238.991 210.684 239.306 210.516 239.52 210.18C239.736 209.844 239.845 209.352 239.848 208.703V207.609ZM244.754 208.629C244.754 209.431 244.607 210.04 244.312 210.457C244.018 210.871 243.585 211.078 243.012 211.078C242.449 211.078 242.018 210.875 241.719 210.469C241.419 210.06 241.266 209.466 241.258 208.688V207.668C241.258 206.868 241.406 206.263 241.703 205.852C242 205.44 242.434 205.234 243.004 205.234C243.566 205.234 243.996 205.434 244.293 205.832C244.59 206.228 244.743 206.812 244.754 207.586V208.629ZM244.285 207.609C244.285 206.958 244.178 206.466 243.965 206.133C243.754 205.799 243.434 205.633 243.004 205.633C242.582 205.633 242.264 205.796 242.051 206.121C241.837 206.447 241.728 206.927 241.723 207.562V208.68C241.723 209.328 241.832 209.824 242.051 210.168C242.272 210.512 242.592 210.684 243.012 210.684C243.428 210.684 243.743 210.516 243.957 210.18C244.173 209.844 244.283 209.352 244.285 208.703V207.609ZM249.191 208.629C249.191 209.431 249.044 210.04 248.75 210.457C248.456 210.871 248.022 211.078 247.449 211.078C246.887 211.078 246.456 210.875 246.156 210.469C245.857 210.06 245.703 209.466 245.695 208.688V207.668C245.695 206.868 245.844 206.263 246.141 205.852C246.438 205.44 246.871 205.234 247.441 205.234C248.004 205.234 248.434 205.434 248.73 205.832C249.027 206.228 249.181 206.812 249.191 207.586V208.629ZM248.723 207.609C248.723 206.958 248.616 206.466 248.402 206.133C248.191 205.799 247.871 205.633 247.441 205.633C247.02 205.633 246.702 205.796 246.488 206.121C246.275 206.447 246.165 206.927 246.16 207.562V208.68C246.16 209.328 246.27 209.824 246.488 210.168C246.71 210.512 247.03 210.684 247.449 210.684C247.866 210.684 248.181 210.516 248.395 210.18C248.611 209.844 248.72 209.352 248.723 208.703V207.609ZM253.629 208.629C253.629 209.431 253.482 210.04 253.188 210.457C252.893 210.871 252.46 211.078 251.887 211.078C251.324 211.078 250.893 210.875 250.594 210.469C250.294 210.06 250.141 209.466 250.133 208.688V207.668C250.133 206.868 250.281 206.263 250.578 205.852C250.875 205.44 251.309 205.234 251.879 205.234C252.441 205.234 252.871 205.434 253.168 205.832C253.465 206.228 253.618 206.812 253.629 207.586V208.629ZM253.16 207.609C253.16 206.958 253.053 206.466 252.84 206.133C252.629 205.799 252.309 205.633 251.879 205.633C251.457 205.633 251.139 205.796 250.926 206.121C250.712 206.447 250.603 206.927 250.598 207.562V208.68C250.598 209.328 250.707 209.824 250.926 210.168C251.147 210.512 251.467 210.684 251.887 210.684C252.303 210.684 252.618 210.516 252.832 210.18C253.048 209.844 253.158 209.352 253.16 208.703V207.609ZM256.812 211H256.344V205.875L254.797 206.449V206.012L256.734 205.293H256.812V211Z" fill="#7A7A7A"/>
<path d="M222.766 237H222.285V231.312H222.766V237ZM228.547 237H228.066L224.797 232.133V237H224.312V231.312H224.797L228.07 236.184V231.312H228.547V237ZM231.707 236.297L231.738 236.418L231.773 236.297L233.562 231.312H234.09L231.973 237H231.512L229.395 231.312H229.918L231.707 236.297ZM236.125 234.688H234.254V234.293H236.125V234.688ZM240.316 234.629C240.316 235.431 240.169 236.04 239.875 236.457C239.581 236.871 239.147 237.078 238.574 237.078C238.012 237.078 237.581 236.875 237.281 236.469C236.982 236.06 236.828 235.466 236.82 234.688V233.668C236.82 232.868 236.969 232.263 237.266 231.852C237.562 231.44 237.996 231.234 238.566 231.234C239.129 231.234 239.559 231.434 239.855 231.832C240.152 232.228 240.306 232.812 240.316 233.586V234.629ZM239.848 233.609C239.848 232.958 239.741 232.466 239.527 232.133C239.316 231.799 238.996 231.633 238.566 231.633C238.145 231.633 237.827 231.796 237.613 232.121C237.4 232.447 237.29 232.927 237.285 233.562V234.68C237.285 235.328 237.395 235.824 237.613 236.168C237.835 236.512 238.155 236.684 238.574 236.684C238.991 236.684 239.306 236.516 239.52 236.18C239.736 235.844 239.845 235.352 239.848 234.703V233.609ZM244.754 234.629C244.754 235.431 244.607 236.04 244.312 236.457C244.018 236.871 243.585 237.078 243.012 237.078C242.449 237.078 242.018 236.875 241.719 236.469C241.419 236.06 241.266 235.466 241.258 234.688V233.668C241.258 232.868 241.406 232.263 241.703 231.852C242 231.44 242.434 231.234 243.004 231.234C243.566 231.234 243.996 231.434 244.293 231.832C244.59 232.228 244.743 232.812 244.754 233.586V234.629ZM244.285 233.609C244.285 232.958 244.178 232.466 243.965 232.133C243.754 231.799 243.434 231.633 243.004 231.633C242.582 231.633 242.264 231.796 242.051 232.121C241.837 232.447 241.728 232.927 241.723 233.562V234.68C241.723 235.328 241.832 235.824 242.051 236.168C242.272 236.512 242.592 236.684 243.012 236.684C243.428 236.684 243.743 236.516 243.957 236.18C244.173 235.844 244.283 235.352 244.285 234.703V233.609ZM249.191 234.629C249.191 235.431 249.044 236.04 248.75 236.457C248.456 236.871 248.022 237.078 247.449 237.078C246.887 237.078 246.456 236.875 246.156 236.469C245.857 236.06 245.703 235.466 245.695 234.688V233.668C245.695 232.868 245.844 232.263 246.141 231.852C246.438 231.44 246.871 231.234 247.441 231.234C248.004 231.234 248.434 231.434 248.73 231.832C249.027 232.228 249.181 232.812 249.191 233.586V234.629ZM248.723 233.609C248.723 232.958 248.616 232.466 248.402 232.133C248.191 231.799 247.871 231.633 247.441 231.633C247.02 231.633 246.702 231.796 246.488 232.121C246.275 232.447 246.165 232.927 246.16 233.562V234.68C246.16 235.328 246.27 235.824 246.488 236.168C246.71 236.512 247.03 236.684 247.449 236.684C247.866 236.684 248.181 236.516 248.395 236.18C248.611 235.844 248.72 235.352 248.723 234.703V233.609ZM253.629 234.629C253.629 235.431 253.482 236.04 253.188 236.457C252.893 236.871 252.46 237.078 251.887 237.078C251.324 237.078 250.893 236.875 250.594 236.469C250.294 236.06 250.141 235.466 250.133 234.688V233.668C250.133 232.868 250.281 232.263 250.578 231.852C250.875 231.44 251.309 231.234 251.879 231.234C252.441 231.234 252.871 231.434 253.168 231.832C253.465 232.228 253.618 232.812 253.629 233.586V234.629ZM253.16 233.609C253.16 232.958 253.053 232.466 252.84 232.133C252.629 231.799 252.309 231.633 251.879 231.633C251.457 231.633 251.139 231.796 250.926 232.121C250.712 232.447 250.603 232.927 250.598 233.562V234.68C250.598 235.328 250.707 235.824 250.926 236.168C251.147 236.512 251.467 236.684 251.887 236.684C252.303 236.684 252.618 236.516 252.832 236.18C253.048 235.844 253.158 235.352 253.16 234.703V233.609ZM258.199 237H254.637V236.641L256.586 234.43C256.909 234.057 257.133 233.75 257.258 233.508C257.383 233.266 257.445 233.03 257.445 232.801C257.445 232.441 257.34 232.158 257.129 231.949C256.918 231.738 256.628 231.633 256.258 231.633C255.875 231.633 255.565 231.755 255.328 232C255.094 232.245 254.977 232.562 254.977 232.953H254.512C254.512 232.633 254.583 232.341 254.727 232.078C254.872 231.815 255.078 231.609 255.344 231.461C255.612 231.31 255.917 231.234 256.258 231.234C256.779 231.234 257.185 231.371 257.477 231.645C257.771 231.918 257.918 232.29 257.918 232.762C257.918 233.027 257.835 233.318 257.668 233.633C257.504 233.948 257.214 234.341 256.797 234.812L255.211 236.605H258.199V237Z" fill="#7A7A7A"/>
<path d="M222.766 262H222.285V256.312H222.766V262ZM228.547 262H228.066L224.797 257.133V262H224.312V256.312H224.797L228.07 261.184V256.312H228.547V262ZM231.707 261.297L231.738 261.418L231.773 261.297L233.562 256.312H234.09L231.973 262H231.512L229.395 256.312H229.918L231.707 261.297ZM236.125 259.688H234.254V259.293H236.125V259.688ZM240.316 259.629C240.316 260.431 240.169 261.04 239.875 261.457C239.581 261.871 239.147 262.078 238.574 262.078C238.012 262.078 237.581 261.875 237.281 261.469C236.982 261.06 236.828 260.466 236.82 259.688V258.668C236.82 257.868 236.969 257.263 237.266 256.852C237.562 256.44 237.996 256.234 238.566 256.234C239.129 256.234 239.559 256.434 239.855 256.832C240.152 257.228 240.306 257.812 240.316 258.586V259.629ZM239.848 258.609C239.848 257.958 239.741 257.466 239.527 257.133C239.316 256.799 238.996 256.633 238.566 256.633C238.145 256.633 237.827 256.796 237.613 257.121C237.4 257.447 237.29 257.927 237.285 258.562V259.68C237.285 260.328 237.395 260.824 237.613 261.168C237.835 261.512 238.155 261.684 238.574 261.684C238.991 261.684 239.306 261.516 239.52 261.18C239.736 260.844 239.845 260.352 239.848 259.703V258.609ZM244.754 259.629C244.754 260.431 244.607 261.04 244.312 261.457C244.018 261.871 243.585 262.078 243.012 262.078C242.449 262.078 242.018 261.875 241.719 261.469C241.419 261.06 241.266 260.466 241.258 259.688V258.668C241.258 257.868 241.406 257.263 241.703 256.852C242 256.44 242.434 256.234 243.004 256.234C243.566 256.234 243.996 256.434 244.293 256.832C244.59 257.228 244.743 257.812 244.754 258.586V259.629ZM244.285 258.609C244.285 257.958 244.178 257.466 243.965 257.133C243.754 256.799 243.434 256.633 243.004 256.633C242.582 256.633 242.264 256.796 242.051 257.121C241.837 257.447 241.728 257.927 241.723 258.562V259.68C241.723 260.328 241.832 260.824 242.051 261.168C242.272 261.512 242.592 261.684 243.012 261.684C243.428 261.684 243.743 261.516 243.957 261.18C244.173 260.844 244.283 260.352 244.285 259.703V258.609ZM249.191 259.629C249.191 260.431 249.044 261.04 248.75 261.457C248.456 261.871 248.022 262.078 247.449 262.078C246.887 262.078 246.456 261.875 246.156 261.469C245.857 261.06 245.703 260.466 245.695 259.688V258.668C245.695 257.868 245.844 257.263 246.141 256.852C246.438 256.44 246.871 256.234 247.441 256.234C248.004 256.234 248.434 256.434 248.73 256.832C249.027 257.228 249.181 257.812 249.191 258.586V259.629ZM248.723 258.609C248.723 257.958 248.616 257.466 248.402 257.133C248.191 256.799 247.871 256.633 247.441 256.633C247.02 256.633 246.702 256.796 246.488 257.121C246.275 257.447 246.165 257.927 246.16 258.562V259.68C246.16 260.328 246.27 260.824 246.488 261.168C246.71 261.512 247.03 261.684 247.449 261.684C247.866 261.684 248.181 261.516 248.395 261.18C248.611 260.844 248.72 260.352 248.723 259.703V258.609ZM253.629 259.629C253.629 260.431 253.482 261.04 253.188 261.457C252.893 261.871 252.46 262.078 251.887 262.078C251.324 262.078 250.893 261.875 250.594 261.469C250.294 261.06 250.141 260.466 250.133 259.688V258.668C250.133 257.868 250.281 257.263 250.578 256.852C250.875 256.44 251.309 256.234 251.879 256.234C252.441 256.234 252.871 256.434 253.168 256.832C253.465 257.228 253.618 257.812 253.629 258.586V259.629ZM253.16 258.609C253.16 257.958 253.053 257.466 252.84 257.133C252.629 256.799 252.309 256.633 251.879 256.633C251.457 256.633 251.139 256.796 250.926 257.121C250.712 257.447 250.603 257.927 250.598 258.562V259.68C250.598 260.328 250.707 260.824 250.926 261.168C251.147 261.512 251.467 261.684 251.887 261.684C252.303 261.684 252.618 261.516 252.832 261.18C253.048 260.844 253.158 260.352 253.16 259.703V258.609ZM255.676 258.902H256.16C256.428 258.902 256.663 258.855 256.863 258.762C257.064 258.665 257.216 258.535 257.32 258.371C257.427 258.204 257.48 258.013 257.48 257.797C257.48 257.432 257.378 257.147 257.172 256.941C256.966 256.736 256.671 256.633 256.285 256.633C255.921 256.633 255.621 256.741 255.387 256.957C255.155 257.171 255.039 257.453 255.039 257.805H254.57C254.57 257.51 254.645 257.242 254.793 257C254.941 256.755 255.147 256.566 255.41 256.434C255.673 256.301 255.965 256.234 256.285 256.234C256.801 256.234 257.207 256.375 257.504 256.656C257.801 256.938 257.949 257.323 257.949 257.812C257.949 258.086 257.862 258.339 257.688 258.57C257.516 258.799 257.279 258.971 256.977 259.086C257.331 259.185 257.599 259.355 257.781 259.598C257.964 259.837 258.055 260.124 258.055 260.457C258.055 260.944 257.896 261.336 257.578 261.633C257.26 261.93 256.836 262.078 256.305 262.078C255.966 262.078 255.655 262.01 255.371 261.875C255.09 261.74 254.871 261.551 254.715 261.309C254.561 261.064 254.484 260.78 254.484 260.457H254.953C254.953 260.819 255.079 261.115 255.332 261.344C255.585 261.57 255.909 261.684 256.305 261.684C256.708 261.684 257.022 261.581 257.246 261.375C257.473 261.167 257.586 260.866 257.586 260.473C257.586 260.092 257.464 259.802 257.219 259.602C256.977 259.401 256.618 259.301 256.145 259.301H255.676V258.902Z" fill="#7A7A7A"/>
<path d="M222.766 288H222.285V282.312H222.766V288ZM228.547 288H228.066L224.797 283.133V288H224.312V282.312H224.797L228.07 287.184V282.312H228.547V288ZM231.707 287.297L231.738 287.418L231.773 287.297L233.562 282.312H234.09L231.973 288H231.512L229.395 282.312H229.918L231.707 287.297ZM236.125 285.688H234.254V285.293H236.125V285.688ZM240.316 285.629C240.316 286.431 240.169 287.04 239.875 287.457C239.581 287.871 239.147 288.078 238.574 288.078C238.012 288.078 237.581 287.875 237.281 287.469C236.982 287.06 236.828 286.466 236.82 285.688V284.668C236.82 283.868 236.969 283.263 237.266 282.852C237.562 282.44 237.996 282.234 238.566 282.234C239.129 282.234 239.559 282.434 239.855 282.832C240.152 283.228 240.306 283.812 240.316 284.586V285.629ZM239.848 284.609C239.848 283.958 239.741 283.466 239.527 283.133C239.316 282.799 238.996 282.633 238.566 282.633C238.145 282.633 237.827 282.796 237.613 283.121C237.4 283.447 237.29 283.927 237.285 284.562V285.68C237.285 286.328 237.395 286.824 237.613 287.168C237.835 287.512 238.155 287.684 238.574 287.684C238.991 287.684 239.306 287.516 239.52 287.18C239.736 286.844 239.845 286.352 239.848 285.703V284.609ZM244.754 285.629C244.754 286.431 244.607 287.04 244.312 287.457C244.018 287.871 243.585 288.078 243.012 288.078C242.449 288.078 242.018 287.875 241.719 287.469C241.419 287.06 241.266 286.466 241.258 285.688V284.668C241.258 283.868 241.406 283.263 241.703 282.852C242 282.44 242.434 282.234 243.004 282.234C243.566 282.234 243.996 282.434 244.293 282.832C244.59 283.228 244.743 283.812 244.754 284.586V285.629ZM244.285 284.609C244.285 283.958 244.178 283.466 243.965 283.133C243.754 282.799 243.434 282.633 243.004 282.633C242.582 282.633 242.264 282.796 242.051 283.121C241.837 283.447 241.728 283.927 241.723 284.562V285.68C241.723 286.328 241.832 286.824 242.051 287.168C242.272 287.512 242.592 287.684 243.012 287.684C243.428 287.684 243.743 287.516 243.957 287.18C244.173 286.844 244.283 286.352 244.285 285.703V284.609ZM249.191 285.629C249.191 286.431 249.044 287.04 248.75 287.457C248.456 287.871 248.022 288.078 247.449 288.078C246.887 288.078 246.456 287.875 246.156 287.469C245.857 287.06 245.703 286.466 245.695 285.688V284.668C245.695 283.868 245.844 283.263 246.141 282.852C246.438 282.44 246.871 282.234 247.441 282.234C248.004 282.234 248.434 282.434 248.73 282.832C249.027 283.228 249.181 283.812 249.191 284.586V285.629ZM248.723 284.609C248.723 283.958 248.616 283.466 248.402 283.133C248.191 282.799 247.871 282.633 247.441 282.633C247.02 282.633 246.702 282.796 246.488 283.121C246.275 283.447 246.165 283.927 246.16 284.562V285.68C246.16 286.328 246.27 286.824 246.488 287.168C246.71 287.512 247.03 287.684 247.449 287.684C247.866 287.684 248.181 287.516 248.395 287.18C248.611 286.844 248.72 286.352 248.723 285.703V284.609ZM253.629 285.629C253.629 286.431 253.482 287.04 253.188 287.457C252.893 287.871 252.46 288.078 251.887 288.078C251.324 288.078 250.893 287.875 250.594 287.469C250.294 287.06 250.141 286.466 250.133 285.688V284.668C250.133 283.868 250.281 283.263 250.578 282.852C250.875 282.44 251.309 282.234 251.879 282.234C252.441 282.234 252.871 282.434 253.168 282.832C253.465 283.228 253.618 283.812 253.629 284.586V285.629ZM253.16 284.609C253.16 283.958 253.053 283.466 252.84 283.133C252.629 282.799 252.309 282.633 251.879 282.633C251.457 282.633 251.139 282.796 250.926 283.121C250.712 283.447 250.603 283.927 250.598 284.562V285.68C250.598 286.328 250.707 286.824 250.926 287.168C251.147 287.512 251.467 287.684 251.887 287.684C252.303 287.684 252.618 287.516 252.832 287.18C253.048 286.844 253.158 286.352 253.16 285.703V284.609ZM257.508 286.168H258.395V286.562H257.508V288H257.039V286.562H254.363V286.297L256.996 282.312H257.508V286.168ZM254.938 286.168H257.039V282.918L256.832 283.277L254.938 286.168Z" fill="#7A7A7A"/>
<path d="M222.766 314H222.285V308.312H222.766V314ZM228.547 314H228.066L224.797 309.133V314H224.312V308.312H224.797L228.07 313.184V308.312H228.547V314ZM231.707 313.297L231.738 313.418L231.773 313.297L233.562 308.312H234.09L231.973 314H231.512L229.395 308.312H229.918L231.707 313.297ZM236.125 311.688H234.254V311.293H236.125V311.688ZM240.316 311.629C240.316 312.431 240.169 313.04 239.875 313.457C239.581 313.871 239.147 314.078 238.574 314.078C238.012 314.078 237.581 313.875 237.281 313.469C236.982 313.06 236.828 312.466 236.82 311.688V310.668C236.82 309.868 236.969 309.263 237.266 308.852C237.562 308.44 237.996 308.234 238.566 308.234C239.129 308.234 239.559 308.434 239.855 308.832C240.152 309.228 240.306 309.812 240.316 310.586V311.629ZM239.848 310.609C239.848 309.958 239.741 309.466 239.527 309.133C239.316 308.799 238.996 308.633 238.566 308.633C238.145 308.633 237.827 308.796 237.613 309.121C237.4 309.447 237.29 309.927 237.285 310.562V311.68C237.285 312.328 237.395 312.824 237.613 313.168C237.835 313.512 238.155 313.684 238.574 313.684C238.991 313.684 239.306 313.516 239.52 313.18C239.736 312.844 239.845 312.352 239.848 311.703V310.609ZM244.754 311.629C244.754 312.431 244.607 313.04 244.312 313.457C244.018 313.871 243.585 314.078 243.012 314.078C242.449 314.078 242.018 313.875 241.719 313.469C241.419 313.06 241.266 312.466 241.258 311.688V310.668C241.258 309.868 241.406 309.263 241.703 308.852C242 308.44 242.434 308.234 243.004 308.234C243.566 308.234 243.996 308.434 244.293 308.832C244.59 309.228 244.743 309.812 244.754 310.586V311.629ZM244.285 310.609C244.285 309.958 244.178 309.466 243.965 309.133C243.754 308.799 243.434 308.633 243.004 308.633C242.582 308.633 242.264 308.796 242.051 309.121C241.837 309.447 241.728 309.927 241.723 310.562V311.68C241.723 312.328 241.832 312.824 242.051 313.168C242.272 313.512 242.592 313.684 243.012 313.684C243.428 313.684 243.743 313.516 243.957 313.18C244.173 312.844 244.283 312.352 244.285 311.703V310.609ZM249.191 311.629C249.191 312.431 249.044 313.04 248.75 313.457C248.456 313.871 248.022 314.078 247.449 314.078C246.887 314.078 246.456 313.875 246.156 313.469C245.857 313.06 245.703 312.466 245.695 311.688V310.668C245.695 309.868 245.844 309.263 246.141 308.852C246.438 308.44 246.871 308.234 247.441 308.234C248.004 308.234 248.434 308.434 248.73 308.832C249.027 309.228 249.181 309.812 249.191 310.586V311.629ZM248.723 310.609C248.723 309.958 248.616 309.466 248.402 309.133C248.191 308.799 247.871 308.633 247.441 308.633C247.02 308.633 246.702 308.796 246.488 309.121C246.275 309.447 246.165 309.927 246.16 310.562V311.68C246.16 312.328 246.27 312.824 246.488 313.168C246.71 313.512 247.03 313.684 247.449 313.684C247.866 313.684 248.181 313.516 248.395 313.18C248.611 312.844 248.72 312.352 248.723 311.703V310.609ZM253.629 311.629C253.629 312.431 253.482 313.04 253.188 313.457C252.893 313.871 252.46 314.078 251.887 314.078C251.324 314.078 250.893 313.875 250.594 313.469C250.294 313.06 250.141 312.466 250.133 311.688V310.668C250.133 309.868 250.281 309.263 250.578 308.852C250.875 308.44 251.309 308.234 251.879 308.234C252.441 308.234 252.871 308.434 253.168 308.832C253.465 309.228 253.618 309.812 253.629 310.586V311.629ZM253.16 310.609C253.16 309.958 253.053 309.466 252.84 309.133C252.629 308.799 252.309 308.633 251.879 308.633C251.457 308.633 251.139 308.796 250.926 309.121C250.712 309.447 250.603 309.927 250.598 310.562V311.68C250.598 312.328 250.707 312.824 250.926 313.168C251.147 313.512 251.467 313.684 251.887 313.684C252.303 313.684 252.618 313.516 252.832 313.18C253.048 312.844 253.158 312.352 253.16 311.703V310.609ZM254.953 311.086L255.23 308.312H258.074V308.746H255.633L255.434 310.668C255.738 310.46 256.095 310.355 256.504 310.355C257.017 310.355 257.426 310.522 257.73 310.855C258.035 311.189 258.188 311.633 258.188 312.188C258.188 312.786 258.039 313.251 257.742 313.582C257.445 313.913 257.027 314.078 256.488 314.078C255.993 314.078 255.592 313.94 255.285 313.664C254.978 313.388 254.802 313.001 254.758 312.504H255.207C255.251 312.892 255.383 313.186 255.602 313.387C255.82 313.585 256.116 313.684 256.488 313.684C256.895 313.684 257.201 313.555 257.406 313.297C257.615 313.039 257.719 312.672 257.719 312.195C257.719 311.779 257.603 311.439 257.371 311.176C257.139 310.913 256.823 310.781 256.422 310.781C256.201 310.781 256.008 310.81 255.844 310.867C255.68 310.922 255.507 311.03 255.324 311.191L254.953 311.086Z" fill="#7A7A7A"/>
<path d="M222.766 341H222.285V335.312H222.766V341ZM228.547 341H228.066L224.797 336.133V341H224.312V335.312H224.797L228.07 340.184V335.312H228.547V341ZM231.707 340.297L231.738 340.418L231.773 340.297L233.562 335.312H234.09L231.973 341H231.512L229.395 335.312H229.918L231.707 340.297ZM236.125 338.688H234.254V338.293H236.125V338.688ZM240.316 338.629C240.316 339.431 240.169 340.04 239.875 340.457C239.581 340.871 239.147 341.078 238.574 341.078C238.012 341.078 237.581 340.875 237.281 340.469C236.982 340.06 236.828 339.466 236.82 338.688V337.668C236.82 336.868 236.969 336.263 237.266 335.852C237.562 335.44 237.996 335.234 238.566 335.234C239.129 335.234 239.559 335.434 239.855 335.832C240.152 336.228 240.306 336.812 240.316 337.586V338.629ZM239.848 337.609C239.848 336.958 239.741 336.466 239.527 336.133C239.316 335.799 238.996 335.633 238.566 335.633C238.145 335.633 237.827 335.796 237.613 336.121C237.4 336.447 237.29 336.927 237.285 337.562V338.68C237.285 339.328 237.395 339.824 237.613 340.168C237.835 340.512 238.155 340.684 238.574 340.684C238.991 340.684 239.306 340.516 239.52 340.18C239.736 339.844 239.845 339.352 239.848 338.703V337.609ZM244.754 338.629C244.754 339.431 244.607 340.04 244.312 340.457C244.018 340.871 243.585 341.078 243.012 341.078C242.449 341.078 242.018 340.875 241.719 340.469C241.419 340.06 241.266 339.466 241.258 338.688V337.668C241.258 336.868 241.406 336.263 241.703 335.852C242 335.44 242.434 335.234 243.004 335.234C243.566 335.234 243.996 335.434 244.293 335.832C244.59 336.228 244.743 336.812 244.754 337.586V338.629ZM244.285 337.609C244.285 336.958 244.178 336.466 243.965 336.133C243.754 335.799 243.434 335.633 243.004 335.633C242.582 335.633 242.264 335.796 242.051 336.121C241.837 336.447 241.728 336.927 241.723 337.562V338.68C241.723 339.328 241.832 339.824 242.051 340.168C242.272 340.512 242.592 340.684 243.012 340.684C243.428 340.684 243.743 340.516 243.957 340.18C244.173 339.844 244.283 339.352 244.285 338.703V337.609ZM249.191 338.629C249.191 339.431 249.044 340.04 248.75 340.457C248.456 340.871 248.022 341.078 247.449 341.078C246.887 341.078 246.456 340.875 246.156 340.469C245.857 340.06 245.703 339.466 245.695 338.688V337.668C245.695 336.868 245.844 336.263 246.141 335.852C246.438 335.44 246.871 335.234 247.441 335.234C248.004 335.234 248.434 335.434 248.73 335.832C249.027 336.228 249.181 336.812 249.191 337.586V338.629ZM248.723 337.609C248.723 336.958 248.616 336.466 248.402 336.133C248.191 335.799 247.871 335.633 247.441 335.633C247.02 335.633 246.702 335.796 246.488 336.121C246.275 336.447 246.165 336.927 246.16 337.562V338.68C246.16 339.328 246.27 339.824 246.488 340.168C246.71 340.512 247.03 340.684 247.449 340.684C247.866 340.684 248.181 340.516 248.395 340.18C248.611 339.844 248.72 339.352 248.723 338.703V337.609ZM253.629 338.629C253.629 339.431 253.482 340.04 253.188 340.457C252.893 340.871 252.46 341.078 251.887 341.078C251.324 341.078 250.893 340.875 250.594 340.469C250.294 340.06 250.141 339.466 250.133 338.688V337.668C250.133 336.868 250.281 336.263 250.578 335.852C250.875 335.44 251.309 335.234 251.879 335.234C252.441 335.234 252.871 335.434 253.168 335.832C253.465 336.228 253.618 336.812 253.629 337.586V338.629ZM253.16 337.609C253.16 336.958 253.053 336.466 252.84 336.133C252.629 335.799 252.309 335.633 251.879 335.633C251.457 335.633 251.139 335.796 250.926 336.121C250.712 336.447 250.603 336.927 250.598 337.562V338.68C250.598 339.328 250.707 339.824 250.926 340.168C251.147 340.512 251.467 340.684 251.887 340.684C252.303 340.684 252.618 340.516 252.832 340.18C253.048 339.844 253.158 339.352 253.16 338.703V337.609ZM257.395 335.27V335.68H257.34C256.66 335.68 256.125 335.88 255.734 336.281C255.344 336.68 255.128 337.234 255.086 337.945C255.242 337.729 255.441 337.562 255.684 337.445C255.926 337.326 256.197 337.266 256.496 337.266C256.996 337.266 257.393 337.439 257.688 337.785C257.984 338.129 258.133 338.579 258.133 339.137C258.133 339.507 258.064 339.84 257.926 340.137C257.788 340.434 257.59 340.665 257.332 340.832C257.074 340.996 256.78 341.078 256.449 341.078C255.905 341.078 255.462 340.882 255.121 340.488C254.78 340.092 254.609 339.582 254.609 338.957V338.488C254.609 337.47 254.841 336.682 255.305 336.125C255.768 335.565 256.426 335.28 257.277 335.27H257.395ZM256.422 337.668C256.125 337.668 255.848 337.757 255.59 337.934C255.335 338.108 255.164 338.331 255.078 338.602V339C255.078 339.495 255.204 339.898 255.457 340.211C255.712 340.523 256.043 340.68 256.449 340.68C256.814 340.68 257.108 340.535 257.332 340.246C257.559 339.957 257.672 339.592 257.672 339.152C257.672 338.704 257.559 338.345 257.332 338.074C257.108 337.803 256.805 337.668 256.422 337.668Z" fill="#7A7A7A"/>
<path d="M222.766 366H222.285V360.312H222.766V366ZM228.547 366H228.066L224.797 361.133V366H224.312V360.312H224.797L228.07 365.184V360.312H228.547V366ZM231.707 365.297L231.738 365.418L231.773 365.297L233.562 360.312H234.09L231.973 366H231.512L229.395 360.312H229.918L231.707 365.297ZM236.125 363.688H234.254V363.293H236.125V363.688ZM240.316 363.629C240.316 364.431 240.169 365.04 239.875 365.457C239.581 365.871 239.147 366.078 238.574 366.078C238.012 366.078 237.581 365.875 237.281 365.469C236.982 365.06 236.828 364.466 236.82 363.688V362.668C236.82 361.868 236.969 361.263 237.266 360.852C237.562 360.44 237.996 360.234 238.566 360.234C239.129 360.234 239.559 360.434 239.855 360.832C240.152 361.228 240.306 361.812 240.316 362.586V363.629ZM239.848 362.609C239.848 361.958 239.741 361.466 239.527 361.133C239.316 360.799 238.996 360.633 238.566 360.633C238.145 360.633 237.827 360.796 237.613 361.121C237.4 361.447 237.29 361.927 237.285 362.562V363.68C237.285 364.328 237.395 364.824 237.613 365.168C237.835 365.512 238.155 365.684 238.574 365.684C238.991 365.684 239.306 365.516 239.52 365.18C239.736 364.844 239.845 364.352 239.848 363.703V362.609ZM244.754 363.629C244.754 364.431 244.607 365.04 244.312 365.457C244.018 365.871 243.585 366.078 243.012 366.078C242.449 366.078 242.018 365.875 241.719 365.469C241.419 365.06 241.266 364.466 241.258 363.688V362.668C241.258 361.868 241.406 361.263 241.703 360.852C242 360.44 242.434 360.234 243.004 360.234C243.566 360.234 243.996 360.434 244.293 360.832C244.59 361.228 244.743 361.812 244.754 362.586V363.629ZM244.285 362.609C244.285 361.958 244.178 361.466 243.965 361.133C243.754 360.799 243.434 360.633 243.004 360.633C242.582 360.633 242.264 360.796 242.051 361.121C241.837 361.447 241.728 361.927 241.723 362.562V363.68C241.723 364.328 241.832 364.824 242.051 365.168C242.272 365.512 242.592 365.684 243.012 365.684C243.428 365.684 243.743 365.516 243.957 365.18C244.173 364.844 244.283 364.352 244.285 363.703V362.609ZM249.191 363.629C249.191 364.431 249.044 365.04 248.75 365.457C248.456 365.871 248.022 366.078 247.449 366.078C246.887 366.078 246.456 365.875 246.156 365.469C245.857 365.06 245.703 364.466 245.695 363.688V362.668C245.695 361.868 245.844 361.263 246.141 360.852C246.438 360.44 246.871 360.234 247.441 360.234C248.004 360.234 248.434 360.434 248.73 360.832C249.027 361.228 249.181 361.812 249.191 362.586V363.629ZM248.723 362.609C248.723 361.958 248.616 361.466 248.402 361.133C248.191 360.799 247.871 360.633 247.441 360.633C247.02 360.633 246.702 360.796 246.488 361.121C246.275 361.447 246.165 361.927 246.16 362.562V363.68C246.16 364.328 246.27 364.824 246.488 365.168C246.71 365.512 247.03 365.684 247.449 365.684C247.866 365.684 248.181 365.516 248.395 365.18C248.611 364.844 248.72 364.352 248.723 363.703V362.609ZM253.629 363.629C253.629 364.431 253.482 365.04 253.188 365.457C252.893 365.871 252.46 366.078 251.887 366.078C251.324 366.078 250.893 365.875 250.594 365.469C250.294 365.06 250.141 364.466 250.133 363.688V362.668C250.133 361.868 250.281 361.263 250.578 360.852C250.875 360.44 251.309 360.234 251.879 360.234C252.441 360.234 252.871 360.434 253.168 360.832C253.465 361.228 253.618 361.812 253.629 362.586V363.629ZM253.16 362.609C253.16 361.958 253.053 361.466 252.84 361.133C252.629 360.799 252.309 360.633 251.879 360.633C251.457 360.633 251.139 360.796 250.926 361.121C250.712 361.447 250.603 361.927 250.598 362.562V363.68C250.598 364.328 250.707 364.824 250.926 365.168C251.147 365.512 251.467 365.684 251.887 365.684C252.303 365.684 252.618 365.516 252.832 365.18C253.048 364.844 253.158 364.352 253.16 363.703V362.609ZM258.141 360.582L255.711 366H255.223L257.637 360.711H254.402V360.312H258.141V360.582Z" fill="#7A7A7A"/>
<g filter="url(#filter1_d)">
<rect x="618" y="147" width="172" height="359" rx="8" fill="white"/>
</g>
<path d="M645.524 248.534C645.378 249.881 644.894 250.913 644.074 251.627C643.26 252.342 642.173 252.7 640.813 252.7C639.864 252.7 639.023 252.462 638.291 251.988C637.564 251.513 637.002 250.842 636.603 249.975C636.205 249.102 636.003 248.106 635.997 246.987V245.326C635.997 244.189 636.196 243.181 636.595 242.302C636.993 241.423 637.564 240.747 638.308 240.272C639.058 239.792 639.92 239.551 640.892 239.551C642.264 239.551 643.345 239.923 644.136 240.668C644.932 241.406 645.395 242.428 645.524 243.735H644.434C644.165 241.561 642.984 240.474 640.892 240.474C639.732 240.474 638.807 240.908 638.115 241.775C637.43 242.642 637.087 243.84 637.087 245.37V246.934C637.087 248.411 637.421 249.588 638.089 250.467C638.763 251.346 639.671 251.786 640.813 251.786C641.944 251.786 642.797 251.516 643.371 250.977C643.945 250.432 644.3 249.618 644.434 248.534H645.524ZM648.952 244.623C649.298 244.054 649.74 243.615 650.279 243.304C650.818 242.994 651.407 242.838 652.046 242.838C653.065 242.838 653.824 243.126 654.322 243.7C654.82 244.274 655.072 245.135 655.078 246.284V252.524H654.032V246.275C654.026 245.425 653.845 244.793 653.487 244.376C653.136 243.96 652.57 243.752 651.791 243.752C651.141 243.752 650.563 243.958 650.059 244.368C649.561 244.772 649.192 245.32 648.952 246.011V252.524H647.906V239.024H648.952V244.623ZM657.205 247.628C657.205 246.714 657.381 245.891 657.732 245.159C658.09 244.426 658.591 243.858 659.235 243.454C659.886 243.043 660.621 242.838 661.441 242.838C662.707 242.838 663.732 243.284 664.517 244.174C665.303 245.059 665.695 246.234 665.695 247.699V247.918C665.695 248.838 665.516 249.668 665.159 250.406C664.807 251.138 664.309 251.704 663.665 252.102C663.02 252.501 662.285 252.7 661.459 252.7C660.199 252.7 659.174 252.257 658.383 251.373C657.598 250.482 657.205 249.304 657.205 247.839V247.628ZM658.26 247.918C658.26 249.055 658.553 249.99 659.139 250.722C659.73 251.449 660.504 251.812 661.459 251.812C662.408 251.812 663.176 251.449 663.762 250.722C664.353 249.99 664.649 249.026 664.649 247.831V247.628C664.649 246.902 664.515 246.237 664.245 245.633C663.975 245.03 663.598 244.564 663.111 244.236C662.625 243.902 662.068 243.735 661.441 243.735C660.504 243.735 659.739 244.104 659.147 244.842C658.556 245.575 658.26 246.536 658.26 247.725V247.918ZM667.295 247.628C667.295 246.714 667.471 245.891 667.822 245.159C668.18 244.426 668.681 243.858 669.325 243.454C669.975 243.043 670.711 242.838 671.531 242.838C672.797 242.838 673.822 243.284 674.607 244.174C675.392 245.059 675.785 246.234 675.785 247.699V247.918C675.785 248.838 675.606 249.668 675.249 250.406C674.897 251.138 674.399 251.704 673.755 252.102C673.11 252.501 672.375 252.7 671.549 252.7C670.289 252.7 669.264 252.257 668.473 251.373C667.687 250.482 667.295 249.304 667.295 247.839V247.628ZM668.349 247.918C668.349 249.055 668.642 249.99 669.228 250.722C669.82 251.449 670.594 251.812 671.549 251.812C672.498 251.812 673.266 251.449 673.851 250.722C674.443 249.99 674.739 249.026 674.739 247.831V247.628C674.739 246.902 674.604 246.237 674.335 245.633C674.065 245.03 673.687 244.564 673.201 244.236C672.715 243.902 672.158 243.735 671.531 243.735C670.594 243.735 669.829 244.104 669.237 244.842C668.645 245.575 668.349 246.536 668.349 247.725V247.918ZM683.66 250.107C683.66 249.585 683.449 249.167 683.027 248.85C682.611 248.534 681.981 248.288 681.138 248.112C680.294 247.93 679.638 247.725 679.169 247.497C678.706 247.262 678.36 246.978 678.132 246.644C677.909 246.31 677.798 245.906 677.798 245.431C677.798 244.681 678.111 244.063 678.738 243.577C679.365 243.085 680.168 242.838 681.146 242.838C682.207 242.838 683.057 243.102 683.695 243.629C684.34 244.151 684.662 244.834 684.662 245.677H683.607C683.607 245.121 683.373 244.658 682.904 244.289C682.441 243.919 681.855 243.735 681.146 243.735C680.455 243.735 679.898 243.89 679.476 244.201C679.06 244.505 678.852 244.904 678.852 245.396C678.852 245.871 679.025 246.24 679.371 246.503C679.723 246.761 680.358 246.999 681.278 247.215C682.204 247.432 682.895 247.664 683.352 247.91C683.815 248.156 684.158 248.452 684.381 248.797C684.603 249.143 684.715 249.562 684.715 250.054C684.715 250.857 684.39 251.499 683.739 251.979C683.095 252.46 682.251 252.7 681.208 252.7C680.1 252.7 679.201 252.433 678.51 251.9C677.824 251.361 677.481 250.681 677.481 249.861H678.536C678.577 250.476 678.835 250.957 679.309 251.302C679.79 251.642 680.423 251.812 681.208 251.812C681.94 251.812 682.532 251.651 682.983 251.329C683.434 251.006 683.66 250.599 683.66 250.107ZM690.77 252.7C689.962 252.7 689.229 252.501 688.573 252.102C687.923 251.704 687.416 251.15 687.053 250.441C686.689 249.726 686.508 248.926 686.508 248.042V247.664C686.508 246.75 686.683 245.926 687.035 245.194C687.392 244.461 687.888 243.887 688.52 243.471C689.153 243.049 689.839 242.838 690.577 242.838C691.731 242.838 692.645 243.234 693.319 244.025C693.999 244.81 694.339 245.885 694.339 247.251V247.839H687.554V248.042C687.554 249.12 687.861 250.019 688.476 250.74C689.098 251.455 689.877 251.812 690.814 251.812C691.377 251.812 691.872 251.71 692.3 251.504C692.733 251.299 693.126 250.971 693.477 250.52L694.137 251.021C693.363 252.14 692.241 252.7 690.77 252.7ZM690.577 243.735C689.786 243.735 689.118 244.025 688.573 244.605C688.034 245.185 687.706 245.964 687.589 246.943H693.293V246.829C693.264 245.915 693.003 245.17 692.511 244.596C692.018 244.022 691.374 243.735 690.577 243.735ZM706.766 252.524C706.661 252.225 706.594 251.783 706.564 251.197C706.195 251.677 705.724 252.049 705.149 252.313C704.581 252.571 703.977 252.7 703.339 252.7C702.425 252.7 701.683 252.445 701.115 251.935C700.553 251.425 700.271 250.781 700.271 250.001C700.271 249.076 700.655 248.343 701.423 247.804C702.196 247.265 703.271 246.996 704.648 246.996H706.556V245.915C706.556 245.235 706.345 244.702 705.923 244.315C705.507 243.922 704.897 243.726 704.095 243.726C703.362 243.726 702.756 243.914 702.275 244.289C701.795 244.664 701.555 245.115 701.555 245.642L700.5 245.633C700.5 244.877 700.851 244.224 701.555 243.673C702.258 243.117 703.122 242.838 704.147 242.838C705.208 242.838 706.043 243.105 706.652 243.638C707.267 244.166 707.584 244.904 707.601 245.853V250.353C707.601 251.273 707.698 251.961 707.891 252.418V252.524H706.766ZM703.462 251.768C704.165 251.768 704.792 251.598 705.343 251.258C705.899 250.918 706.304 250.464 706.556 249.896V247.804H704.675C703.626 247.816 702.806 248.009 702.214 248.384C701.622 248.753 701.326 249.263 701.326 249.914C701.326 250.447 701.522 250.889 701.915 251.241C702.313 251.592 702.829 251.768 703.462 251.768ZM713.93 251.812C714.662 251.812 715.274 251.607 715.766 251.197C716.265 250.781 716.534 250.245 716.575 249.588H717.586C717.557 250.168 717.375 250.699 717.041 251.179C716.707 251.654 716.262 252.026 715.705 252.295C715.154 252.565 714.562 252.7 713.93 252.7C712.682 252.7 711.691 252.266 710.959 251.399C710.232 250.532 709.869 249.366 709.869 247.901V247.585C709.869 246.647 710.033 245.818 710.361 245.097C710.689 244.376 711.158 243.82 711.767 243.427C712.383 243.035 713.1 242.838 713.921 242.838C714.964 242.838 715.822 243.149 716.496 243.77C717.176 244.391 717.539 245.209 717.586 246.222H716.575C716.528 245.478 716.259 244.877 715.766 244.42C715.28 243.963 714.665 243.735 713.921 243.735C712.972 243.735 712.233 244.078 711.706 244.763C711.184 245.449 710.924 246.41 710.924 247.646V247.954C710.924 249.167 711.184 250.113 711.706 250.793C712.233 251.472 712.974 251.812 713.93 251.812ZM721.33 240.58V243.014H723.299V243.876H721.33V250.212C721.33 250.74 721.424 251.132 721.611 251.39C721.805 251.648 722.124 251.777 722.569 251.777C722.745 251.777 723.029 251.748 723.422 251.689L723.466 252.55C723.19 252.65 722.815 252.7 722.341 252.7C721.62 252.7 721.096 252.492 720.767 252.076C720.439 251.654 720.275 251.036 720.275 250.221V243.876H718.526V243.014H720.275V240.58H721.33ZM726.656 252.524H725.601V243.014H726.656V252.524ZM725.417 240.263C725.417 240.064 725.481 239.897 725.61 239.762C725.739 239.622 725.915 239.551 726.138 239.551C726.36 239.551 726.536 239.622 726.665 239.762C726.8 239.897 726.867 240.064 726.867 240.263C726.867 240.462 726.8 240.629 726.665 240.764C726.536 240.899 726.36 240.966 726.138 240.966C725.915 240.966 725.739 240.899 725.61 240.764C725.481 240.629 725.417 240.462 725.417 240.263ZM728.941 247.628C728.941 246.714 729.117 245.891 729.469 245.159C729.826 244.426 730.327 243.858 730.972 243.454C731.622 243.043 732.357 242.838 733.178 242.838C734.443 242.838 735.469 243.284 736.254 244.174C737.039 245.059 737.432 246.234 737.432 247.699V247.918C737.432 248.838 737.253 249.668 736.895 250.406C736.544 251.138 736.046 251.704 735.401 252.102C734.757 252.501 734.021 252.7 733.195 252.7C731.935 252.7 730.91 252.257 730.119 251.373C729.334 250.482 728.941 249.304 728.941 247.839V247.628ZM729.996 247.918C729.996 249.055 730.289 249.99 730.875 250.722C731.467 251.449 732.24 251.812 733.195 251.812C734.144 251.812 734.912 251.449 735.498 250.722C736.09 249.99 736.386 249.026 736.386 247.831V247.628C736.386 246.902 736.251 246.237 735.981 245.633C735.712 245.03 735.334 244.564 734.848 244.236C734.361 243.902 733.805 243.735 733.178 243.735C732.24 243.735 731.475 244.104 730.884 244.842C730.292 245.575 729.996 246.536 729.996 247.725V247.918ZM740.613 243.014L740.648 244.64C741.006 244.054 741.451 243.609 741.984 243.304C742.517 242.994 743.106 242.838 743.751 242.838C744.77 242.838 745.529 243.126 746.027 243.7C746.525 244.274 746.777 245.135 746.783 246.284V252.524H745.737V246.275C745.731 245.425 745.55 244.793 745.192 244.376C744.841 243.96 744.275 243.752 743.496 243.752C742.846 243.752 742.268 243.958 741.765 244.368C741.266 244.772 740.897 245.32 740.657 246.011V252.524H739.611V243.014H740.613Z" fill="#2D2ACD"/>
<rect x="634.846" y="272.521" width="138.192" height="22.5595" rx="3" fill="#2D2ACD" fill-opacity="0.06"/>
<path d="M757 282.756L760.5 286.779L764 282.756H757Z" fill="black" fill-opacity="0.44"/>
<path d="M646.698 284.772H644.861V287.936H643.824V280.115H646.413C647.294 280.115 647.97 280.316 648.443 280.717C648.919 281.118 649.157 281.702 649.157 282.468C649.157 282.955 649.025 283.379 648.76 283.741C648.499 284.103 648.133 284.373 647.664 284.552L649.501 287.871V287.936H648.395L646.698 284.772ZM644.861 283.929H646.445C646.957 283.929 647.364 283.796 647.664 283.531C647.969 283.266 648.121 282.912 648.121 282.468C648.121 281.985 647.976 281.614 647.686 281.356C647.399 281.098 646.984 280.968 646.44 280.964H644.861V283.929ZM652.864 288.043C652.076 288.043 651.435 287.785 650.941 287.27C650.447 286.751 650.199 286.058 650.199 285.191V285.009C650.199 284.432 650.309 283.918 650.527 283.467C650.749 283.012 651.057 282.658 651.451 282.404C651.848 282.146 652.278 282.017 652.74 282.017C653.496 282.017 654.083 282.266 654.502 282.763C654.921 283.261 655.13 283.974 655.13 284.901V285.315H651.193C651.207 285.888 651.374 286.351 651.693 286.706C652.015 287.057 652.423 287.232 652.917 287.232C653.268 287.232 653.565 287.161 653.809 287.017C654.052 286.874 654.265 286.684 654.448 286.448L655.055 286.921C654.568 287.669 653.837 288.043 652.864 288.043ZM652.74 282.833C652.339 282.833 652.002 282.98 651.73 283.274C651.458 283.564 651.29 283.972 651.225 284.498H654.136V284.423C654.108 283.918 653.972 283.528 653.728 283.252C653.485 282.973 653.155 282.833 652.74 282.833ZM656.774 287.936V282.892H655.855V282.124H656.774V281.528C656.774 280.905 656.94 280.423 657.273 280.083C657.606 279.743 658.077 279.573 658.686 279.573C658.915 279.573 659.142 279.603 659.368 279.664L659.314 280.47C659.146 280.438 658.967 280.422 658.777 280.422C658.455 280.422 658.206 280.516 658.031 280.706C657.855 280.892 657.767 281.161 657.767 281.512V282.124H659.008V282.892H657.767V287.936H656.774ZM663.697 287.361C663.31 287.816 662.743 288.043 661.994 288.043C661.375 288.043 660.902 287.864 660.576 287.506C660.254 287.144 660.091 286.611 660.088 285.905V282.124H661.081V285.879C661.081 286.759 661.439 287.2 662.156 287.2C662.915 287.2 663.42 286.917 663.67 286.351V282.124H664.664V287.936H663.719L663.697 287.361ZM667.118 282.124L667.151 282.855C667.595 282.296 668.175 282.017 668.891 282.017C670.119 282.017 670.739 282.71 670.749 284.095V287.936H669.756V284.09C669.752 283.671 669.655 283.361 669.466 283.161C669.279 282.96 668.988 282.86 668.59 282.86C668.268 282.86 667.985 282.946 667.741 283.118C667.498 283.29 667.308 283.515 667.172 283.795V287.936H666.178V282.124H667.118ZM672.006 284.982C672.006 284.09 672.217 283.374 672.64 282.833C673.062 282.289 673.616 282.017 674.3 282.017C674.98 282.017 675.519 282.25 675.916 282.715V279.686H676.91V287.936H675.997L675.948 287.313C675.551 287.8 674.998 288.043 674.289 288.043C673.616 288.043 673.066 287.767 672.64 287.216C672.217 286.665 672.006 285.945 672.006 285.057V284.982ZM673 285.094C673 285.753 673.136 286.269 673.408 286.641C673.68 287.014 674.056 287.2 674.536 287.2C675.166 287.2 675.626 286.917 675.916 286.351V283.682C675.619 283.134 675.163 282.86 674.547 282.86C674.06 282.86 673.68 283.048 673.408 283.424C673.136 283.8 673 284.357 673 285.094ZM684.773 287.936C684.716 287.821 684.669 287.617 684.634 287.323C684.172 287.803 683.62 288.043 682.979 288.043C682.406 288.043 681.935 287.882 681.567 287.56C681.201 287.234 681.019 286.822 681.019 286.324C681.019 285.719 681.248 285.25 681.706 284.917C682.168 284.581 682.816 284.412 683.651 284.412H684.617V283.956C684.617 283.608 684.514 283.333 684.306 283.129C684.098 282.921 683.792 282.817 683.387 282.817C683.033 282.817 682.736 282.907 682.496 283.086C682.256 283.265 682.136 283.481 682.136 283.736H681.137C681.137 283.446 681.239 283.166 681.443 282.898C681.651 282.626 681.93 282.411 682.281 282.253C682.635 282.096 683.024 282.017 683.447 282.017C684.116 282.017 684.641 282.185 685.02 282.522C685.4 282.855 685.597 283.315 685.611 283.902V286.577C685.611 287.11 685.679 287.535 685.815 287.85V287.936H684.773ZM683.124 287.178C683.436 287.178 683.731 287.098 684.01 286.937C684.29 286.776 684.492 286.566 684.617 286.308V285.116H683.839C682.621 285.116 682.012 285.472 682.012 286.185C682.012 286.496 682.116 286.74 682.324 286.915C682.532 287.091 682.798 287.178 683.124 287.178ZM688.109 282.124L688.141 282.855C688.585 282.296 689.165 282.017 689.881 282.017C691.109 282.017 691.729 282.71 691.74 284.095V287.936H690.746V284.09C690.742 283.671 690.646 283.361 690.456 283.161C690.27 282.96 689.978 282.86 689.58 282.86C689.258 282.86 688.975 282.946 688.732 283.118C688.488 283.29 688.298 283.515 688.162 283.795V287.936H687.169V282.124H688.109ZM697.046 287.936H696.052V282.124H697.046V287.936ZM695.972 280.583C695.972 280.422 696.02 280.286 696.117 280.175C696.217 280.064 696.364 280.008 696.557 280.008C696.751 280.008 696.898 280.064 696.998 280.175C697.098 280.286 697.148 280.422 697.148 280.583C697.148 280.744 697.098 280.878 696.998 280.986C696.898 281.093 696.751 281.147 696.557 281.147C696.364 281.147 696.217 281.093 696.117 280.986C696.02 280.878 695.972 280.744 695.972 280.583ZM699.581 282.124L699.614 282.855C700.058 282.296 700.638 282.017 701.354 282.017C702.582 282.017 703.201 282.71 703.212 284.095V287.936H702.219V284.09C702.215 283.671 702.118 283.361 701.928 283.161C701.742 282.96 701.45 282.86 701.053 282.86C700.731 282.86 700.448 282.946 700.204 283.118C699.961 283.29 699.771 283.515 699.635 283.795V287.936H698.641V282.124H699.581ZM706.628 286.588L708.068 282.124H709.083L706.999 287.936H706.241L704.136 282.124H705.151L706.628 286.588ZM709.69 284.976C709.69 284.407 709.801 283.895 710.023 283.44C710.248 282.985 710.56 282.634 710.957 282.387C711.358 282.14 711.815 282.017 712.327 282.017C713.118 282.017 713.757 282.291 714.244 282.839C714.735 283.386 714.98 284.115 714.98 285.025V285.094C714.98 285.66 714.871 286.169 714.653 286.62C714.438 287.067 714.128 287.417 713.723 287.667C713.322 287.918 712.86 288.043 712.338 288.043C711.55 288.043 710.911 287.769 710.42 287.221C709.933 286.674 709.69 285.948 709.69 285.046V284.976ZM710.689 285.094C710.689 285.739 710.837 286.256 711.135 286.647C711.435 287.037 711.836 287.232 712.338 287.232C712.843 287.232 713.244 287.035 713.541 286.641C713.838 286.244 713.987 285.689 713.987 284.976C713.987 284.339 713.834 283.823 713.53 283.429C713.229 283.032 712.828 282.833 712.327 282.833C711.836 282.833 711.441 283.028 711.14 283.419C710.839 283.809 710.689 284.368 710.689 285.094ZM717.306 287.936H716.312V282.124H717.306V287.936ZM716.232 280.583C716.232 280.422 716.28 280.286 716.377 280.175C716.477 280.064 716.624 280.008 716.817 280.008C717.01 280.008 717.157 280.064 717.258 280.175C717.358 280.286 717.408 280.422 717.408 280.583C717.408 280.744 717.358 280.878 717.258 280.986C717.157 281.093 717.01 281.147 716.817 281.147C716.624 281.147 716.477 281.093 716.377 280.986C716.28 280.878 716.232 280.744 716.232 280.583ZM721.232 287.232C721.587 287.232 721.896 287.125 722.161 286.91C722.426 286.695 722.573 286.426 722.602 286.104H723.542C723.524 286.437 723.409 286.754 723.198 287.055C722.987 287.356 722.704 287.596 722.349 287.775C721.998 287.954 721.626 288.043 721.232 288.043C720.441 288.043 719.811 287.78 719.342 287.254C718.876 286.724 718.643 286 718.643 285.084V284.917C718.643 284.351 718.747 283.848 718.955 283.408C719.163 282.967 719.46 282.626 719.846 282.382C720.237 282.139 720.697 282.017 721.227 282.017C721.878 282.017 722.419 282.212 722.849 282.602C723.282 282.993 723.513 283.499 723.542 284.122H722.602C722.573 283.746 722.43 283.438 722.172 283.198C721.918 282.955 721.603 282.833 721.227 282.833C720.722 282.833 720.33 283.016 720.051 283.381C719.775 283.743 719.637 284.267 719.637 284.955V285.143C719.637 285.812 719.775 286.328 720.051 286.69C720.326 287.051 720.72 287.232 721.232 287.232ZM727.071 288.043C726.283 288.043 725.642 287.785 725.148 287.27C724.654 286.751 724.406 286.058 724.406 285.191V285.009C724.406 284.432 724.516 283.918 724.734 283.467C724.956 283.012 725.264 282.658 725.658 282.404C726.055 282.146 726.485 282.017 726.947 282.017C727.703 282.017 728.29 282.266 728.709 282.763C729.128 283.261 729.337 283.974 729.337 284.901V285.315H725.4C725.414 285.888 725.581 286.351 725.9 286.706C726.222 287.057 726.63 287.232 727.124 287.232C727.475 287.232 727.772 287.161 728.016 287.017C728.259 286.874 728.472 286.684 728.655 286.448L729.262 286.921C728.775 287.669 728.045 288.043 727.071 288.043ZM726.947 282.833C726.546 282.833 726.209 282.98 725.937 283.274C725.665 283.564 725.497 283.972 725.432 284.498H728.344V284.423C728.315 283.918 728.179 283.528 727.935 283.252C727.692 282.973 727.362 282.833 726.947 282.833Z" fill="black" fill-opacity="0.47"/>
<rect x="635" y="304" width="45" height="22" rx="3" fill="#2D2ACD" fill-opacity="0.06"/>
<path d="M668.154 314.109L671.654 318.131L675.154 314.109H668.154Z" fill="black" fill-opacity="0.44"/>
<path d="M644.648 317.902H643.804V311.504H644.648V317.902ZM645.87 315.485C645.87 314.755 646.042 314.17 646.388 313.727C646.734 313.282 647.187 313.059 647.746 313.059C648.303 313.059 648.744 313.25 649.069 313.63V311.152H649.882V317.902H649.135L649.095 317.392C648.77 317.791 648.317 317.99 647.737 317.99C647.187 317.99 646.737 317.764 646.388 317.313C646.042 316.862 645.87 316.273 645.87 315.546V315.485ZM646.683 315.577C646.683 316.116 646.794 316.538 647.017 316.843C647.239 317.148 647.547 317.3 647.939 317.3C648.455 317.3 648.832 317.068 649.069 316.606V314.421C648.826 313.973 648.452 313.749 647.948 313.749C647.55 313.749 647.239 313.903 647.017 314.211C646.794 314.518 646.683 314.974 646.683 315.577Z" fill="black" fill-opacity="0.47"/>
<rect x="635" y="338.064" width="61" height="16.0896" rx="8" fill="#2D2ACD" fill-opacity="0.26"/>
<path d="M646.944 345.643H648.729V346.413H646.944V348.434H646.127V346.413H644.343V345.643H646.127V343.776H646.944V345.643ZM657.122 349.076C657.075 348.982 657.037 348.815 657.008 348.575C656.63 348.967 656.179 349.164 655.654 349.164C655.186 349.164 654.8 349.032 654.499 348.768C654.2 348.501 654.05 348.164 654.05 347.757C654.05 347.262 654.238 346.878 654.613 346.606C654.991 346.331 655.521 346.193 656.204 346.193H656.995V345.819C656.995 345.535 656.91 345.31 656.74 345.143C656.57 344.973 656.319 344.888 655.988 344.888C655.698 344.888 655.455 344.961 655.259 345.107C655.062 345.254 654.964 345.431 654.964 345.639H654.147C654.147 345.402 654.23 345.173 654.397 344.954C654.567 344.731 654.796 344.555 655.083 344.426C655.373 344.297 655.691 344.233 656.037 344.233C656.584 344.233 657.014 344.371 657.324 344.646C657.635 344.918 657.796 345.295 657.808 345.775V347.964C657.808 348.4 657.863 348.747 657.975 349.005V349.076H657.122ZM655.773 348.456C656.028 348.456 656.27 348.39 656.498 348.258C656.727 348.126 656.892 347.955 656.995 347.744V346.768H656.357C655.361 346.768 654.863 347.06 654.863 347.643C654.863 347.898 654.948 348.097 655.118 348.241C655.288 348.384 655.506 348.456 655.773 348.456ZM658.884 346.659C658.884 345.929 659.057 345.343 659.403 344.901C659.749 344.456 660.201 344.233 660.761 344.233C661.317 344.233 661.758 344.423 662.083 344.804V342.326H662.896V349.076H662.149L662.11 348.566C661.785 348.964 661.332 349.164 660.752 349.164C660.201 349.164 659.751 348.938 659.403 348.487C659.057 348.036 658.884 347.447 658.884 346.72V346.659ZM659.697 346.751C659.697 347.29 659.809 347.712 660.031 348.017C660.254 348.321 660.562 348.474 660.954 348.474C661.47 348.474 661.846 348.242 662.083 347.779V345.595C661.84 345.147 661.467 344.923 660.963 344.923C660.564 344.923 660.254 345.077 660.031 345.384C659.809 345.692 659.697 346.147 659.697 346.751ZM663.964 346.659C663.964 345.929 664.137 345.343 664.483 344.901C664.829 344.456 665.281 344.233 665.841 344.233C666.397 344.233 666.838 344.423 667.164 344.804V342.326H667.977V349.076H667.229L667.19 348.566C666.865 348.964 666.412 349.164 665.832 349.164C665.281 349.164 664.832 348.938 664.483 348.487C664.137 348.036 663.964 347.447 663.964 346.72V346.659ZM664.777 346.751C664.777 347.29 664.889 347.712 665.111 348.017C665.334 348.321 665.642 348.474 666.034 348.474C666.55 348.474 666.926 348.242 667.164 347.779V345.595C666.92 345.147 666.547 344.923 666.043 344.923C665.645 344.923 665.334 345.077 665.111 345.384C664.889 345.692 664.777 346.147 664.777 346.751ZM671.747 349.076V344.949H670.996V344.321H671.747V343.916C671.747 343.386 671.898 342.973 672.2 342.677C672.504 342.381 672.934 342.233 673.487 342.233C673.815 342.233 674.23 342.323 674.731 342.501L674.595 343.187C674.229 343.04 673.88 342.967 673.549 342.967C673.2 342.967 672.948 343.046 672.793 343.205C672.641 343.36 672.564 343.594 672.564 343.908V344.321H673.536V344.949H672.564V349.076H671.747ZM675.135 349.076H674.318V344.321H675.135V349.076ZM677.341 349.076H676.528V342.326H677.341V349.076ZM679.75 343.169V344.321H680.637V344.949H679.75V347.898C679.75 348.088 679.789 348.232 679.868 348.329C679.947 348.422 680.082 348.469 680.272 348.469C680.366 348.469 680.495 348.452 680.659 348.416V349.076C680.445 349.134 680.237 349.164 680.035 349.164C679.672 349.164 679.398 349.054 679.213 348.834C679.029 348.614 678.937 348.302 678.937 347.898V344.949H678.071V344.321H678.937V343.169H679.75ZM683.564 349.164C682.919 349.164 682.395 348.953 681.991 348.531C681.586 348.106 681.384 347.539 681.384 346.83V346.681C681.384 346.209 681.474 345.789 681.652 345.419C681.834 345.047 682.086 344.757 682.408 344.549C682.733 344.338 683.085 344.233 683.463 344.233C684.081 344.233 684.562 344.436 684.904 344.844C685.247 345.251 685.418 345.834 685.418 346.593V346.931H682.197C682.209 347.4 682.345 347.779 682.606 348.069C682.87 348.356 683.204 348.5 683.608 348.5C683.895 348.5 684.138 348.441 684.337 348.324C684.537 348.207 684.711 348.052 684.86 347.858L685.357 348.245C684.958 348.857 684.361 349.164 683.564 349.164ZM683.463 344.901C683.135 344.901 682.859 345.021 682.637 345.261C682.414 345.498 682.276 345.832 682.224 346.263H684.605V346.202C684.582 345.789 684.471 345.469 684.271 345.244C684.072 345.015 683.803 344.901 683.463 344.901ZM688.662 345.05C688.539 345.03 688.405 345.019 688.262 345.019C687.729 345.019 687.367 345.247 687.176 345.701V349.076H686.363V344.321H687.154L687.167 344.87C687.434 344.445 687.812 344.233 688.301 344.233C688.459 344.233 688.58 344.253 688.662 344.294V345.05Z" fill="#2D2ACD"/>
<rect x="683" y="304" width="45" height="22" rx="3" fill="#2D2ACD" fill-opacity="0.06"/>
<path d="M716.154 314.109L719.654 318.131L723.154 314.109H716.154Z" fill="black" fill-opacity="0.44"/>
<path d="M691.499 317.902H690.686V313.147H691.499V317.902ZM690.62 311.886C690.62 311.754 690.659 311.643 690.738 311.552C690.82 311.461 690.94 311.416 691.099 311.416C691.257 311.416 691.377 311.461 691.459 311.552C691.541 311.643 691.582 311.754 691.582 311.886C691.582 312.018 691.541 312.128 691.459 312.215C691.377 312.303 691.257 312.347 691.099 312.347C690.94 312.347 690.82 312.303 690.738 312.215C690.659 312.128 690.62 312.018 690.62 311.886ZM695.572 316.641C695.572 316.421 695.489 316.251 695.322 316.131C695.158 316.008 694.869 315.902 694.456 315.815C694.046 315.727 693.719 315.621 693.476 315.498C693.236 315.375 693.057 315.229 692.94 315.059C692.826 314.889 692.769 314.687 692.769 314.452C692.769 314.063 692.933 313.733 693.261 313.463C693.592 313.194 694.014 313.059 694.526 313.059C695.065 313.059 695.502 313.198 695.836 313.477C696.173 313.755 696.341 314.111 696.341 314.545H695.524C695.524 314.322 695.429 314.13 695.238 313.969C695.051 313.808 694.813 313.727 694.526 313.727C694.23 313.727 693.999 313.792 693.832 313.921C693.665 314.049 693.582 314.218 693.582 314.426C693.582 314.622 693.659 314.77 693.814 314.87C693.97 314.969 694.25 315.065 694.654 315.155C695.061 315.246 695.391 315.355 695.643 315.481C695.895 315.607 696.081 315.759 696.201 315.938C696.324 316.113 696.385 316.329 696.385 316.584C696.385 317.008 696.215 317.35 695.875 317.608C695.536 317.862 695.095 317.99 694.553 317.99C694.172 317.99 693.835 317.922 693.542 317.788C693.249 317.653 693.019 317.465 692.852 317.225C692.688 316.982 692.606 316.72 692.606 316.439H693.419C693.434 316.711 693.542 316.928 693.744 317.089C693.949 317.247 694.219 317.326 694.553 317.326C694.86 317.326 695.106 317.265 695.291 317.142C695.479 317.016 695.572 316.849 695.572 316.641Z" fill="black" fill-opacity="0.47"/>
<rect x="731" y="303.874" width="42" height="22.1232" rx="3" fill="#2D2ACD" fill-opacity="0.06"/>
<path d="M739.633 315.464C739.633 315.324 739.674 315.207 739.756 315.113C739.841 315.019 739.967 314.972 740.134 314.972C740.301 314.972 740.427 315.019 740.512 315.113C740.6 315.207 740.644 315.324 740.644 315.464C740.644 315.599 740.6 315.712 740.512 315.803C740.427 315.894 740.301 315.939 740.134 315.939C739.967 315.939 739.841 315.894 739.756 315.803C739.674 315.712 739.633 315.599 739.633 315.464ZM742.006 315.464C742.006 315.324 742.047 315.207 742.129 315.113C742.214 315.019 742.34 314.972 742.507 314.972C742.674 314.972 742.8 315.019 742.885 315.113C742.973 315.207 743.017 315.324 743.017 315.464C743.017 315.599 742.973 315.712 742.885 315.803C742.8 315.894 742.674 315.939 742.507 315.939C742.34 315.939 742.214 315.894 742.129 315.803C742.047 315.712 742.006 315.599 742.006 315.464ZM744.379 315.464C744.379 315.324 744.42 315.207 744.502 315.113C744.587 315.019 744.713 314.972 744.88 314.972C745.047 314.972 745.173 315.019 745.258 315.113C745.346 315.207 745.39 315.324 745.39 315.464C745.39 315.599 745.346 315.712 745.258 315.803C745.173 315.894 745.047 315.939 744.88 315.939C744.713 315.939 744.587 315.894 744.502 315.803C744.42 315.712 744.379 315.599 744.379 315.464ZM746.752 315.464C746.752 315.324 746.793 315.207 746.875 315.113C746.96 315.019 747.086 314.972 747.253 314.972C747.42 314.972 747.546 315.019 747.631 315.113C747.719 315.207 747.763 315.324 747.763 315.464C747.763 315.599 747.719 315.712 747.631 315.803C747.546 315.894 747.42 315.939 747.253 315.939C747.086 315.939 746.96 315.894 746.875 315.803C746.793 315.712 746.752 315.599 746.752 315.464Z" fill="black" fill-opacity="0.47"/>
<rect x="618" y="178.174" width="172" height="20.112" fill="#6C69FF"/>
<rect x="618" y="147" width="172" height="38.2129" rx="8" fill="#6C69FF"/>
<path fill-rule="evenodd" clip-rule="evenodd" d="M634 169.537V167.674H652V169.537H634ZM634 174.193H652V172.331H634V174.193ZM634 178.85H652V176.987H634V178.85Z" fill="white"/>
<path fill-rule="evenodd" clip-rule="evenodd" d="M783 154.7L782.3 154L779.5 156.8L776.7 154L776 154.7L778.8 157.5L776 160.3L776.7 161L779.5 158.2L782.3 161L783 160.3L780.2 157.5L783 154.7Z" fill="white"/>
<defs>
<filter id="filter0_d" x="77.5338" y="49.7359" width="808.011" height="544.189" filterUnits="userSpaceOnUse" color-interpolation-filters="sRGB">
<feFlood flood-opacity="0" result="BackgroundImageFix"/>
<feColorMatrix in="SourceAlpha" type="matrix" values="0 0 0 0 0 0 0 0 0 0 0 0 0 0 0 0 0 0 127 0"/>
<feOffset dy="4"/>
<feGaussianBlur stdDeviation="25"/>
<feColorMatrix type="matrix" values="0 0 0 0 0 0 0 0 0 0 0 0 0 0 0 0 0 0 0.13 0"/>
<feBlend mode="normal" in2="BackgroundImageFix" result="effect1_dropShadow"/>
<feBlend mode="normal" in="SourceGraphic" in2="effect1_dropShadow" result="shape"/>
</filter>
<filter id="filter1_d" x="578" y="111" width="252" height="439" filterUnits="userSpaceOnUse" color-interpolation-filters="sRGB">
<feFlood flood-opacity="0" result="BackgroundImageFix"/>
<feColorMatrix in="SourceAlpha" type="matrix" values="0 0 0 0 0 0 0 0 0 0 0 0 0 0 0 0 0 0 127 0"/>
<feOffset dy="4"/>
<feGaussianBlur stdDeviation="20"/>
<feColorMatrix type="matrix" values="0 0 0 0 0 0 0 0 0 0 0 0 0 0 0 0 0 0 0.19 0"/>
<feBlend mode="normal" in2="BackgroundImageFix" result="effect1_dropShadow"/>
<feBlend mode="normal" in="SourceGraphic" in2="effect1_dropShadow" result="shape"/>
</filter>
<linearGradient id="paint0_linear" x1="194" y1="154" x2="194" y2="506" gradientUnits="userSpaceOnUse">
<stop offset="0.942708" stop-color="#F2F2F2"/>
<stop offset="1" stop-color="#F2F2F2" stop-opacity="0"/>
</linearGradient>
<linearGradient id="paint1_linear" x1="211.999" y1="149" x2="211.998" y2="506" gradientUnits="userSpaceOnUse">
<stop offset="0.965758" stop-color="#E1E1E1"/>
<stop offset="1" stop-color="#E1E1E1" stop-opacity="0"/>
</linearGradient>
<linearGradient id="paint2_linear" x1="266" y1="327.573" x2="266" y2="506" gradientUnits="userSpaceOnUse">
<stop offset="0.911458" stop-color="#E1E1E1"/>
<stop offset="1" stop-color="#E1E1E1" stop-opacity="0"/>
</linearGradient>
<linearGradient id="paint3_linear" x1="319.999" y1="149" x2="319.998" y2="506" gradientUnits="userSpaceOnUse">
<stop offset="0.965758" stop-color="#E1E1E1"/>
<stop offset="1" stop-color="#E1E1E1" stop-opacity="0"/>
</linearGradient>
<linearGradient id="paint4_linear" x1="374" y1="327.573" x2="374" y2="506" gradientUnits="userSpaceOnUse">
<stop offset="0.911458" stop-color="#E1E1E1"/>
<stop offset="1" stop-color="#E1E1E1" stop-opacity="0"/>
</linearGradient>
<linearGradient id="paint5_linear" x1="429.999" y1="149" x2="429.998" y2="506" gradientUnits="userSpaceOnUse">
<stop offset="0.965758" stop-color="#E1E1E1"/>
<stop offset="1" stop-color="#E1E1E1" stop-opacity="0"/>
</linearGradient>
<linearGradient id="paint6_linear" x1="484" y1="327.573" x2="484" y2="506" gradientUnits="userSpaceOnUse">
<stop offset="0.911458" stop-color="#E1E1E1"/>
<stop offset="1" stop-color="#E1E1E1" stop-opacity="0"/>
</linearGradient>
<linearGradient id="paint7_linear" x1="537.999" y1="149" x2="537.998" y2="506" gradientUnits="userSpaceOnUse">
<stop offset="0.965758" stop-color="#E1E1E1"/>
<stop offset="1" stop-color="#E1E1E1" stop-opacity="0"/>
</linearGradient>
<linearGradient id="paint8_linear" x1="592" y1="327.573" x2="592" y2="506" gradientUnits="userSpaceOnUse">
<stop offset="0.911458" stop-color="#E1E1E1"/>
<stop offset="1" stop-color="#E1E1E1" stop-opacity="0"/>
</linearGradient>
</defs>
</svg>
